<svg xmlns="http://www.w3.org/2000/svg" xmlns:xlink="http://www.w3.org/1999/xlink" width="1080" zoomAndPan="magnify" viewBox="0 0 810 1439.999935" height="1920" preserveAspectRatio="xMidYMid meet" version="1.0"><defs><clipPath id="cb4f54522e"><path d="M 0 393 L 810 393 L 810 1140.46875 L 0 1140.46875 Z M 0 393 " clip-rule="nonzero"/></clipPath><clipPath id="8dc766d3a5"><path d="M 124 299.71875 L 188 299.71875 L 188 456 L 124 456 Z M 124 299.71875 " clip-rule="nonzero"/></clipPath><clipPath id="57ff42918b"><path d="M 622 299.71875 L 686 299.71875 L 686 456 L 622 456 Z M 622 299.71875 " clip-rule="nonzero"/></clipPath></defs><g clip-path="url(#cb4f54522e)"><path fill="#0032a0" d="M 778.582031 1140.46875 L 31.417969 1140.46875 C 30.398438 1140.46875 29.378906 1140.417969 28.363281 1140.316406 C 27.351562 1140.21875 26.34375 1140.066406 25.34375 1139.867188 C 24.34375 1139.667969 23.355469 1139.421875 22.378906 1139.125 C 21.402344 1138.828125 20.445312 1138.488281 19.503906 1138.097656 C 18.5625 1137.707031 17.640625 1137.269531 16.742188 1136.789062 C 15.84375 1136.308594 14.96875 1135.785156 14.121094 1135.21875 C 13.273438 1134.652344 12.453125 1134.046875 11.667969 1133.398438 C 10.878906 1132.75 10.125 1132.066406 9.402344 1131.347656 C 8.683594 1130.625 8 1129.871094 7.351562 1129.082031 C 6.703125 1128.292969 6.097656 1127.476562 5.53125 1126.628906 C 4.964844 1125.78125 4.441406 1124.90625 3.960938 1124.007812 C 3.480469 1123.105469 3.042969 1122.1875 2.65625 1121.242188 C 2.265625 1120.300781 1.921875 1119.34375 1.625 1118.367188 C 1.328125 1117.390625 1.082031 1116.402344 0.882812 1115.402344 C 0.683594 1114.402344 0.535156 1113.394531 0.433594 1112.378906 C 0.335938 1111.363281 0.285156 1110.347656 0.285156 1109.328125 L 0.285156 424.273438 C 0.285156 423.253906 0.335938 422.234375 0.433594 421.21875 C 0.535156 420.207031 0.683594 419.199219 0.882812 418.199219 C 1.082031 417.199219 1.328125 416.210938 1.625 415.234375 C 1.921875 414.257812 2.265625 413.296875 2.65625 412.355469 C 3.042969 411.414062 3.480469 410.492188 3.960938 409.59375 C 4.441406 408.695312 4.964844 407.820312 5.53125 406.972656 C 6.097656 406.125 6.703125 405.304688 7.351562 404.519531 C 8 403.730469 8.683594 402.976562 9.402344 402.253906 C 10.125 401.53125 10.878906 400.847656 11.667969 400.203125 C 12.453125 399.554688 13.273438 398.949219 14.121094 398.382812 C 14.96875 397.816406 15.84375 397.292969 16.742188 396.808594 C 17.640625 396.328125 18.5625 395.894531 19.503906 395.503906 C 20.445312 395.113281 21.402344 394.769531 22.378906 394.472656 C 23.355469 394.179688 24.34375 393.929688 25.34375 393.730469 C 26.34375 393.53125 27.351562 393.382812 28.363281 393.285156 C 29.378906 393.183594 30.398438 393.132812 31.417969 393.132812 L 778.582031 393.132812 C 779.601562 393.132812 780.621094 393.183594 781.632812 393.285156 C 782.648438 393.382812 783.65625 393.53125 784.65625 393.730469 C 785.65625 393.929688 786.644531 394.179688 787.621094 394.472656 C 788.597656 394.769531 789.554688 395.113281 790.496094 395.503906 C 791.4375 395.894531 792.359375 396.328125 793.257812 396.808594 C 794.15625 397.292969 795.03125 397.816406 795.878906 398.382812 C 796.726562 398.949219 797.546875 399.554688 798.332031 400.203125 C 799.121094 400.847656 799.875 401.53125 800.597656 402.253906 C 801.316406 402.976562 802 403.730469 802.648438 404.519531 C 803.296875 405.304688 803.902344 406.125 804.46875 406.972656 C 805.035156 407.820312 805.558594 408.695312 806.039062 409.59375 C 806.519531 410.492188 806.957031 411.414062 807.34375 412.355469 C 807.734375 413.296875 808.078125 414.257812 808.375 415.234375 C 808.671875 416.210938 808.917969 417.199219 809.117188 418.199219 C 809.316406 419.199219 809.464844 420.207031 809.566406 421.21875 C 809.664062 422.234375 809.714844 423.253906 809.714844 424.273438 L 809.714844 1109.328125 C 809.714844 1110.347656 809.664062 1111.363281 809.566406 1112.378906 C 809.464844 1113.394531 809.316406 1114.402344 809.117188 1115.402344 C 808.917969 1116.402344 808.671875 1117.390625 808.375 1118.367188 C 808.078125 1119.34375 807.734375 1120.300781 807.34375 1121.242188 C 806.957031 1122.1875 806.519531 1123.105469 806.039062 1124.007812 C 805.558594 1124.90625 805.035156 1125.78125 804.46875 1126.628906 C 803.902344 1127.476562 803.296875 1128.292969 802.648438 1129.082031 C 802 1129.871094 801.316406 1130.625 800.597656 1131.347656 C 799.875 1132.066406 799.121094 1132.75 798.332031 1133.398438 C 797.542969 1134.046875 796.726562 1134.652344 795.878906 1135.21875 C 795.03125 1135.785156 794.15625 1136.308594 793.257812 1136.789062 C 792.359375 1137.269531 791.4375 1137.707031 790.496094 1138.097656 C 789.554688 1138.488281 788.597656 1138.828125 787.621094 1139.125 C 786.644531 1139.421875 785.65625 1139.667969 784.65625 1139.867188 C 783.65625 1140.066406 782.648438 1140.21875 781.632812 1140.316406 C 780.621094 1140.417969 779.601562 1140.46875 778.582031 1140.46875 Z M 62.546875 1078.1875 L 747.453125 1078.1875 L 747.453125 455.410156 L 62.546875 455.410156 Z M 62.546875 1078.1875 " fill-opacity="1" fill-rule="nonzero"/></g><g clip-path="url(#8dc766d3a5)"><path fill="#0032a0" d="M 155.945312 455.410156 C 154.925781 455.410156 153.90625 455.363281 152.894531 455.261719 C 151.878906 455.160156 150.871094 455.011719 149.871094 454.8125 C 148.871094 454.613281 147.882812 454.367188 146.90625 454.070312 C 145.929688 453.773438 144.972656 453.429688 144.03125 453.042969 C 143.089844 452.652344 142.167969 452.214844 141.269531 451.734375 C 140.371094 451.253906 139.496094 450.730469 138.648438 450.164062 C 137.800781 449.597656 136.984375 448.988281 136.195312 448.34375 C 135.40625 447.695312 134.652344 447.011719 133.929688 446.289062 C 133.210938 445.570312 132.527344 444.816406 131.878906 444.027344 C 131.230469 443.238281 130.625 442.421875 130.058594 441.574219 C 129.492188 440.722656 128.96875 439.851562 128.488281 438.953125 C 128.007812 438.050781 127.574219 437.132812 127.183594 436.1875 C 126.792969 435.246094 126.449219 434.289062 126.152344 433.3125 C 125.855469 432.335938 125.609375 431.347656 125.410156 430.347656 C 125.210938 429.347656 125.0625 428.339844 124.960938 427.324219 C 124.863281 426.308594 124.8125 425.292969 124.8125 424.273438 L 124.8125 330.855469 C 124.8125 329.835938 124.863281 328.820312 124.960938 327.804688 C 125.0625 326.789062 125.210938 325.78125 125.410156 324.78125 C 125.609375 323.78125 125.855469 322.792969 126.152344 321.816406 C 126.449219 320.839844 126.792969 319.882812 127.183594 318.941406 C 127.574219 317.996094 128.007812 317.078125 128.488281 316.175781 C 128.96875 315.277344 129.492188 314.402344 130.058594 313.554688 C 130.625 312.707031 131.230469 311.890625 131.878906 311.101562 C 132.527344 310.3125 133.210938 309.558594 133.929688 308.835938 C 134.652344 308.117188 135.40625 307.433594 136.195312 306.785156 C 136.984375 306.136719 137.800781 305.53125 138.648438 304.964844 C 139.496094 304.398438 140.371094 303.875 141.269531 303.394531 C 142.167969 302.914062 143.089844 302.476562 144.03125 302.085938 C 144.972656 301.695312 145.929688 301.355469 146.90625 301.058594 C 147.882812 300.761719 148.871094 300.515625 149.871094 300.316406 C 150.871094 300.117188 151.878906 299.96875 152.894531 299.867188 C 153.90625 299.765625 154.925781 299.71875 155.945312 299.71875 C 156.964844 299.71875 157.980469 299.765625 158.996094 299.867188 C 160.011719 299.96875 161.019531 300.117188 162.019531 300.316406 C 163.019531 300.515625 164.007812 300.761719 164.980469 301.058594 C 165.957031 301.355469 166.917969 301.695312 167.859375 302.085938 C 168.800781 302.476562 169.71875 302.914062 170.621094 303.394531 C 171.519531 303.875 172.394531 304.398438 173.242188 304.964844 C 174.089844 305.53125 174.90625 306.136719 175.695312 306.785156 C 176.484375 307.433594 177.238281 308.117188 177.957031 308.835938 C 178.679688 309.558594 179.363281 310.3125 180.007812 311.101562 C 180.65625 311.890625 181.261719 312.707031 181.828125 313.554688 C 182.394531 314.402344 182.917969 315.277344 183.398438 316.175781 C 183.882812 317.078125 184.316406 317.996094 184.707031 318.941406 C 185.097656 319.882812 185.441406 320.839844 185.734375 321.816406 C 186.03125 322.792969 186.277344 323.78125 186.476562 324.78125 C 186.675781 325.78125 186.828125 326.789062 186.925781 327.804688 C 187.027344 328.820312 187.078125 329.835938 187.078125 330.855469 L 187.078125 424.273438 C 187.078125 425.292969 187.027344 426.308594 186.925781 427.324219 C 186.828125 428.339844 186.675781 429.347656 186.476562 430.347656 C 186.277344 431.347656 186.03125 432.335938 185.734375 433.3125 C 185.441406 434.289062 185.097656 435.246094 184.707031 436.1875 C 184.316406 437.132812 183.882812 438.050781 183.398438 438.953125 C 182.917969 439.851562 182.394531 440.722656 181.828125 441.574219 C 181.261719 442.421875 180.65625 443.238281 180.007812 444.027344 C 179.363281 444.816406 178.679688 445.570312 177.957031 446.289062 C 177.238281 447.011719 176.484375 447.695312 175.695312 448.34375 C 174.90625 448.988281 174.089844 449.597656 173.242188 450.164062 C 172.394531 450.730469 171.519531 451.253906 170.621094 451.734375 C 169.71875 452.214844 168.800781 452.652344 167.859375 453.042969 C 166.917969 453.429688 165.957031 453.773438 164.980469 454.070312 C 164.007812 454.367188 163.019531 454.613281 162.019531 454.8125 C 161.019531 455.011719 160.011719 455.160156 158.996094 455.261719 C 157.980469 455.363281 156.964844 455.410156 155.945312 455.410156 Z M 155.945312 455.410156 " fill-opacity="1" fill-rule="nonzero"/></g><g clip-path="url(#57ff42918b)"><path fill="#0032a0" d="M 654.054688 455.410156 C 653.035156 455.410156 652.019531 455.363281 651.003906 455.261719 C 649.988281 455.160156 648.980469 455.011719 647.980469 454.8125 C 646.980469 454.613281 645.992188 454.367188 645.019531 454.070312 C 644.042969 453.773438 643.082031 453.429688 642.140625 453.042969 C 641.199219 452.652344 640.277344 452.214844 639.378906 451.734375 C 638.480469 451.253906 637.605469 450.730469 636.757812 450.164062 C 635.910156 449.597656 635.09375 448.988281 634.304688 448.34375 C 633.515625 447.695312 632.761719 447.011719 632.042969 446.289062 C 631.320312 445.570312 630.636719 444.816406 629.988281 444.027344 C 629.34375 443.238281 628.738281 442.421875 628.171875 441.574219 C 627.605469 440.722656 627.082031 439.851562 626.597656 438.953125 C 626.117188 438.050781 625.683594 437.132812 625.292969 436.1875 C 624.902344 435.246094 624.558594 434.289062 624.265625 433.3125 C 623.96875 432.335938 623.71875 431.347656 623.523438 430.347656 C 623.324219 429.347656 623.171875 428.339844 623.074219 427.324219 C 622.972656 426.308594 622.921875 425.292969 622.921875 424.273438 L 622.921875 330.855469 C 622.921875 329.835938 622.972656 328.820312 623.074219 327.804688 C 623.171875 326.789062 623.324219 325.78125 623.523438 324.78125 C 623.71875 323.78125 623.96875 322.792969 624.265625 321.816406 C 624.558594 320.839844 624.902344 319.882812 625.292969 318.941406 C 625.683594 317.996094 626.117188 317.078125 626.597656 316.175781 C 627.082031 315.277344 627.605469 314.402344 628.171875 313.554688 C 628.738281 312.707031 629.34375 311.890625 629.988281 311.101562 C 630.636719 310.3125 631.320312 309.558594 632.042969 308.835938 C 632.761719 308.117188 633.515625 307.433594 634.304688 306.785156 C 635.09375 306.136719 635.910156 305.53125 636.757812 304.964844 C 637.605469 304.398438 638.480469 303.875 639.378906 303.394531 C 640.277344 302.914062 641.199219 302.476562 642.140625 302.085938 C 643.082031 301.695312 644.042969 301.355469 645.019531 301.058594 C 645.992188 300.761719 646.980469 300.515625 647.980469 300.316406 C 648.980469 300.117188 649.988281 299.96875 651.003906 299.867188 C 652.019531 299.765625 653.035156 299.71875 654.054688 299.71875 C 655.074219 299.71875 656.09375 299.765625 657.105469 299.867188 C 658.121094 299.96875 659.128906 300.117188 660.128906 300.316406 C 661.128906 300.515625 662.117188 300.761719 663.09375 301.058594 C 664.066406 301.355469 665.027344 301.695312 665.96875 302.085938 C 666.910156 302.476562 667.832031 302.914062 668.730469 303.394531 C 669.628906 303.875 670.503906 304.398438 671.351562 304.964844 C 672.199219 305.53125 673.015625 306.136719 673.804688 306.785156 C 674.59375 307.433594 675.347656 308.117188 676.070312 308.835938 C 676.789062 309.558594 677.472656 310.3125 678.121094 311.101562 C 678.769531 311.890625 679.375 312.707031 679.941406 313.554688 C 680.507812 314.402344 681.03125 315.277344 681.511719 316.175781 C 681.992188 317.078125 682.425781 317.996094 682.816406 318.941406 C 683.207031 319.882812 683.550781 320.839844 683.847656 321.816406 C 684.144531 322.792969 684.390625 323.78125 684.589844 324.78125 C 684.789062 325.78125 684.9375 326.789062 685.039062 327.804688 C 685.136719 328.820312 685.1875 329.835938 685.1875 330.855469 L 685.1875 424.273438 C 685.1875 425.292969 685.136719 426.308594 685.039062 427.324219 C 684.9375 428.339844 684.789062 429.347656 684.589844 430.347656 C 684.390625 431.347656 684.144531 432.335938 683.847656 433.3125 C 683.550781 434.289062 683.207031 435.246094 682.816406 436.1875 C 682.425781 437.132812 681.992188 438.050781 681.511719 438.953125 C 681.03125 439.851562 680.507812 440.722656 679.941406 441.574219 C 679.375 442.421875 678.769531 443.238281 678.121094 444.027344 C 677.472656 444.816406 676.789062 445.570312 676.070312 446.289062 C 675.347656 447.011719 674.59375 447.695312 673.804688 448.34375 C 673.015625 448.988281 672.199219 449.597656 671.351562 450.164062 C 670.503906 450.730469 669.628906 451.253906 668.730469 451.734375 C 667.832031 452.214844 666.910156 452.652344 665.96875 453.042969 C 665.027344 453.429688 664.066406 453.773438 663.09375 454.070312 C 662.117188 454.367188 661.128906 454.613281 660.128906 454.8125 C 659.128906 455.011719 658.121094 455.160156 657.105469 455.261719 C 656.09375 455.363281 655.074219 455.410156 654.054688 455.410156 Z M 654.054688 455.410156 " fill-opacity="1" fill-rule="nonzero"/></g><path fill="#0032a0" d="M 187.078125 642.246094 L 249.339844 642.246094 L 249.339844 704.523438 L 187.078125 704.523438 Z M 187.078125 642.246094 " fill-opacity="1" fill-rule="nonzero"/><path fill="#0032a0" d="M 373.867188 642.246094 L 436.132812 642.246094 L 436.132812 704.523438 L 373.867188 704.523438 Z M 373.867188 642.246094 " fill-opacity="1" fill-rule="nonzero"/><path fill="#0032a0" d="M 560.660156 642.246094 L 622.921875 642.246094 L 622.921875 704.523438 L 560.660156 704.523438 Z M 560.660156 642.246094 " fill-opacity="1" fill-rule="nonzero"/><path fill="#0032a0" d="M 187.078125 797.9375 L 249.339844 797.9375 L 249.339844 860.21875 L 187.078125 860.21875 Z M 187.078125 797.9375 " fill-opacity="1" fill-rule="nonzero"/><path fill="#0032a0" d="M 373.867188 797.9375 L 436.132812 797.9375 L 436.132812 860.21875 L 373.867188 860.21875 Z M 373.867188 797.9375 " fill-opacity="1" fill-rule="nonzero"/><path fill="#0032a0" d="M 560.660156 797.9375 L 622.921875 797.9375 L 622.921875 860.21875 L 560.660156 860.21875 Z M 560.660156 797.9375 " fill-opacity="1" fill-rule="nonzero"/><path fill="#0032a0" d="M 187.078125 953.632812 L 249.339844 953.632812 L 249.339844 1015.910156 L 187.078125 1015.910156 Z M 187.078125 953.632812 " fill-opacity="1" fill-rule="nonzero"/><path fill="#0032a0" d="M 373.867188 953.632812 L 436.132812 953.632812 L 436.132812 1015.910156 L 373.867188 1015.910156 Z M 373.867188 953.632812 " fill-opacity="1" fill-rule="nonzero"/><path fill="#0032a0" d="M 560.660156 953.632812 L 622.921875 953.632812 L 622.921875 1015.910156 L 560.660156 1015.910156 Z M 560.660156 953.632812 " fill-opacity="1" fill-rule="nonzero"/><path fill="#0032a0" d="M 778.582031 594.289062 L 31.417969 594.289062 C 30.398438 594.289062 29.378906 594.242188 28.363281 594.140625 C 27.351562 594.039062 26.34375 593.890625 25.34375 593.691406 C 24.34375 593.492188 23.355469 593.246094 22.378906 592.949219 C 21.402344 592.652344 20.445312 592.3125 19.503906 591.921875 C 18.5625 591.53125 17.640625 591.09375 16.742188 590.613281 C 15.84375 590.132812 14.96875 589.609375 14.121094 589.042969 C 13.273438 588.476562 12.453125 587.871094 11.667969 587.222656 C 10.878906 586.574219 10.125 585.890625 9.402344 585.171875 C 8.683594 584.449219 8 583.695312 7.351562 582.90625 C 6.703125 582.117188 6.097656 581.300781 5.53125 580.453125 C 4.964844 579.605469 4.441406 578.730469 3.960938 577.832031 C 3.480469 576.929688 3.042969 576.011719 2.65625 575.066406 C 2.265625 574.125 1.921875 573.167969 1.625 572.191406 C 1.328125 571.214844 1.082031 570.226562 0.882812 569.226562 C 0.683594 568.226562 0.535156 567.21875 0.433594 566.203125 C 0.335938 565.1875 0.285156 564.171875 0.285156 563.152344 C 0.285156 562.132812 0.335938 561.113281 0.433594 560.101562 C 0.535156 559.085938 0.683594 558.078125 0.882812 557.078125 C 1.082031 556.078125 1.328125 555.089844 1.625 554.113281 C 1.921875 553.136719 2.265625 552.179688 2.65625 551.234375 C 3.042969 550.292969 3.480469 549.371094 3.960938 548.472656 C 4.441406 547.574219 4.964844 546.699219 5.53125 545.851562 C 6.097656 545.003906 6.703125 544.1875 7.351562 543.398438 C 8 542.609375 8.683594 541.855469 9.402344 541.132812 C 10.125 540.414062 10.878906 539.726562 11.667969 539.082031 C 12.453125 538.433594 13.273438 537.828125 14.121094 537.261719 C 14.96875 536.695312 15.84375 536.171875 16.742188 535.691406 C 17.640625 535.210938 18.5625 534.773438 19.503906 534.382812 C 20.445312 533.992188 21.402344 533.648438 22.378906 533.355469 C 23.355469 533.058594 24.34375 532.808594 25.34375 532.613281 C 26.34375 532.414062 27.351562 532.261719 28.363281 532.164062 C 29.378906 532.0625 30.398438 532.011719 31.417969 532.011719 L 778.582031 532.011719 C 779.601562 532.011719 780.621094 532.0625 781.632812 532.164062 C 782.648438 532.261719 783.65625 532.414062 784.65625 532.609375 C 785.65625 532.808594 786.644531 533.058594 787.621094 533.355469 C 788.597656 533.648438 789.554688 533.992188 790.496094 534.382812 C 791.4375 534.773438 792.359375 535.210938 793.257812 535.691406 C 794.15625 536.171875 795.03125 536.695312 795.878906 537.261719 C 796.726562 537.828125 797.546875 538.433594 798.332031 539.082031 C 799.121094 539.726562 799.875 540.414062 800.597656 541.132812 C 801.316406 541.855469 802 542.609375 802.648438 543.398438 C 803.296875 544.1875 803.902344 545.003906 804.46875 545.851562 C 805.035156 546.699219 805.558594 547.574219 806.039062 548.472656 C 806.519531 549.371094 806.957031 550.292969 807.34375 551.234375 C 807.734375 552.179688 808.078125 553.136719 808.375 554.113281 C 808.671875 555.089844 808.917969 556.078125 809.117188 557.078125 C 809.316406 558.078125 809.464844 559.085938 809.566406 560.101562 C 809.664062 561.113281 809.714844 562.132812 809.714844 563.152344 C 809.714844 564.171875 809.664062 565.1875 809.566406 566.203125 C 809.464844 567.21875 809.316406 568.226562 809.117188 569.226562 C 808.917969 570.226562 808.671875 571.214844 808.375 572.191406 C 808.078125 573.167969 807.734375 574.125 807.34375 575.066406 C 806.957031 576.011719 806.519531 576.929688 806.039062 577.832031 C 805.558594 578.730469 805.035156 579.605469 804.46875 580.453125 C 803.902344 581.300781 803.296875 582.117188 802.648438 582.90625 C 802 583.695312 801.316406 584.449219 800.597656 585.171875 C 799.875 585.890625 799.121094 586.574219 798.332031 587.222656 C 797.542969 587.871094 796.726562 588.476562 795.878906 589.042969 C 795.03125 589.609375 794.15625 590.132812 793.257812 590.613281 C 792.359375 591.09375 791.4375 591.53125 790.496094 591.921875 C 789.554688 592.3125 788.597656 592.652344 787.621094 592.949219 C 786.644531 593.246094 785.65625 593.492188 784.65625 593.691406 C 783.65625 593.890625 782.648438 594.039062 781.632812 594.140625 C 780.621094 594.242188 779.601562 594.289062 778.582031 594.289062 Z M 778.582031 594.289062 " fill-opacity="1" fill-rule="nonzero"/></svg>