<svg xmlns="http://www.w3.org/2000/svg" xmlns:xlink="http://www.w3.org/1999/xlink" width="1080" zoomAndPan="magnify" viewBox="0 0 810 1439.999935" height="1920" preserveAspectRatio="xMidYMid meet" version="1.0"><defs><clipPath id="101eabc4ca"><path d="M 0 315 L 810 315 L 810 1125 L 0 1125 Z M 0 315 " clip-rule="nonzero"/></clipPath></defs><g clip-path="url(#101eabc4ca)"><path fill="#0032a0" d="M 404.644531 314.753906 C 181.035156 314.753906 -0.238281 496.035156 -0.238281 719.636719 C -0.238281 943.238281 181.035156 1124.53125 404.644531 1124.53125 C 628.25 1124.53125 809.539062 943.238281 809.539062 719.636719 C 809.539062 496.035156 628.25 314.753906 404.644531 314.753906 Z M 579.6875 796.644531 L 408.03125 796.644531 C 407.449219 796.644531 406.910156 796.503906 406.335938 796.484375 C 405.761719 796.511719 405.222656 796.644531 404.644531 796.644531 C 389.179688 796.644531 376.640625 784.105469 376.640625 768.640625 L 376.640625 482.78125 C 376.640625 467.316406 389.179688 454.777344 404.644531 454.777344 C 420.109375 454.777344 432.644531 467.316406 432.644531 482.78125 L 432.644531 740.636719 L 579.679688 740.636719 C 595.144531 740.636719 607.683594 753.175781 607.683594 768.640625 C 607.683594 784.105469 595.152344 796.644531 579.6875 796.644531 Z M 579.6875 796.644531 " fill-opacity="1" fill-rule="nonzero"/></g></svg>