<?xml version="1.0" encoding="utf-8"?>
<!-- Generator: Adobe Illustrator 27.1.1, SVG Export Plug-In . SVG Version: 6.00 Build 0)  -->
<svg version="1.1" id="Layer_1" xmlns="http://www.w3.org/2000/svg" xmlns:xlink="http://www.w3.org/1999/xlink" x="0px" y="0px"
	 viewBox="0 0 248 343" style="enable-background:new 0 0 248 343;" xml:space="preserve">
<style type="text/css">
	.st0{fill:#233F94;enable-background:new    ;}
	.st1{enable-background:new    ;}
	.st2{fill:#233F94;}
	.st3{fill:#767CB9;}
	.st4{fill:#8A8FC4;}
	.st5{fill:#9599C8;}
	.st6{fill:#C0C3E1;}
	.st7{fill:#8287BF;}
	.st8{fill:#243F95;}
	.st9{fill:#ECC61C;}
	.st10{fill:#FCDA79;}
	.st11{fill:#ED2D24;}
	.st12{fill:#98AFB3;}
	.st13{fill:#BF2126;}
	.st14{fill:#256C91;}
	.st15{fill:#F3954E;}
	.st16{fill:#AFBECF;}
	.st17{fill:#E7753E;}
	.st18{fill:#F9B37A;}
	.st19{fill:#7A8C8F;}
	.st20{fill:#D8E6E7;}
	.st21{fill:#5561A8;}
	.st22{fill:#8287C0;}
</style>
<g class="st1">
	<path class="st2" d="M88.52,176.33c7.08-0.72,12.8-4.17,17.87-8.9c2.19-2.04,4.17-4.29,5.85-6.78c1.03-1.53,2.37-2.45,4.14-2.85
		c1.23-0.28,2.49-0.5,3.67-0.95c2-0.75,3.74-0.42,5.58,0.61c16.55,9.28,32.98,18.75,48.69,29.41c7.14,4.84,13.83,10.3,20.73,15.48
		c2.13,1.6,3.37,3.72,3.51,6.44c0.18,3.57-1.84,6.2-5.41,6.89c-2.31,0.45-4.59,0.28-6.69-0.92c-0.8-0.45-1.59-0.93-2.38-1.4
		c-10.07-6.01-20.14-12.02-30.21-18.02c-0.69-0.41-1.39-0.8-2.08-1.22c-0.61-0.37-1.26-0.53-1.97-0.54
		c-1.23-0.03-2.23,0.46-2.54,1.38c-0.39,1.15-0.43,2.33,0.55,3.19c0.77,0.68,1.67,1.21,2.56,1.74c8.76,5.28,17.53,10.55,26.29,15.83
		c0.89,0.53,1.81,1.02,2.63,1.65c4.37,3.34,3.72,9.54-1.3,11.83c-3.44,1.57-6.86,1.52-10.23-0.47c-6.83-4.03-13.7-7.99-20.56-11.97
		c-1.69-0.98-3.37-1.98-5.06-2.95c-0.6-0.34-1.2-0.69-1.84-0.92c-1.25-0.45-2.49-0.07-3.06,0.86c-0.68,1.11-0.61,2.64,0.33,3.5
		c0.76,0.68,1.66,1.22,2.55,1.74c7.34,4.29,14.69,8.57,22.04,12.85c0.7,0.41,1.38,0.82,2.08,1.22c1.96,1.13,2.56,2.83,2.14,4.98
		c-0.6,3.11-2.75,5.3-5.98,5.91c-3.03,0.58-5.95,0.18-8.71-1.24c-2.86-1.47-5.72-2.94-8.58-4.42c-3.57-1.85-7.14-3.71-10.71-5.57
		c-0.61-0.32-1.2-0.71-1.84-0.95c-1.51-0.57-3.22,0.09-3.83,1.42c-0.58,1.24-0.09,2.66,1.3,3.53c0.68,0.43,1.43,0.74,2.15,1.09
		c5.68,2.78,11.36,5.54,17.03,8.34c2.61,1.29,2.78,2.27,0.83,4.33c-1.54,1.64-3.47,2.59-5.62,3.19c-3.28,0.91-6.62,0.87-9.93,0.52
		c-4.23-0.44-8.38-1.39-12.45-2.68c-0.44-0.14-0.87-0.31-1.28-0.52c-0.98-0.49-1.2-1.28-0.61-2.27c0.35-0.59,0.79-1.13,1.15-1.71
		c3.45-5.58,2.32-11.92-2.86-15.99c-2.46-1.94-5.04-3.61-8.35-3.7c-1.1-0.03-1.42-0.48-1.45-1.52c-0.02-0.57,0.05-1.15,0.04-1.72
		c-0.11-6.14-4.28-11.26-10.28-12.62c-0.56-0.13-1.12-0.24-1.69-0.34c-2.1-0.37-2.13-0.37-2.22-2.47
		c-0.27-6.55-4.18-10.75-8.91-12.29c-4.94-1.61-9.28-0.43-13.1,2.99c-0.76,0.68-1.2,1.71-2.23,2.1c-0.2-0.11-0.48-0.17-0.57-0.33
		c-1.5-2.72-4.02-4.35-6.39-6.17c-4.64-3.56-11.7-2.72-15.21,1.75c-0.28,0.35-0.6,0.66-0.84,0.92c-0.99,0.09-1.29-0.63-1.73-1.11
		c-2.01-2.21-3.97-4.48-5.98-6.68c-1.26-1.38-1.39-2.83-0.5-4.42c0.34-0.6,0.68-1.2,1.02-1.8c8.63-15.46,17.25-30.91,25.88-46.37
		c0.45-0.8,0.88-1.62,1.41-2.37c0.59-0.84,1.49-1.08,2.44-0.65c0.83,0.38,1.61,0.88,2.41,1.32c3.34,1.81,6.74,3.44,10.46,4.37
		c2.04,0.51,4.06,0.73,6.15,0.65c0.45-0.02,0.93-0.07,1.22,0.39c0.31,0.49,0,0.9-0.26,1.25c-1.74,2.43-3.54,4.82-5.24,7.28
		c-1.43,2.08-2.82,4.2-4.09,6.38c-1.27,2.19-2.19,4.55-2.69,7.06c-1.19,6.01,1.78,11.05,7.65,12.83c0.98,0.3,2.02,0.4,3.03,0.59
		C87.15,176.81,87.84,176.81,88.52,176.33z"/>
	<path class="st2" d="M197.89,199.04c-0.7-0.49-1.39-0.9-2-1.41c-11.48-9.61-23.84-17.99-36.46-25.99
		c-10.77-6.83-21.76-13.29-32.88-19.54c-1.91-1.07-3.64-1.56-5.84-0.8c-2.81,0.97-5.75,1.59-8.65,2.27
		c-1.34,0.31-2.18,1.02-2.86,2.21c-2.8,4.87-6.67,8.75-11.34,11.84c-2.82,1.86-5.89,3.09-9.26,3.52c-1.76,0.23-3.43-0.06-5.01-0.85
		c-1.8-0.9-2.78-2.34-2.85-4.37c-0.05-1.39,0.16-2.73,0.63-4.06c0.82-2.29,1.97-4.41,3.33-6.4c3.31-4.83,6.66-9.64,10.43-14.14
		c0.52-0.62,1.06-1.21,1.57-1.83c3.67-4.35,8.39-6.66,14.01-7.25c8.69-0.91,17.39-1.61,26.14-1.39c7.37,0.19,14.68,0.85,21.82,2.79
		c2.44,0.66,4.83,1.49,7.28,2.07c4.42,1.06,8.87,1.15,13.29-0.13c0.55-0.16,1.1-0.34,1.66-0.47c0.6-0.14,1.15,0,1.5,0.55
		c0.38,0.58,0.74,1.16,1.07,1.77c8.91,15.94,17.81,31.89,26.71,47.83c0.28,0.5,0.53,1.02,0.83,1.51c0.53,0.86,0.23,1.51-0.47,2.09
		c-1.33,1.09-2.65,2.2-3.98,3.3c-2.39,1.98-4.78,3.96-7.19,5.92C198.93,198.42,198.43,198.69,197.89,199.04z"/>
	<path class="st2" d="M236.99,180.07c0.06,1.39-0.53,2.47-1.65,3.22c-0.95,0.64-1.97,1.18-2.97,1.75c-2.5,1.41-5.01,2.81-7.52,4.21
		c-0.5,0.28-1,0.59-1.53,0.79c-1.91,0.72-3.7,0.19-4.87-1.45c-0.46-0.65-0.82-1.38-1.21-2.08c-10.37-18.56-20.75-37.12-31.12-55.69
		c-0.39-0.7-0.8-1.4-1.11-2.14c-0.84-1.95-0.4-3.58,1.29-4.86c0.45-0.34,0.97-0.61,1.47-0.89c3.11-1.74,6.22-3.47,9.34-5.2
		c0.5-0.28,1.01-0.57,1.55-0.74c1.82-0.57,3.44-0.03,4.54,1.52c0.47,0.65,0.83,1.38,1.22,2.08c10.37,18.56,20.74,37.13,31.1,55.7
		C236.19,177.47,237.1,178.58,236.99,180.07z"/>
	<path class="st2" d="M27.86,187.55c-1.64,0.04-2.49-0.23-3.32-0.7c-3.5-1.98-7.05-3.88-10.52-5.91c-2.42-1.41-2.91-3.29-1.7-5.85
		c0.25-0.52,0.55-1.01,0.83-1.51c10.42-18.66,20.84-37.33,31.27-55.99c0.34-0.6,0.65-1.22,1.04-1.79c1.15-1.66,2.93-2.22,4.83-1.53
		c0.54,0.2,1.03,0.5,1.53,0.78c3.11,1.74,6.21,3.49,9.31,5.25c0.6,0.34,1.23,0.67,1.71,1.14c1.14,1.13,1.64,2.49,0.99,4.08
		c-0.3,0.74-0.66,1.47-1.05,2.17c-10.53,18.87-21.06,37.73-31.6,56.59c-0.34,0.6-0.69,1.2-1.08,1.76
		C29.39,187.06,28.39,187.54,27.86,187.55z"/>
	<path class="st2" d="M87.24,208.49c0.14,2.22-0.83,4-2.12,5.68c-2.3,3.01-4.58,6.03-6.85,9.06c-2.2,2.94-4.3,5.96-6.57,8.84
		c-3.17,4.01-9.14,3.85-12.18-0.26c-1.79-2.42-1.96-5.08-0.83-7.82c0.34-0.83,0.9-1.59,1.45-2.33c4.16-5.63,8.34-11.24,12.51-16.86
		c0.69-0.93,1.39-1.83,2.36-2.48c2.62-1.75,5.38-1.9,8.15-0.51C85.86,203.17,87.13,205.5,87.24,208.49z"/>
	<path class="st2" d="M101.6,223.72c0.01,2.21-0.71,3.76-1.74,5.17c-1.49,2.04-3.02,4.06-4.53,6.08c-1.99,2.67-4.01,5.33-5.98,8.01
		c-0.9,1.23-1.95,2.27-3.35,2.9c-3.13,1.4-6.87,0.39-9.3-2.49c-2.08-2.46-2.33-5.82-0.55-8.65c0.79-1.26,1.75-2.42,2.64-3.62
		c2.88-3.88,5.76-7.74,8.63-11.62c1.8-2.43,4.16-3.52,7.18-3.16C98.41,216.8,101.63,220.39,101.6,223.72z"/>
	<path class="st2" d="M116.12,240.44c0.05,1.44-0.41,2.72-1.24,3.86c-2.58,3.52-5.09,7.09-7.82,10.49c-2.33,2.92-5.8,3.33-8.93,1.29
		c-0.96-0.62-1.89-1.32-2.71-2.11c-2.22-2.15-2.63-5.18-1.15-7.89c0.22-0.4,0.5-0.77,0.77-1.14c2.33-3.13,4.62-6.29,7.02-9.37
		c2.84-3.65,6.12-4.1,9.9-1.44c0.84,0.59,1.67,1.23,2.39,1.96C115.55,237.29,116.11,238.81,116.12,240.44z"/>
	<path class="st2" d="M63.58,205.77c-0.09,1.6-0.53,2.78-1.28,3.82c-1.69,2.32-3.35,4.68-5.17,6.89c-2.09,2.55-5.22,2.96-8.02,1.16
		c-1.25-0.8-2.48-1.69-3.58-2.68c-2.12-1.91-2.66-4.8-1.1-7.2c1.81-2.79,3.8-5.49,5.94-8.02c1.89-2.23,4.67-2.55,7.2-1.05
		c1.47,0.87,2.84,1.96,4.15,3.07C63.01,202.86,63.46,204.42,63.58,205.77z"/>
	<path class="st2" d="M88.52,176.33c-0.69,0.48-1.38,0.48-2.07,0.01C87.14,175.86,87.83,175.86,88.52,176.33z"/>
</g>
</svg>
