<?xml version="1.0" encoding="utf-8"?>
<!-- Generator: Adobe Illustrator 27.1.1, SVG Export Plug-In . SVG Version: 6.00 Build 0)  -->
<svg version="1.1" id="Layer_1" xmlns="http://www.w3.org/2000/svg" xmlns:xlink="http://www.w3.org/1999/xlink" x="0px" y="0px"
	 viewBox="0 0 248 343" style="enable-background:new 0 0 248 343;" xml:space="preserve">
<style type="text/css">
	.st0{fill:#233F94;enable-background:new    ;}
	.st1{enable-background:new    ;}
	.st2{fill:#233F94;}
	.st3{fill:#767CB9;}
	.st4{fill:#8A8FC4;}
	.st5{fill:#9599C8;}
	.st6{fill:#C0C3E1;}
	.st7{fill:#8287BF;}
	.st8{fill:#243F95;}
	.st9{fill:#ECC61C;}
	.st10{fill:#FCDA79;}
	.st11{fill:#ED2D24;}
	.st12{fill:#98AFB3;}
	.st13{fill:#BF2126;}
	.st14{fill:#256C91;}
	.st15{fill:#F3954E;}
	.st16{fill:#AFBECF;}
	.st17{fill:#E7753E;}
	.st18{fill:#F9B37A;}
	.st19{fill:#7A8C8F;}
	.st20{fill:#D8E6E7;}
	.st21{fill:#5561A8;}
	.st22{fill:#8287C0;}
</style>
<g>
	<path class="st2" d="M147.69,67.39c-0.09-0.26-0.17-0.44-0.17-0.44S147.51,67.13,147.69,67.39z"/>
	<path class="st2" d="M143.85,96.31c-2.18,4.88-7.67,15.77-14.72,29.45c4.62,10.45,9.93,22.3,15.33,34.24
		c2.96-5.83,15.95-32.06,15.95-46.69c0-16.55-4.88-27.53-7.23-33.28c-2-4.97-4.79-10.98-5.49-12.55
		C148.47,69.39,151.61,78.8,143.85,96.31z"/>
	<path class="st2" d="M109.01,164.18c-18.82,35.54-37.99,71.27-37.99,71.27l11.06,39.38l42.17-77.63L109.01,164.18z"/>
	<path class="st2" d="M110.92,63.56c0,0-5.75,9.06,1.74,29.45s63.95,143.4,63.95,143.4L163.02,275l-54.45-117.27
		c0,0-14.55-32.32-13.51-48.79c1.04-16.55,6.62-27.18,9.32-32.76C107.09,70.44,110.92,63.56,110.92,63.56z"/>
	<path class="st2" d="M128.08,81.24c6.27,0,12.03,2.26,16.73,6.01c1.22-4.01,1.83-7.75,1.92-11.24c0.09-4.35-0.78-6.97-1.13-7.67
		c-0.09-0.26-4.7-12.63-17.51-12.63c-4.7,0-9.14,1.65-12.89,4.53c-0.7,1.13-3.83,6.44-4.01,12.28c-0.09,4.01,0.44,8.54,1.74,13.42
		C117.28,82.98,122.51,81.24,128.08,81.24z"/>
</g>
</svg>
