<?xml version="1.0" encoding="utf-8"?>
<!-- Generator: Adobe Illustrator 27.1.1, SVG Export Plug-In . SVG Version: 6.00 Build 0)  -->
<svg version="1.1" id="Layer_1" xmlns="http://www.w3.org/2000/svg" xmlns:xlink="http://www.w3.org/1999/xlink" x="0px" y="0px"
	 viewBox="0 0 248 343" style="enable-background:new 0 0 248 343;" xml:space="preserve">
<style type="text/css">
	.st0{fill:#233F94;enable-background:new    ;}
	.st1{enable-background:new    ;}
	.st2{fill:#233F94;}
	.st3{fill:#767CB9;}
	.st4{fill:#8A8FC4;}
	.st5{fill:#9599C8;}
	.st6{fill:#C0C3E1;}
	.st7{fill:#8287BF;}
	.st8{fill:#243F95;}
	.st9{fill:#ECC61C;}
	.st10{fill:#FCDA79;}
	.st11{fill:#ED2D24;}
	.st12{fill:#98AFB3;}
	.st13{fill:#BF2126;}
	.st14{fill:#256C91;}
	.st15{fill:#F3954E;}
	.st16{fill:#AFBECF;}
	.st17{fill:#E7753E;}
	.st18{fill:#F9B37A;}
	.st19{fill:#7A8C8F;}
	.st20{fill:#D8E6E7;}
	.st21{fill:#5561A8;}
	.st22{fill:#8287C0;}
</style>
<g>
	<path class="st0" d="M131.69,264.75c-26.32,0-52.64,0-78.96,0c-1.33,0-2.67,0.08-4-0.05c-3.96-0.39-6.38-2.86-6.66-6.79
		c-0.08-1.16-0.02-2.33-0.02-3.5c0-48.47,0-96.95,0-145.42c0-1.17-0.06-2.34,0.03-3.5c0.29-3.95,2.72-6.44,6.74-6.6
		c4.16-0.16,8.33-0.05,12.49-0.06c2,0,4,0.03,6-0.02c2.05-0.06,2.41-0.37,2.44-2.28c0.06-3.16,0.01-6.33,0.04-9.49
		c0.01-1.16-0.02-2.35,0.18-3.49c0.54-3.09,3.13-5.3,6.25-5.47c3.2-0.17,5.99,1.64,6.85,4.69c0.4,1.42,0.47,2.95,0.51,4.44
		c0.08,3.16,0,6.33,0.07,9.49c0.03,1.55,0.57,2.03,2.12,2.11c0.83,0.04,1.67,0.02,2.5,0.02c29.15,0,58.3,0,87.45,0
		c4.63,0,4.64,0.34,4.61-4.65c-0.02-2.5-0.06-5,0.02-7.49c0.04-1.32,0.16-2.68,0.55-3.93c1-3.23,4.05-5.09,7.36-4.66
		c3.05,0.39,5.48,2.79,5.81,5.96c0.19,1.81,0.09,3.66,0.1,5.49c0.01,2.17-0.03,4.33,0.02,6.5c0.06,2.56,0.23,2.74,2.97,2.77
		c4.66,0.04,9.33,0.01,13.99,0.02c1.17,0,2.33-0.04,3.5,0.02c4.54,0.23,6.99,2.64,7.27,7.19c0.07,1.16,0.02,2.33,0.02,3.5
		c0,48.14,0,96.28,0,144.42c0,1.33,0.07,2.67-0.03,4c-0.3,3.67-2.65,6.23-6.25,6.7c-1.48,0.19-2.99,0.09-4.49,0.09
		C184.66,264.75,158.18,264.75,131.69,264.75z M207.9,145.01c0.03-0.12,0.11-0.26,0.08-0.37c-0.07-0.22-0.19-0.42-0.3-0.64
		c-1.28-1.16-2.86-0.62-4.29-0.62c-47.46-0.03-94.91-0.03-142.37-0.02c-1.16,0-2.33,0.02-3.49,0.07c-0.99,0.04-1.52,0.63-1.57,1.57
		c-0.06,1.33-0.04,2.66-0.05,4c0,32.14-0.01,64.27,0.01,96.41c0,6.27-0.63,5.55,5.62,5.56c46.96,0.02,93.91,0.01,140.87,0
		c6.26,0,5.63,0.7,5.63-5.55c0.01-31.97,0.01-63.94,0-95.91C208.05,148,207.95,146.5,207.9,145.01z M131.92,112.62
		c-23.3,0-46.6,0-69.9,0c-1.5,0-3,0.01-4.49,0.06c-0.96,0.03-1.54,0.55-1.55,1.54c-0.02,4.49-0.06,8.99-0.02,13.48
		c0.01,1.53,0.5,1.91,2.19,1.99c1,0.05,2,0.02,3,0.02c47.27,0,94.54,0,141.81,0c1.16,0,2.33-0.02,3.49-0.07
		c0.99-0.04,1.56-0.63,1.56-1.57c0.02-4.66,0.01-9.32-0.03-13.98c-0.01-1.03-0.76-1.4-1.67-1.43c-1.5-0.05-3-0.04-4.49-0.04
		C178.52,112.62,155.22,112.62,131.92,112.62z"/>
	<path class="st0" d="M207.9,145.01c-0.17-0.22-0.35-0.43-0.48-0.67c-0.03-0.05,0.17-0.22,0.26-0.33c0.1,0.21,0.23,0.41,0.3,0.64
		C208.01,144.74,207.92,144.88,207.9,145.01z"/>
	<path class="st0" d="M131.45,237.02c-1.56-0.18-4.18,0.88-5.68-0.5c-1.74-1.6-0.51-4.37-0.71-6.62c-0.12-1.31-0.05-2.64-0.01-3.96
		c0.07-2.48,0.22-2.68,2.45-2.72c3.14-0.05,6.28-0.01,9.42,0c1.12,0,1.95,0.46,1.96,1.7c0.03,3.47,0.02,6.94,0,10.41
		c-0.01,1.26-0.81,1.68-1.93,1.69C135.3,237.03,133.65,237.02,131.45,237.02z"/>
	<path class="st0" d="M138.91,160.69c0,1.82,0.02,3.64-0.01,5.47c-0.01,0.9-0.38,1.68-1.39,1.69c-3.64,0.05-7.28,0.05-10.92,0.03
		c-0.98-0.01-1.48-0.67-1.49-1.6c-0.03-3.48-0.03-6.95-0.02-10.43c0-0.9,0.36-1.68,1.39-1.69c3.64-0.05,7.28-0.05,10.92-0.02
		c0.97,0.01,1.47,0.66,1.49,1.59c0.04,1.65,0.01,3.31,0.01,4.97C138.89,160.69,138.9,160.69,138.91,160.69z"/>
	<path class="st0" d="M173.87,154.04c7.27,0.11,6.47-1.03,6.43,6.23c-0.02,2.42,1.14,5.41-0.71,7.14c-1.62,1.51-4.45,0.54-6.73,0.53
		c-7.02-0.01-6.16,1-6.23-6.44c-0.01-1.33-0.02-2.66,0-3.99c0.07-3.34,0.13-3.39,3.26-3.46c0.33-0.01,0.66,0,1,0
		C171.87,154.04,172.87,154.04,173.87,154.04z"/>
	<path class="st0" d="M173.35,237.03c-1.49,0-2.98,0.04-4.47-0.01c-1.74-0.05-2.18-0.39-2.21-1.92c-0.05-3.31-0.05-6.62,0.01-9.93
		c0.03-1.48,0.57-1.94,2.22-1.96c3.14-0.04,6.29,0,9.43-0.01c1.18,0,1.92,0.57,1.93,1.74c0.05,3.47,0.04,6.95,0.01,10.42
		c-0.01,1.26-0.82,1.67-1.97,1.66C176.66,237.02,175.01,237.03,173.35,237.03z"/>
	<path class="st0" d="M90.48,236.97c-7.92-0.07-6.84,1.25-6.85-6.68c-0.01-8.29-1.02-7.06,7.07-7.07c7.48-0.01,6.53-1.06,6.6,6.55
		c0.02,1.98-0.04,3.97-0.11,5.95c-0.03,0.74-0.52,1.23-1.25,1.25C94.12,237.01,92.3,236.97,90.48,236.97z"/>
	<path class="st0" d="M90.87,167.95c-1.66,0-3.32,0.04-4.98-0.01c-1.73-0.05-2.21-0.42-2.23-1.94c-0.06-3.32-0.03-6.65-0.01-9.97
		c0.01-1.11,0.44-1.95,1.71-1.95c3.49-0.01,6.98-0.01,10.46,0.02c1.04,0.01,1.45,0.75,1.46,1.64c0.04,3.49,0.04,6.98,0.01,10.47
		c-0.01,1.21-0.74,1.75-1.92,1.74C93.86,167.94,92.36,167.95,90.87,167.95C90.87,167.95,90.87,167.95,90.87,167.95z"/>
	<path class="st0" d="M125.05,194.54c0.11-6.67-1.05-5.77,6.22-5.74c2.41,0.01,5.4-1.15,7.12,0.71c1.49,1.61,0.52,4.44,0.52,6.72
		c0,6.86,0.9,6.18-5.96,6.23c-1.82,0.01-3.65,0.04-5.47-0.02c-1.99-0.07-2.36-0.42-2.41-2.28
		C125.01,198.5,125.05,196.84,125.05,194.54z"/>
	<path class="st0" d="M97.21,195.61c0,1.83,0.04,3.66-0.02,5.49c-0.02,0.72-0.5,1.24-1.26,1.25c-3.66,0.02-7.31,0.02-10.97-0.02
		c-0.76-0.01-1.23-0.54-1.23-1.28c-0.03-3.66-0.03-7.31,0-10.97c0.01-0.77,0.55-1.21,1.28-1.22c3.66-0.03,7.32-0.03,10.97,0.01
		c0.75,0.01,1.21,0.51,1.23,1.27C97.24,191.95,97.22,193.78,97.21,195.61C97.22,195.61,97.21,195.61,97.21,195.61z"/>
	<path class="st0" d="M173.53,188.85c1.83,0,3.66-0.03,5.49,0.02c0.74,0.02,1.21,0.53,1.22,1.28c0.02,3.66,0.02,7.31-0.02,10.97
		c-0.01,0.72-0.52,1.23-1.28,1.23c-3.66,0.02-7.31,0.02-10.97-0.02c-0.76-0.01-1.21-0.56-1.22-1.3c-0.02-3.66-0.02-7.31,0.01-10.97
		c0.01-0.77,0.54-1.2,1.29-1.21C169.87,188.82,171.7,188.84,173.53,188.85C173.53,188.84,173.53,188.84,173.53,188.85z"/>
</g>
</svg>
