<?xml version="1.0" encoding="utf-8"?>
<!-- Generator: Adobe Illustrator 27.1.1, SVG Export Plug-In . SVG Version: 6.00 Build 0)  -->
<svg version="1.1" id="Layer_1" xmlns="http://www.w3.org/2000/svg" xmlns:xlink="http://www.w3.org/1999/xlink" x="0px" y="0px"
	 viewBox="0 0 248 343" style="enable-background:new 0 0 248 343;" xml:space="preserve">
<style type="text/css">
	.st0{fill:#233F94;enable-background:new    ;}
	.st1{enable-background:new    ;}
	.st2{fill:#233F94;}
	.st3{fill:#767CB9;}
	.st4{fill:#8A8FC4;}
	.st5{fill:#9599C8;}
	.st6{fill:#C0C3E1;}
	.st7{fill:#8287BF;}
	.st8{fill:#243F95;}
	.st9{fill:#ECC61C;}
	.st10{fill:#FCDA79;}
	.st11{fill:#ED2D24;}
	.st12{fill:#98AFB3;}
	.st13{fill:#BF2126;}
	.st14{fill:#256C91;}
	.st15{fill:#F3954E;}
	.st16{fill:#AFBECF;}
	.st17{fill:#E7753E;}
	.st18{fill:#F9B37A;}
	.st19{fill:#7A8C8F;}
	.st20{fill:#D8E6E7;}
	.st21{fill:#5561A8;}
	.st22{fill:#8287C0;}
</style>
<path class="st2" d="M111.29,236.57c-3.92,0-7.84,0-11.76,0c-0.72,0-1.44,0.02-2.17-0.01c-1.05-0.04-1.28-0.26-1.24-1.28
	c0.09-2.06,0.19-4.12,0.34-6.18c0.55-7.82,1.13-15.63,1.7-23.44c0.73-10.08,1.48-20.15,2.2-30.23c0.52-7.2,1-14.4,1.5-21.6
	c0.04-0.62,0.07-1.24,0.07-1.85c0-0.6-0.31-0.95-0.93-0.96c-1.24-0.02-2.48-0.01-3.71-0.04c-0.96-0.03-1.23-0.31-1.27-1.33
	c-0.04-1.13-0.04-2.27,0-3.4c0.04-1.13,0.28-1.33,1.54-1.37c0.41-0.02,0.82,0,1.24-0.01c3.47-0.02,3.21,0.36,3.22-3.08
	c0.01-6.08,0-12.17,0-18.25c0-0.72,0-1.44-0.04-2.16c-0.04-0.6-0.43-0.92-1-0.94c-1.24-0.05-2.47-0.03-3.71-0.09
	c-0.97-0.04-1.19-0.32-1.26-1.35c-0.01-0.21-0.01-0.41-0.01-0.62c0.07-4.57-0.64-4.05,3.83-4.01c1.55,0.02,2.73-0.42,3.9-1.44
	c5.04-4.41,10.13-8.78,15.27-13.09c1.05-0.88,1.48-1.81,1.45-3.17c-0.08-3.3-0.03-6.6-0.02-9.9c0-0.72,0.01-1.44,0.05-2.16
	c0.03-0.44,0.26-0.83,0.73-0.84c1.54-0.03,3.09-0.03,4.63,0.02c0.46,0.01,0.67,0.45,0.68,0.88c0.04,0.93,0.04,1.85,0.04,2.78
	c0,3.3,0.03,6.6-0.01,9.9c-0.01,0.91,0.31,1.55,0.99,2.13c5.42,4.61,10.83,9.23,16.21,13.88c0.84,0.73,1.73,1.07,2.81,0.98
	c0.1-0.01,0.21-0.01,0.31,0c1.29,0.16,2.65-0.39,3.87,0.42c0.35,1.63,0.2,3.27,0.1,4.9c-0.03,0.43-0.45,0.65-0.9,0.67
	c-1.34,0.03-2.68,0.03-4.02,0.09c-0.55,0.03-0.98,0.32-1.01,0.95c-0.03,0.62-0.06,1.24-0.06,1.85c-0.01,6.39-0.01,12.79-0.01,19.18
	c0,0.51,0.01,1.03,0.06,1.54c0.06,0.6,0.44,0.89,1.03,0.9c1.24,0.02,2.48,0,3.71,0.04c0.99,0.03,1.23,0.28,1.26,1.32
	c0.03,1.24,0.02,2.47-0.01,3.71c-0.02,0.75-0.45,1.1-1.19,1.08c-0.31-0.01-0.62-0.02-0.93,0.01c-1.2,0.14-2.72-0.57-3.53,0.43
	c-0.75,0.93-0.17,2.39-0.08,3.6c0.51,7.61,1.09,15.22,1.64,22.83c0.25,3.39,0.49,6.79,0.73,10.18c0.91,13.16,1.83,26.33,2.74,39.49
	c0.19,2.67,0.37,5.35,0.54,8.02c0.04,0.6-0.26,0.99-0.88,0.99c-3.4,0.01-6.8,0.01-10.21,0c-0.62,0-0.89-0.41-0.9-0.99
	c-0.02-0.82-0.03-1.65-0.03-2.47c0-5.78,0-11.55,0-17.33c0-0.72,0.02-1.44-0.01-2.17c-0.05-1.15-0.27-1.37-1.52-1.39
	c-1.75-0.03-3.51-0.01-5.26-0.01c-1.44,0-2.89,0.01-4.33,0.01c-0.76,0-1.1,0.39-1.1,1.15c0,2.68-0.01,5.36-0.01,8.04
	c0,4.54,0.01,9.08-0.01,13.61c-0.01,1.41-0.17,1.57-1.63,1.58C120.37,236.58,115.83,236.56,111.29,236.57
	C111.29,236.56,111.29,236.56,111.29,236.57z M108.15,181.25C108.16,181.25,108.16,181.25,108.15,181.25c0,1.75,0,3.49,0,5.24
	c0,0.75,0.41,1.14,1.13,1.14c3.39,0.01,6.78,0,10.17-0.02c0.59,0,0.93-0.37,0.93-0.97c0.01-3.39,0.01-6.78,0-10.17
	c0-0.59-0.36-0.97-0.95-0.98c-3.39-0.03-6.78-0.04-10.17-0.03c-0.71,0-1.12,0.41-1.12,1.17
	C108.16,178.16,108.15,179.71,108.15,181.25z M114.26,132.96c0,0,0.01,0,0.01,0c0-3.29,0-6.57,0-9.86c0-0.62,0-1.23-0.04-1.85
	c-0.03-0.45-0.32-0.8-0.76-0.81c-1.43-0.05-2.87-0.07-4.31-0.04c-0.56,0.01-0.97,0.34-0.99,0.95c-0.03,0.72-0.03,1.44-0.03,2.16
	c0,5.55-0.04,11.09,0.01,16.64c0.06,5.7-0.92,4.61,4.97,4.71c0.75,0.01,1.14-0.35,1.14-1.1
	C114.26,140.15,114.26,136.55,114.26,132.96z M126.54,132.63C126.54,132.63,126.54,132.63,126.54,132.63c0-3.49,0.02-6.99,0-10.48
	c-0.01-1.63-0.15-1.76-1.73-1.79c-1.13-0.02-2.26,0.02-3.39,0.06c-0.58,0.02-0.96,0.33-0.98,0.94c-0.03,0.82-0.03,1.64-0.03,2.46
	c0,5.55-0.04,11.09,0.01,16.64c0.05,5.25-0.85,4.3,4.66,4.37c1.29,0.02,1.44-0.16,1.45-1.42
	C126.55,139.82,126.54,136.23,126.54,132.63z M132.68,132.58C132.67,132.58,132.67,132.58,132.68,132.58
	c-0.01,3.5-0.02,7.01,0,10.51c0.01,1.72,0.04,1.73,1.73,1.76c1.13,0.02,2.27,0.02,3.4-0.03c0.59-0.02,0.92-0.4,0.94-1
	c0.02-0.51,0.03-1.03,0.03-1.54c0-6.39,0-12.78,0-19.17c0-0.52-0.01-1.03-0.03-1.55c-0.03-0.74-0.44-1.14-1.16-1.16
	c-1.24-0.03-2.47-0.04-3.71,0c-0.99,0.03-1.2,0.25-1.21,1.35C132.66,125.36,132.68,128.97,132.68,132.58z"/>
<path class="st2" d="M123.27,254.93c-18.14,0-36.27,0-54.41,0c-3.9,0-3.45,0.37-3.48-3.46c0-0.41-0.01-0.82,0.01-1.24
	c0.05-1.22,0.19-1.39,1.5-1.4c6.18-0.02,12.37,0.02,18.55-0.04c1.4-0.01,3.12,0.66,4.12-0.44c0.87-0.95,0.24-2.57,0.34-3.88
	c0.02-0.31,0.01-0.62,0.06-0.92c0.07-0.44,0.33-0.77,0.78-0.81c0.61-0.06,1.23-0.05,1.85-0.05c20.61,0,41.22,0,61.83,0
	c0.31,0,0.62-0.01,0.93,0c1.47,0.05,1.63,0.19,1.68,1.54c0.04,1.23,0.03,2.47,0.06,3.71c0.01,0.47,0.3,0.77,0.76,0.81
	c0.82,0.06,1.64,0.08,2.47,0.08c5.98,0.01,11.95,0,17.93,0.01c0.82,0,1.65,0.02,2.47,0.07c0.46,0.03,0.73,0.33,0.78,0.79
	c0.03,0.31,0.06,0.62,0.06,0.92c-0.07,5.01,0.69,4.31-4.17,4.31C159.34,254.95,141.31,254.93,123.27,254.93z"/>
<path class="st2" d="M211.97,115.91c-0.07-1.04-0.55-1.51-1.6-1.36c-1.51,0.22-3.05,0.42-4.49,0.9c-1.05,0.35-2.33-0.14-3.17,0.88
	c-2.78,0.19-5.52,0.51-8.08,1.72c-2.94,0.12-5.82,0.65-8.64,1.48c0,0,0,0,0,0c-2.25,0.59-4.66,0.43-6.79,1.54
	c-2.31,0.31-4.67,0.35-6.85,1.36c-2.52,0.17-4.98,0.63-7.39,1.4c-2.3,0.36-4.63,0.52-6.84,1.35c-2,0.36-4,0.74-6,1.08
	c-0.84,0.14-1.24,0.6-1.24,1.44c0,3.26,0.01,6.53,0,9.79c0,0.85,0.44,1.35,1.22,1.49c2,0.37,4.01,0.69,6.02,1.02
	c2.17,0.89,4.49,1.05,6.77,1.42c2.45,0.71,4.95,1.21,7.49,1.47c2.22,0.73,4.5,1.1,6.82,1.32c2.18,0.83,4.46,1.18,6.77,1.35
	c2.61,0.97,5.36,1.23,8.07,1.72c0.65,0.31,1.3,0.54,2.03,0.65c2.21,0.35,4.41,0.78,6.61,1.19c2.4,0.5,4.79,0.99,7.19,1.49
	c1.94,0.4,2.05,0.31,2.11-1.72c0.01-0.41,0-0.82,0-1.23c0-9.96,0-19.93,0-29.89C212,117.14,212.01,116.53,211.97,115.91z"/>
<g>
	<path class="st2" d="M70.3,121.46c-2.06-0.42-4.12-0.83-6.18-1.25c-2.06-0.42-4.12-0.84-6.19-1.26c-2.43-0.74-4.93-1.11-7.45-1.34
		c-0.15-0.13-0.29-0.36-0.46-0.39c-2.1-0.37-4.17-1.03-6.34-0.91c-0.28-0.32-0.62-0.49-1.05-0.56c-1.4-0.25-2.81-0.51-4.2-0.81
		c-3.33-0.71-3.41-0.66-3.41,2.82c-0.01,10.05,0,20.11,0,30.16c0,0.62-0.01,1.23,0.03,1.85c0.05,0.83,0.34,1.04,1.19,0.92
		c0.61-0.09,1.21-0.19,1.81-0.28c1.9-0.31,3.84-0.48,5.64-1.26c2.28-0.42,4.6-0.57,6.82-1.31c1.17-0.2,2.39-0.25,3.48-0.65
		c1.3-0.47,2.79-0.16,3.95-1.07c2.14-0.04,4.2-0.44,6.19-1.23c2.33-0.07,4.59-0.54,6.78-1.31c1.72-0.12,3.39-0.44,5.02-0.98
		c2.09-0.25,4.19-0.47,6.19-1.2c-0.02-5.86-0.04-11.71-0.06-17.57c-2.01-0.67-4.08-1.03-6.19-1.23
		C74.05,121.98,72.17,121.75,70.3,121.46z"/>
	<path class="st2" d="M95.82,127.69c0-0.82-0.35-1.32-1.22-1.47c-2.12-0.35-4.24-0.75-6.36-1.12c-1.98-0.83-4.11-0.97-6.2-1.26
		c0.02,5.86,0.04,11.71,0.06,17.57c1.85-0.27,3.73-0.41,5.5-1.11c2.32-0.41,4.65-0.8,6.97-1.24c0.78-0.15,1.25-0.64,1.25-1.5
		C95.82,134.26,95.82,130.97,95.82,127.69z"/>
</g>
</svg>
