<svg xmlns="http://www.w3.org/2000/svg" xmlns:xlink="http://www.w3.org/1999/xlink" width="1080" zoomAndPan="magnify" viewBox="0 0 810 1439.999935" height="1920" preserveAspectRatio="xMidYMid meet" version="1.0"><path fill="#0032a0" d="M 810.738281 1093.058594 C 810.738281 1038.339844 761.332031 989.113281 671.613281 954.453125 C 670.792969 954.136719 669.945312 953.902344 669.078125 953.753906 C 668.210938 953.601562 667.335938 953.539062 666.453125 953.5625 C 665.574219 953.582031 664.703125 953.691406 663.84375 953.882812 C 662.984375 954.078125 662.148438 954.351562 661.34375 954.710938 C 660.539062 955.066406 659.773438 955.5 659.054688 956.007812 C 658.335938 956.515625 657.667969 957.089844 657.0625 957.726562 C 656.453125 958.363281 655.914062 959.054688 655.441406 959.800781 C 654.972656 960.546875 654.574219 961.328125 654.257812 962.152344 C 653.941406 962.972656 653.707031 963.820312 653.554688 964.6875 C 653.402344 965.554688 653.339844 966.429688 653.359375 967.3125 C 653.378906 968.191406 653.484375 969.0625 653.679688 969.921875 C 653.871094 970.785156 654.144531 971.617188 654.5 972.421875 C 654.855469 973.230469 655.289062 973.992188 655.792969 974.714844 C 656.300781 975.4375 656.871094 976.101562 657.511719 976.710938 C 658.148438 977.320312 658.839844 977.859375 659.582031 978.332031 C 660.324219 978.804688 661.109375 979.203125 661.929688 979.519531 C 739.421875 1009.453125 783.875 1050.832031 783.875 1093.058594 C 783.875 1177.695312 610.589844 1249.140625 405.429688 1249.140625 C 200.550781 1249.140625 27.46875 1177.667969 27.46875 1093.058594 C 27.46875 1050.820312 71.917969 1009.414062 149.414062 979.46875 C 150.261719 979.167969 151.070312 978.789062 151.839844 978.328125 C 152.613281 977.867188 153.328125 977.332031 153.992188 976.726562 C 154.65625 976.121094 155.253906 975.457031 155.785156 974.730469 C 156.316406 974.003906 156.769531 973.234375 157.144531 972.417969 C 157.519531 971.601562 157.808594 970.757812 158.015625 969.882812 C 158.222656 969.007812 158.339844 968.121094 158.367188 967.222656 C 158.398438 966.324219 158.335938 965.433594 158.183594 964.546875 C 158.035156 963.660156 157.796875 962.800781 157.472656 961.960938 C 157.148438 961.121094 156.746094 960.324219 156.261719 959.566406 C 155.777344 958.808594 155.226562 958.109375 154.601562 957.460938 C 153.976562 956.816406 153.292969 956.238281 152.554688 955.730469 C 151.8125 955.21875 151.03125 954.789062 150.203125 954.4375 C 149.375 954.085938 148.523438 953.820312 147.644531 953.640625 C 146.761719 953.457031 145.875 953.367188 144.976562 953.363281 C 144.078125 953.363281 143.1875 953.449219 142.304688 953.625 C 141.425781 953.800781 140.570312 954.0625 139.742188 954.410156 C 50.011719 989.074219 0.605469 1038.3125 0.605469 1093.058594 C 0.605469 1195.660156 178.429688 1276.011719 405.429688 1276.011719 C 632.6875 1276.011719 810.738281 1195.660156 810.738281 1093.058594 Z M 810.738281 1093.058594 " fill-opacity="1" fill-rule="nonzero"/><path fill="#0032a0" d="M 405.496094 164.949219 C 400.527344 164.960938 395.5625 165.089844 390.601562 165.34375 C 385.640625 165.59375 380.6875 165.96875 375.746094 166.460938 C 370.800781 166.957031 365.871094 167.574219 360.960938 168.308594 C 356.046875 169.046875 351.152344 169.902344 346.28125 170.878906 C 341.410156 171.855469 336.566406 172.949219 331.75 174.164062 C 326.933594 175.378906 322.148438 176.707031 317.394531 178.15625 C 312.640625 179.605469 307.929688 181.171875 303.253906 182.851562 C 298.578125 184.53125 293.945312 186.324219 289.359375 188.230469 C 284.769531 190.136719 280.230469 192.152344 275.742188 194.285156 C 271.253906 196.414062 266.820312 198.652344 262.441406 200.996094 C 258.0625 203.34375 253.742188 205.796875 249.484375 208.355469 C 245.226562 210.914062 241.03125 213.574219 236.902344 216.339844 C 232.773438 219.101562 228.714844 221.964844 224.726562 224.929688 C 220.738281 227.890625 216.828125 230.953125 212.988281 234.105469 C 209.152344 237.261719 205.390625 240.507812 201.714844 243.847656 C 198.035156 247.1875 194.4375 250.613281 190.929688 254.128906 C 187.417969 257.644531 183.996094 261.246094 180.660156 264.925781 C 177.324219 268.609375 174.082031 272.375 170.933594 276.214844 C 167.78125 280.058594 164.730469 283.976562 161.769531 287.96875 C 158.8125 291.960938 155.953125 296.023438 153.195312 300.152344 C 150.4375 304.285156 147.78125 308.484375 145.226562 312.746094 C 142.675781 317.007812 140.226562 321.332031 137.886719 325.714844 C 135.542969 330.09375 133.3125 334.53125 131.1875 339.023438 C 129.0625 343.515625 127.050781 348.058594 125.148438 352.648438 C 123.25 357.238281 121.460938 361.875 119.789062 366.550781 C 118.113281 371.230469 116.554688 375.945312 115.113281 380.699219 C 113.667969 385.457031 112.34375 390.242188 111.136719 395.0625 C 109.925781 399.882812 108.839844 404.726562 107.867188 409.601562 C 106.898438 414.472656 106.046875 419.367188 105.316406 424.28125 C 104.585938 429.195312 103.976562 434.125 103.484375 439.070312 C 102.996094 444.015625 102.628906 448.96875 102.382812 453.933594 C 102.136719 458.894531 102.011719 463.859375 102.007812 468.828125 C 102.007812 586.570312 253.867188 834.75 344.390625 972.214844 C 359.476562 995.144531 373.015625 1015.203125 384.257812 1031.675781 C 387.886719 1036.980469 391.351562 1042.03125 394.441406 1046.453125 C 398.6875 1052.578125 402.394531 1057.914062 405.496094 1062.359375 C 417.9375 1044.585938 440.007812 1012.652344 466.601562 972.160156 C 620.878906 738.746094 709.335938 555.28125 709.335938 468.761719 C 709.328125 463.792969 709.199219 458.824219 708.949219 453.859375 C 708.699219 448.894531 708.328125 443.9375 707.832031 438.992188 C 707.339844 434.046875 706.726562 429.113281 705.992188 424.199219 C 705.257812 419.28125 704.402344 414.386719 703.425781 409.511719 C 702.453125 404.636719 701.359375 399.789062 700.144531 394.96875 C 698.933594 390.148438 697.605469 385.359375 696.15625 380.605469 C 694.710938 375.847656 693.148438 371.132812 691.46875 366.453125 C 689.792969 361.773438 688 357.140625 686.09375 352.546875 C 684.1875 347.957031 682.171875 343.414062 680.042969 338.921875 C 677.914062 334.429688 675.679688 329.992188 673.332031 325.609375 C 670.988281 321.226562 668.535156 316.90625 665.980469 312.644531 C 663.421875 308.378906 660.761719 304.183594 658 300.050781 C 655.234375 295.917969 652.371094 291.859375 649.410156 287.867188 C 646.449219 283.875 643.390625 279.957031 640.234375 276.117188 C 637.082031 272.273438 633.835938 268.511719 630.496094 264.828125 C 627.160156 261.148438 623.730469 257.546875 620.214844 254.035156 C 616.703125 250.519531 613.101562 247.09375 609.421875 243.753906 C 605.738281 240.417969 601.976562 237.171875 598.132812 234.015625 C 594.292969 230.863281 590.375 227.804688 586.382812 224.84375 C 582.390625 221.882812 578.328125 219.019531 574.195312 216.257812 C 570.066406 213.496094 565.867188 210.835938 561.605469 208.277344 C 557.34375 205.722656 553.019531 203.269531 548.636719 200.925781 C 544.253906 198.582031 539.816406 196.34375 535.324219 194.21875 C 530.832031 192.089844 526.292969 190.074219 521.699219 188.167969 C 517.109375 186.265625 512.476562 184.472656 507.796875 182.796875 C 503.117188 181.117188 498.402344 179.558594 493.644531 178.109375 C 488.890625 176.664062 484.101562 175.335938 479.28125 174.125 C 474.460938 172.914062 469.613281 171.820312 464.742188 170.847656 C 459.867188 169.871094 454.972656 169.019531 450.054688 168.285156 C 445.140625 167.550781 440.207031 166.9375 435.261719 166.445312 C 430.316406 165.953125 425.363281 165.582031 420.398438 165.332031 C 415.433594 165.085938 410.46875 164.957031 405.496094 164.949219 Z M 405.632812 637.851562 C 402.863281 637.851562 400.097656 637.785156 397.332031 637.648438 C 394.570312 637.511719 391.808594 637.308594 389.054688 637.039062 C 386.300781 636.765625 383.554688 636.425781 380.816406 636.019531 C 378.078125 635.613281 375.351562 635.140625 372.636719 634.601562 C 369.921875 634.0625 367.222656 633.457031 364.539062 632.785156 C 361.855469 632.109375 359.1875 631.371094 356.539062 630.570312 C 353.890625 629.765625 351.261719 628.898438 348.65625 627.964844 C 346.050781 627.03125 343.46875 626.035156 340.914062 624.976562 C 338.355469 623.917969 335.824219 622.796875 333.324219 621.613281 C 330.820312 620.429688 328.351562 619.183594 325.910156 617.878906 C 323.46875 616.574219 321.0625 615.210938 318.6875 613.789062 C 316.3125 612.367188 313.976562 610.886719 311.675781 609.347656 C 309.371094 607.808594 307.109375 606.214844 304.886719 604.566406 C 302.664062 602.917969 300.484375 601.214844 298.34375 599.460938 C 296.203125 597.703125 294.109375 595.894531 292.058594 594.035156 C 290.007812 592.179688 288.003906 590.269531 286.046875 588.3125 C 284.089844 586.355469 282.179688 584.351562 280.324219 582.300781 C 278.464844 580.25 276.65625 578.152344 274.902344 576.011719 C 273.144531 573.875 271.441406 571.691406 269.792969 569.46875 C 268.144531 567.246094 266.550781 564.984375 265.015625 562.679688 C 263.476562 560.378906 261.996094 558.042969 260.574219 555.667969 C 259.148438 553.292969 257.785156 550.882812 256.480469 548.441406 C 255.175781 546.003906 253.933594 543.53125 252.75 541.027344 C 251.566406 538.523438 250.445312 535.996094 249.386719 533.4375 C 248.328125 530.878906 247.332031 528.296875 246.398438 525.691406 C 245.464844 523.085938 244.597656 520.457031 243.792969 517.808594 C 242.992188 515.160156 242.253906 512.492188 241.582031 509.808594 C 240.90625 507.121094 240.300781 504.421875 239.761719 501.707031 C 239.222656 498.992188 238.75 496.265625 238.34375 493.527344 C 237.9375 490.789062 237.597656 488.042969 237.328125 485.289062 C 237.054688 482.535156 236.851562 479.773438 236.714844 477.007812 C 236.578125 474.242188 236.511719 471.476562 236.511719 468.707031 C 236.511719 465.941406 236.578125 463.175781 236.714844 460.410156 C 236.851562 457.644531 237.054688 454.886719 237.324219 452.128906 C 237.597656 449.375 237.9375 446.628906 238.339844 443.890625 C 238.746094 441.152344 239.222656 438.425781 239.761719 435.710938 C 240.300781 432.996094 240.90625 430.296875 241.578125 427.609375 C 242.25 424.925781 242.988281 422.257812 243.792969 419.609375 C 244.597656 416.960938 245.464844 414.332031 246.398438 411.726562 C 247.328125 409.121094 248.324219 406.539062 249.382812 403.980469 C 250.441406 401.425781 251.5625 398.894531 252.746094 396.390625 C 253.929688 393.890625 255.175781 391.417969 256.480469 388.976562 C 257.785156 386.535156 259.148438 384.128906 260.570312 381.753906 C 261.992188 379.378906 263.472656 377.039062 265.011719 374.738281 C 266.550781 372.4375 268.144531 370.175781 269.792969 367.953125 C 271.441406 365.726562 273.144531 363.546875 274.898438 361.40625 C 276.65625 359.265625 278.460938 357.171875 280.320312 355.121094 C 282.179688 353.070312 284.085938 351.066406 286.042969 349.109375 C 288 347.148438 290.003906 345.242188 292.054688 343.382812 C 294.105469 341.523438 296.203125 339.714844 298.339844 337.960938 C 300.480469 336.203125 302.664062 334.5 304.886719 332.851562 C 307.109375 331.203125 309.371094 329.609375 311.671875 328.074219 C 313.972656 326.535156 316.3125 325.054688 318.683594 323.628906 C 321.058594 322.207031 323.464844 320.84375 325.90625 319.539062 C 328.347656 318.234375 330.820312 316.988281 333.324219 315.804688 C 335.824219 314.621094 338.355469 313.5 340.910156 312.441406 C 343.46875 311.382812 346.050781 310.386719 348.65625 309.453125 C 351.261719 308.519531 353.890625 307.652344 356.539062 306.851562 C 359.1875 306.046875 361.851562 305.308594 364.539062 304.636719 C 367.222656 303.964844 369.921875 303.355469 372.636719 302.816406 C 375.351562 302.277344 378.078125 301.804688 380.816406 301.398438 C 383.554688 300.992188 386.300781 300.652344 389.054688 300.382812 C 391.808594 300.109375 394.570312 299.90625 397.332031 299.769531 C 400.097656 299.632812 402.863281 299.566406 405.632812 299.566406 C 408.398438 299.566406 411.164062 299.632812 413.929688 299.769531 C 416.695312 299.90625 419.453125 300.109375 422.207031 300.378906 C 424.960938 300.652344 427.707031 300.992188 430.445312 301.398438 C 433.183594 301.804688 435.910156 302.277344 438.625 302.816406 C 441.339844 303.355469 444.039062 303.960938 446.722656 304.636719 C 449.410156 305.308594 452.074219 306.046875 454.722656 306.847656 C 457.371094 307.652344 460 308.519531 462.605469 309.453125 C 465.210938 310.386719 467.792969 311.382812 470.351562 312.441406 C 472.90625 313.5 475.4375 314.621094 477.9375 315.804688 C 480.441406 316.988281 482.914062 318.234375 485.351562 319.539062 C 487.792969 320.84375 490.203125 322.207031 492.574219 323.632812 C 494.949219 325.054688 497.289062 326.535156 499.589844 328.074219 C 501.890625 329.609375 504.152344 331.203125 506.375 332.855469 C 508.597656 334.503906 510.78125 336.207031 512.917969 337.960938 C 515.058594 339.71875 517.152344 341.527344 519.203125 343.382812 C 521.253906 345.242188 523.257812 347.152344 525.214844 349.109375 C 527.171875 351.066406 529.082031 353.070312 530.941406 355.121094 C 532.800781 357.175781 534.605469 359.269531 536.363281 361.410156 C 538.117188 363.550781 539.820312 365.730469 541.46875 367.953125 C 543.117188 370.179688 544.710938 372.441406 546.25 374.742188 C 547.785156 377.042969 549.265625 379.382812 550.691406 381.757812 C 552.113281 384.132812 553.476562 386.539062 554.78125 388.980469 C 556.085938 391.421875 557.328125 393.894531 558.511719 396.398438 C 559.695312 398.898438 560.816406 401.429688 561.878906 403.988281 C 562.9375 406.546875 563.933594 409.128906 564.863281 411.734375 C 565.796875 414.339844 566.664062 416.96875 567.46875 419.617188 C 568.273438 422.265625 569.011719 424.933594 569.683594 427.621094 C 570.355469 430.304688 570.960938 433.003906 571.5 435.722656 C 572.042969 438.4375 572.515625 441.164062 572.921875 443.902344 C 573.328125 446.640625 573.664062 449.386719 573.9375 452.140625 C 574.207031 454.898438 574.410156 457.65625 574.546875 460.421875 C 574.683594 463.1875 574.75 465.953125 574.75 468.722656 C 574.75 471.488281 574.679688 474.253906 574.542969 477.019531 C 574.40625 479.785156 574.199219 482.542969 573.925781 485.296875 C 573.652344 488.050781 573.3125 490.796875 572.90625 493.53125 C 572.5 496.269531 572.027344 498.996094 571.484375 501.710938 C 570.945312 504.421875 570.335938 507.121094 569.664062 509.808594 C 568.988281 512.492188 568.25 515.15625 567.445312 517.804688 C 566.644531 520.453125 565.773438 523.082031 564.839844 525.683594 C 563.910156 528.289062 562.914062 530.871094 561.851562 533.429688 C 560.792969 535.984375 559.671875 538.515625 558.488281 541.015625 C 557.304688 543.515625 556.0625 545.988281 554.757812 548.429688 C 553.453125 550.867188 552.089844 553.277344 550.664062 555.648438 C 549.242188 558.023438 547.761719 560.359375 546.226562 562.660156 C 544.6875 564.960938 543.09375 567.222656 541.445312 569.445312 C 539.800781 571.671875 538.097656 573.851562 536.34375 575.992188 C 534.585938 578.128906 532.78125 580.226562 530.921875 582.277344 C 529.066406 584.328125 527.15625 586.332031 525.203125 588.289062 C 523.246094 590.246094 521.242188 592.152344 519.191406 594.011719 C 517.140625 595.871094 515.046875 597.679688 512.910156 599.433594 C 510.773438 601.191406 508.589844 602.894531 506.371094 604.542969 C 504.148438 606.191406 501.886719 607.785156 499.585938 609.324219 C 497.285156 610.863281 494.949219 612.34375 492.578125 613.769531 C 490.203125 615.191406 487.796875 616.558594 485.359375 617.863281 C 482.917969 619.167969 480.449219 620.414062 477.949219 621.597656 C 475.449219 622.78125 472.917969 623.90625 470.363281 624.964844 C 467.808594 626.027344 465.226562 627.023438 462.625 627.957031 C 460.019531 628.890625 457.390625 629.761719 454.746094 630.566406 C 452.097656 631.371094 449.433594 632.113281 446.75 632.785156 C 444.066406 633.460938 441.367188 634.070312 438.652344 634.613281 C 435.941406 635.152344 433.214844 635.628906 430.476562 636.039062 C 427.742188 636.445312 424.996094 636.789062 422.242188 637.0625 C 419.488281 637.335938 416.730469 637.539062 413.96875 637.679688 C 411.203125 637.816406 408.4375 637.890625 405.671875 637.890625 Z M 405.632812 637.851562 " fill-opacity="1" fill-rule="nonzero"/><path fill="#0032a0" d="M 405.496094 1182.492188 C 562.042969 1182.492188 671.132812 1131.441406 671.132812 1085.761719 C 671.132812 1045.351562 591.460938 1006.40625 484.523438 993.898438 L 481.472656 998.503906 L 481.191406 998.921875 C 478.84375 1002.503906 476.53125 1005.988281 474.246094 1009.375 L 473.628906 1010.285156 C 471.574219 1013.390625 469.597656 1016.398438 467.558594 1019.355469 L 466.121094 1021.503906 C 464.441406 1024.003906 462.800781 1026.449219 461.175781 1028.839844 L 459.253906 1031.6875 L 454.847656 1038.175781 L 453.035156 1040.863281 L 448.65625 1047.207031 L 447.3125 1049.234375 L 443.082031 1055.402344 L 441.886719 1057.148438 L 437.777344 1063.097656 L 436.984375 1064.242188 C 424.25 1082.660156 416.566406 1093.378906 416.417969 1093.59375 C 416.109375 1094.027344 415.773438 1094.4375 415.414062 1094.832031 C 415.054688 1095.222656 414.675781 1095.59375 414.273438 1095.941406 C 413.871094 1096.289062 413.449219 1096.609375 413.007812 1096.90625 C 412.566406 1097.203125 412.109375 1097.472656 411.636719 1097.714844 C 411.164062 1097.957031 410.679688 1098.171875 410.179688 1098.355469 C 409.683594 1098.542969 409.175781 1098.699219 408.660156 1098.820312 C 408.140625 1098.945312 407.621094 1099.039062 407.09375 1099.105469 C 406.566406 1099.167969 406.035156 1099.199219 405.503906 1099.199219 C 404.972656 1099.199219 404.441406 1099.167969 403.914062 1099.105469 C 403.386719 1099.039062 402.863281 1098.945312 402.347656 1098.820312 C 401.832031 1098.699219 401.324219 1098.542969 400.828125 1098.355469 C 400.328125 1098.171875 399.84375 1097.957031 399.371094 1097.714844 C 398.898438 1097.472656 398.441406 1097.203125 398 1096.90625 C 397.558594 1096.609375 397.136719 1096.285156 396.734375 1095.941406 C 396.332031 1095.59375 395.953125 1095.222656 395.59375 1094.832031 C 395.234375 1094.4375 394.898438 1094.027344 394.589844 1093.59375 C 394.457031 1093.40625 388.558594 1085.171875 378.5625 1070.757812 L 377.796875 1069.65625 L 374.277344 1064.589844 L 372.519531 1062.050781 L 369.5625 1057.75 L 366.878906 1053.894531 L 364.3125 1050.148438 L 361.035156 1045.351562 L 358.804688 1042.085938 L 354.773438 1036.109375 L 352.867188 1033.285156 C 351.433594 1031.183594 349.976562 1029.023438 348.488281 1026.8125 L 346.367188 1023.667969 C 344.847656 1021.410156 343.304688 1019.125 341.730469 1016.777344 L 339.582031 1013.550781 L 334.90625 1006.550781 L 332.222656 1002.523438 C 330.769531 1000.34375 329.304688 998.136719 327.828125 995.898438 L 326.484375 993.894531 C 219.734375 1006.429688 140.210938 1045.363281 140.210938 1085.761719 C 140.210938 1131.496094 249.164062 1182.492188 405.496094 1182.492188 Z M 405.496094 1182.492188 " fill-opacity="1" fill-rule="nonzero"/></svg>