<?xml version="1.0" encoding="utf-8"?>
<!-- Generator: Adobe Illustrator 27.1.1, SVG Export Plug-In . SVG Version: 6.00 Build 0)  -->
<svg version="1.1" id="Layer_1" xmlns="http://www.w3.org/2000/svg" xmlns:xlink="http://www.w3.org/1999/xlink" x="0px" y="0px"
	 viewBox="0 0 248 343" style="enable-background:new 0 0 248 343;" xml:space="preserve">
<style type="text/css">
	.st0{fill:#233F94;enable-background:new    ;}
	.st1{enable-background:new    ;}
	.st2{fill:#233F94;}
	.st3{fill:#767CB9;}
	.st4{fill:#8A8FC4;}
	.st5{fill:#9599C8;}
	.st6{fill:#C0C3E1;}
	.st7{fill:#8287BF;}
	.st8{fill:#243F95;}
	.st9{fill:#ECC61C;}
	.st10{fill:#FCDA79;}
	.st11{fill:#ED2D24;}
	.st12{fill:#98AFB3;}
	.st13{fill:#BF2126;}
	.st14{fill:#256C91;}
	.st15{fill:#F3954E;}
	.st16{fill:#AFBECF;}
	.st17{fill:#E7753E;}
	.st18{fill:#F9B37A;}
	.st19{fill:#7A8C8F;}
	.st20{fill:#D8E6E7;}
	.st21{fill:#5561A8;}
	.st22{fill:#8287C0;}
</style>
<g class="st1">
	<path class="st2" d="M106.6,96.74c0-0.65,0.03-1.3,0-1.94c-0.41-7.72,5.46-16.26,15.32-17.24c10.02-0.99,17.23,6.32,18.45,13.86
		c0.24,1.48,0.5,2.94,0.26,4.43c-0.13,0.83,0.31,1.19,0.97,1.43c0.52,0.19,1.06,0.34,1.59,0.52c20.5,7.15,35.56,24.8,39.35,46.16
		c0.7,3.95,0.86,7.95,0.86,11.95c0,16.1,0,32.19,0,48.29c0,0.56,0.06,1.12-0.01,1.67c-0.15,1.24,0.37,2.07,1.32,2.85
		c4.97,4.07,9.88,8.19,14.82,12.29c2.43,2.02,4.84,4.07,7.31,6.05c1.49,1.19,2.29,2.62,2.16,4.57c-0.08,1.2,0.03,2.42-0.03,3.63
		c-0.12,2.41-1.63,3.94-4.04,4.12c-0.74,0.06-1.49,0.03-2.23,0.03c-52.75,0-105.5,0-158.25,0c-0.74,0-1.49,0.03-2.23-0.03
		c-2.15-0.18-3.74-1.55-3.93-3.65c-0.17-1.75-0.11-3.53-0.02-5.3c0.06-1.15,0.67-2.11,1.57-2.85c1-0.83,2-1.67,3-2.5
		c6.37-5.29,12.7-10.62,19.13-15.84c1.36-1.1,1.9-2.21,1.9-3.98c-0.07-17.12-0.08-34.24-0.03-51.36
		c0.04-12.25,3.57-23.46,10.56-33.52c7.5-10.81,17.55-18.33,29.96-22.69C105.1,97.43,105.96,97.34,106.6,96.74z M125.82,94.61
		c1.09,0.09,3.12,0.27,5.16,0.43c0.7,0.06,1.07-0.25,1.07-0.9c0.03-4.3-3.75-8.07-8.23-8.2c-4.5-0.13-8.59,3.64-8.72,8.03
		c-0.03,0.88,0.26,1.17,1.15,1.05C119.11,94.63,121.99,94.55,125.82,94.61z"/>
	<path class="st2" d="M123.87,265.11c-9.22-0.43-16.13-4.25-20.72-12.03c-0.42-0.72-0.78-1.49-1.06-2.27
		c-0.38-1.05,0.12-2.04,1.15-2.5c0.88-0.4,1.81-0.37,2.74-0.37c5.21-0.02,10.42-0.05,15.63-0.07c6.51-0.03,13.03-0.06,19.54-0.08
		c0.74,0,1.5-0.05,2.23,0.04c1.47,0.18,2.28,1.38,1.86,2.82c-0.2,0.71-0.55,1.38-0.91,2.03
		C139.77,260.71,132.76,264.69,123.87,265.11z"/>
</g>
</svg>
