<svg xmlns="http://www.w3.org/2000/svg" xmlns:xlink="http://www.w3.org/1999/xlink" width="1080" zoomAndPan="magnify" viewBox="0 0 810 1439.999935" height="1920" preserveAspectRatio="xMidYMid meet" version="1.0"><defs><clipPath id="274c3c4b19"><path d="M 302 1083 L 509 1083 L 509 1165.5 L 302 1165.5 Z M 302 1083 " clip-rule="nonzero"/></clipPath><clipPath id="364aa519d4"><path d="M 0 274.5 L 810 274.5 L 810 1044 L 0 1044 Z M 0 274.5 " clip-rule="nonzero"/></clipPath></defs><g clip-path="url(#274c3c4b19)"><path fill="#0032a0" d="M 506.8125 1087.9375 C 504.828125 1085.050781 500.863281 1083.066406 498.335938 1083.425781 L 312.203125 1084.507812 C 312.203125 1084.507812 305.53125 1086.3125 303.726562 1089.199219 C 301.921875 1092.085938 301.5625 1095.691406 303.007812 1098.757812 C 320.679688 1139.339844 360.902344 1165.492188 405.089844 1165.492188 C 450 1165.492188 490.21875 1138.796875 507.714844 1097.496094 C 508.976562 1094.25 508.617188 1090.640625 506.8125 1087.9375 Z M 506.8125 1087.9375 " fill-opacity="1" fill-rule="nonzero"/></g><g clip-path="url(#364aa519d4)"><path fill="#0032a0" d="M 802.785156 988.015625 L 688.617188 892.785156 L 688.617188 639.019531 C 688.617188 510.421875 602.40625 401.664062 484.808594 367.035156 C 485.351562 363.246094 486.070312 359.457031 486.070312 355.492188 C 486.070312 310.761719 449.820312 274.507812 405.089844 274.507812 C 360.359375 274.507812 324.109375 310.761719 324.109375 355.492188 C 324.109375 359.457031 324.828125 363.246094 325.371094 367.035156 C 207.777344 401.664062 121.5625 510.242188 121.5625 639.019531 L 121.5625 892.785156 L 7.214844 988.015625 C 2.523438 991.804688 0 997.574219 0 1003.527344 L 0 1023.726562 C 0 1034.910156 9.019531 1043.929688 20.199219 1043.929688 L 789.800781 1043.929688 C 800.980469 1043.929688 810 1034.910156 810 1023.726562 L 810 1003.527344 C 810 997.574219 807.292969 991.804688 802.785156 988.015625 Z M 364.871094 358.738281 C 364.871094 357.65625 364.507812 356.574219 364.507812 355.492188 C 364.507812 333.125 382.726562 314.910156 405.089844 314.910156 C 427.453125 314.910156 445.492188 333.125 445.492188 355.492188 C 445.492188 356.574219 445.308594 357.65625 445.128906 358.738281 C 431.964844 356.933594 418.617188 355.492188 404.910156 355.492188 C 391.203125 355.492188 378.035156 356.753906 364.871094 358.738281 Z M 364.871094 358.738281 " fill-opacity="1" fill-rule="nonzero"/></g></svg>