<svg xmlns="http://www.w3.org/2000/svg" xmlns:xlink="http://www.w3.org/1999/xlink" width="1080" zoomAndPan="magnify" viewBox="0 0 810 1439.999935" height="1920" preserveAspectRatio="xMidYMid meet" version="1.0"><path fill="#0032a0" d="M 796.875 1124.941406 L 13.1875 1124.941406 C 6.09375 1124.941406 0.34375 1119.191406 0.34375 1112.09375 L 0.34375 1038.886719 C 0.34375 917.085938 99.433594 817.992188 221.234375 817.992188 L 588.828125 817.992188 C 710.628906 817.992188 809.722656 917.085938 809.722656 1038.886719 L 809.722656 1112.09375 C 809.722656 1119.191406 803.972656 1124.941406 796.875 1124.941406 Z M 405.03125 783.453125 C 275.878906 783.453125 170.804688 678.378906 170.804688 549.226562 C 170.804688 420.074219 275.878906 315 405.03125 315 C 534.183594 315 639.257812 420.074219 639.257812 549.226562 C 639.257812 678.378906 534.183594 783.453125 405.03125 783.453125 Z M 405.03125 783.453125 " fill-opacity="1" fill-rule="nonzero"/></svg>