<?xml version="1.0" encoding="utf-8"?>
<!-- Generator: Adobe Illustrator 27.1.1, SVG Export Plug-In . SVG Version: 6.00 Build 0)  -->
<svg version="1.1" id="Layer_1" xmlns="http://www.w3.org/2000/svg" xmlns:xlink="http://www.w3.org/1999/xlink" x="0px" y="0px"
	 viewBox="0 0 248 343" style="enable-background:new 0 0 248 343;" xml:space="preserve">
<style type="text/css">
	.st0{fill:#233F94;enable-background:new    ;}
	.st1{enable-background:new    ;}
	.st2{fill:#233F94;}
	.st3{fill:#767CB9;}
	.st4{fill:#8A8FC4;}
	.st5{fill:#9599C8;}
	.st6{fill:#C0C3E1;}
	.st7{fill:#8287BF;}
	.st8{fill:#243F95;}
	.st9{fill:#ECC61C;}
	.st10{fill:#FCDA79;}
	.st11{fill:#ED2D24;}
	.st12{fill:#98AFB3;}
	.st13{fill:#BF2126;}
	.st14{fill:#256C91;}
	.st15{fill:#F3954E;}
	.st16{fill:#AFBECF;}
	.st17{fill:#E7753E;}
	.st18{fill:#F9B37A;}
	.st19{fill:#7A8C8F;}
	.st20{fill:#D8E6E7;}
	.st21{fill:#5561A8;}
	.st22{fill:#8287C0;}
</style>
<g class="st1">
	<path class="st2" d="M231.99,171c-0.3,1.12-0.64,2.21-1.34,3.17c-0.6,0.82-1.38,1.44-2.23,1.96c-4.86,2.94-9.73,5.87-14.61,8.8
		c-1.8,1.08-3.75,1.06-5.17-0.1c-2.44-1.98-2.33-5.54,0.44-7.23c3.15-1.92,6.32-3.82,9.48-5.73c1.39-0.84,1.87-2.25,1.2-3.56
		c-0.28-0.56-0.78-0.92-1.23-1.31c-3.41-2.89-6.84-5.76-10.23-8.67c-0.91-0.78-1.89-1.07-2.98-0.68c-1.21,0.43-1.58,1.48-1.69,2.67
		c-0.23,2.69-0.49,5.37-0.73,8.05c-0.22,2.5-0.42,5.01-0.65,7.51c-0.23,2.5-0.49,5-0.72,7.5c-0.22,2.34-0.47,4.67-0.63,7.01
		c-0.08,1.15,0.39,2.24,0.65,3.34c2.39,10.12,4.8,20.23,7.21,30.35c2.15,9.01,4.31,18.01,6.44,27.03c0.35,1.48,0.83,2.95,0.81,4.51
		c-0.05,3.59-3.06,6.8-6.63,7.14c-4.39,0.42-7.39-2.73-8.15-6.15c-1.56-6.94-3.26-13.84-4.9-20.76c-1.94-8.16-3.92-16.32-5.81-24.5
		c-0.51-2.22-2.38-2.63-3.99-1.99c-0.72,0.28-1.08,0.88-1.25,1.6c-1.64,6.88-3.27,13.76-4.9,20.64c-1.77,7.44-3.54,14.88-5.32,22.32
		c-0.3,1.27-0.53,2.56-0.95,3.79c-0.99,2.89-3.06,4.55-6.08,5.03c-1.09,0.17-2.27,0.12-2.99,1.35c-0.13-0.76,0.06-1.37,0.09-1.99
		c0.13-2.36-0.53-4.6-1.06-6.85c-1.51-6.35-3.02-12.7-4.54-19.05c0.22-0.13,0.28,0.07,0.36,0.15c1.51,1.46,3.83,0.84,4.36-1.2
		c0.66-2.56,1.25-5.14,1.87-7.71c2.03-8.51,4.06-17.01,6.08-25.52c0.83-3.5,1.69-6.99,2.49-10.5c0.26-1.15-0.04-2.32-0.12-3.48
		c-0.12-1.62-0.3-3.23-0.45-4.84c-0.19-2.09-0.39-4.18-0.58-6.27c-0.06-0.6-0.16-1.2-0.16-1.8c0.01-1.7-0.97-3.14-3.13-3.01
		c0.11-0.22,0.32-0.28,0.48-0.38c2.78-1.7,5.62-3.3,8.32-5.12c3.27-2.2,5.19-5.36,5.82-9.26c0.87-5.44-0.91-9.91-5.04-13.5
		c-0.24-0.21-0.47-0.44-0.85-0.78c0.76,0.21,1.36,0.15,1.96,0.15c4.85,0,9.71,0.02,14.56,0c5.87-0.02,10.92,2.07,15.32,5.89
		c2.81,2.44,5.68,4.81,8.52,7.21c2.83,2.39,5.65,4.78,8.48,7.18c0.76,0.65,1.54,1.28,2.25,1.97c0.99,0.97,1.58,2.17,1.8,3.54
		c0.01,0.07,0.08,0.14,0.11,0.21C231.99,169.75,231.99,170.37,231.99,171z"/>
	<path class="st2" d="M159.97,261.11c0,0.25,0,0.49,0,0.74c-0.15,0.2-0.1,0.42-0.09,0.64c-0.23,2.51-1.32,4.61-3.16,6.29
		c-2.15,1.97-4.72,2.8-7.62,2.56c-3.98-0.33-7.6-3.32-8.58-7.25c-1.3-5.19-2.51-10.41-3.76-15.62c-1.45-6.07-2.9-12.14-4.34-18.22
		c-1.89-7.97-3.81-15.92-5.65-23.9c-0.51-2.22-2.69-2.64-4.09-1.86c-0.67,0.37-1,0.96-1.17,1.68c-2.62,10.98-5.24,21.96-7.86,32.94
		c-1.93,8.1-3.87,16.21-5.78,24.32c-1.02,4.33-4.35,7.37-8.71,7.91c-5.1,0.63-9.98-3.11-10.81-8.19c-0.33-2.01,0.1-3.91,0.56-5.83
		c1.95-8.16,3.89-16.33,5.84-24.49c1.73-7.26,3.47-14.52,5.2-21.78c2.02-8.47,4.03-16.93,6.05-25.4c0.26-1.11,0.44-2.24,0.79-3.32
		c0.43-1.3,0.3-2.58,0.18-3.88c-0.19-2.17-0.4-4.34-0.6-6.51c-0.19-2.04-0.4-4.08-0.59-6.13c-0.19-2.05-0.35-4.1-0.54-6.15
		c-0.19-2.05-0.4-4.09-0.58-6.14c-0.19-2.03-0.36-4.06-0.54-6.08c-0.17-1.86-0.25-3.74-0.54-5.58c-0.36-2.31-2.91-2.65-4.23-1.55
		c-2.02,1.7-4.05,3.39-6.06,5.1c-2.59,2.19-5.18,4.38-7.75,6.58c-1.61,1.38-1.44,3.32,0.39,4.43c3.97,2.41,7.97,4.79,11.92,7.22
		c2.13,1.31,3.2,3.28,2.97,5.77c-0.25,2.68-1.71,4.54-4.34,5.35c-1.69,0.52-3.34,0.31-4.85-0.6c-6.33-3.8-12.66-7.6-18.96-11.46
		c-3.19-1.95-4.65-4.91-4.4-8.62c0.17-2.54,1.34-4.63,3.29-6.28c2.61-2.2,5.21-4.4,7.82-6.6c2.83-2.39,5.66-4.77,8.48-7.16
		c2.54-2.15,5.1-4.28,7.62-6.45c3.92-3.38,8.4-5.58,13.48-6.58c1.86-0.37,3.73-0.5,5.62-0.5c6.48,0,12.96-0.02,19.43,0.01
		c6.3,0.03,11.98,1.96,17.02,5.74c2.63,1.97,5.05,4.2,7.57,6.31c2.85,2.39,5.69,4.8,8.53,7.2c2.83,2.39,5.65,4.78,8.48,7.18
		c0.89,0.75,1.79,1.48,2.5,2.42c3.07,4.04,2.26,10.44-2.7,13.43c-6.29,3.8-12.55,7.63-18.86,11.39c-3.78,2.26-8.52-0.07-9.2-4.43
		c-0.42-2.68,1.3-5.13,3.01-6.14c3.97-2.34,7.89-4.75,11.84-7.13c0.48-0.29,0.93-0.62,1.2-1.14c0.56-1.08,0.44-2.27-0.47-3.08
		c-1.49-1.33-3.03-2.6-4.55-3.89c-2.83-2.39-5.66-4.78-8.48-7.16c-0.33-0.28-0.66-0.57-1-0.85c-0.87-0.72-1.87-0.83-2.86-0.42
		c-1.07,0.45-1.44,1.42-1.54,2.52c-0.28,3.14-0.58,6.29-0.86,9.43c-0.22,2.5-0.42,5.01-0.65,7.51c-0.23,2.5-0.48,4.99-0.72,7.49
		c-0.19,2.03-0.32,4.06-0.54,6.08c-0.26,2.43-0.38,4.88-0.72,7.31c-0.1,0.73,0.24,1.42,0.4,2.12c2.1,8.87,4.22,17.74,6.33,26.61
		c1.81,7.58,3.61,15.16,5.41,22.74c2.18,9.15,4.37,18.3,6.55,27.45c0.09,0.38,0.21,0.76,0.16,1.17
		C159.87,260.61,159.8,260.88,159.97,261.11z"/>
	<path class="st2" d="M88.71,236.07c-0.72,3.01-1.44,6.03-2.16,9.04c-1.08,4.57-2.17,9.13-3.22,13.71
		c-0.36,1.56-0.49,3.14-0.11,4.73c0.03,0.14,0.02,0.29,0.03,0.52c-0.34-0.34-0.6-0.66-0.97-0.87c-0.33-0.18-0.66-0.34-1.05-0.35
		c-3.8-0.13-6.59-2.45-7.49-6.29c-2.49-10.65-5.05-21.28-7.58-31.92c-1.06-4.47-2.17-8.92-3.15-13.4c-0.51-2.34-3.07-2.6-4.39-1.62
		c-0.43,0.32-0.65,0.74-0.77,1.24c-0.99,4.16-1.99,8.32-2.99,12.49c-1.61,6.74-3.21,13.47-4.82,20.21
		c-1.09,4.58-2.16,9.18-3.31,13.75c-0.76,3.02-3.24,5.09-6.33,5.45c-4.6,0.54-7.74-3.01-8.19-6.41c-0.21-1.55,0.25-2.94,0.58-4.37
		c2.34-9.94,4.71-19.87,7.08-29.81c2.15-9.01,4.31-18.01,6.46-27.02c0.29-1.23,0.63-2.45,0.85-3.69c0.12-0.69,0.09-1.41,0.03-2.12
		c-0.27-3.12-0.56-6.25-0.86-9.37c-0.32-3.47-0.66-6.93-0.98-10.4c-0.3-3.23-0.59-6.45-0.88-9.68c-0.1-1.06-0.59-1.88-1.6-2.24
		c-0.92-0.33-1.84-0.25-2.63,0.41c-1.4,1.18-2.79,2.36-4.19,3.55c-2.27,1.92-4.53,3.86-6.82,5.75c-1.58,1.31-1.51,3.34,0.25,4.41
		c3.05,1.86,6.1,3.7,9.16,5.53c1.23,0.73,2.14,1.67,2.5,3.1c0.58,2.32-1.12,4.86-3.48,5.25c-1.18,0.19-2.22-0.06-3.21-0.65
		c-4.98-3-9.95-6-14.92-9.01c-4.37-2.64-4.28-8.41-0.78-11.26c4.24-3.45,8.34-7.08,12.54-10.58c2.85-2.39,5.57-4.94,8.6-7.11
		c2.77-1.98,5.9-3.16,9.27-3.65c1.15-0.17,2.3-0.25,3.47-0.25c4.98,0,9.96,0,14.93,0.01c0.49,0,0.97-0.12,1.52-0.13
		c-0.29,0.39-0.64,0.61-0.94,0.88c-3.17,2.81-5,6.28-5.07,10.56c-0.09,5.61,2.35,9.86,7.09,12.8c2.41,1.5,4.86,2.94,7.3,4.41
		c0.16,0.09,0.31,0.2,0.49,0.32c-0.22,0.22-0.46,0.14-0.67,0.14c-1.28,0.01-2.32,0.9-2.45,2.19c-0.24,2.38-0.42,4.76-0.64,7.14
		c-0.23,2.5-0.41,5.01-0.74,7.5c-0.22,1.64,0.17,3.17,0.54,4.71c2.07,8.71,4.14,17.42,6.22,26.12c1.21,5.07,2.42,10.13,3.63,15.2
		c0.25,1.05,0.86,1.79,1.94,2.06C86.98,237.33,87.88,236.88,88.71,236.07z"/>
	<path class="st2" d="M106.99,87.88c0.24-3.55,1.54-6.68,3.77-9.42c2.74-3.37,6.28-5.48,10.57-6.14c4.92-0.75,9.44,0.34,13.38,3.47
		c3.3,2.62,5.39,6,6.19,10.13c0.99,5.08-0.08,9.73-3.24,13.83c-2.75,3.57-6.4,5.77-10.84,6.47c-5.11,0.8-9.72-0.47-13.73-3.8
		c-3.03-2.52-4.92-5.73-5.77-9.56c-0.19-0.85-0.34-1.71-0.33-2.59C106.99,89.47,106.99,88.67,106.99,87.88z"/>
	<path class="st2" d="M186.62,130.75c-2.54-0.15-4.8-1.08-6.79-2.62c-2.93-2.28-4.61-5.27-5.11-8.99
		c-0.85-6.35,3.35-12.64,9.7-14.29c7.29-1.89,14.74,2.43,16.32,10.06c1.4,6.75-2.33,12.74-8.13,15.03
		c-1.15,0.46-2.35,0.82-3.61,0.81C188.2,130.75,187.41,130.75,186.62,130.75z"/>
	<path class="st2" d="M59.13,130.75c-2.52-0.14-4.76-1.07-6.74-2.59c-2.95-2.27-4.64-5.27-5.15-8.98
		c-0.86-6.34,3.28-12.7,9.76-14.35c7.23-1.85,14.6,2.4,16.23,9.98c1.46,6.81-2.2,12.79-8.11,15.14c-1.15,0.46-2.35,0.82-3.61,0.81
		C60.72,130.75,59.93,130.75,59.13,130.75z"/>
	<path class="st2" d="M106.99,87.88c0,0.8,0,1.59,0,2.39C106.82,89.47,106.78,88.67,106.99,87.88z"/>
	<path class="st2" d="M59.13,130.75c0.79,0,1.59,0,2.38,0C60.72,130.95,59.93,130.96,59.13,130.75z"/>
	<path class="st2" d="M186.62,130.75c0.79,0,1.59,0,2.38,0C188.2,130.95,187.41,130.96,186.62,130.75z"/>
	<path class="st2" d="M159.97,261.11c-0.17-0.23-0.1-0.5-0.1-0.75C160.02,260.59,160.01,260.85,159.97,261.11z"/>
	<path class="st2" d="M159.88,262.49c-0.01-0.22-0.06-0.44,0.09-0.64C160.01,262.08,160.02,262.29,159.88,262.49z"/>
</g>
</svg>
