<svg xmlns="http://www.w3.org/2000/svg" xmlns:xlink="http://www.w3.org/1999/xlink" width="1080" zoomAndPan="magnify" viewBox="0 0 810 1439.999935" height="1920" preserveAspectRatio="xMidYMid meet" version="1.0"><defs><clipPath id="514c832de9"><path d="M 266 731 L 515 731 L 515 906.449219 L 266 906.449219 Z M 266 731 " clip-rule="nonzero"/></clipPath><clipPath id="dcbe14aec1"><path d="M 86 738 L 284 738 L 284 906.449219 L 86 906.449219 Z M 86 738 " clip-rule="nonzero"/></clipPath><clipPath id="5f747b8359"><path d="M 522 752 L 725 752 L 725 906.449219 L 522 906.449219 Z M 522 752 " clip-rule="nonzero"/></clipPath><clipPath id="2f3add34a7"><path d="M 318 533.699219 L 477 533.699219 L 477 702 L 318 702 Z M 318 533.699219 " clip-rule="nonzero"/></clipPath></defs><g clip-path="url(#514c832de9)"><path fill="#0032a0" d="M 350.890625 731.984375 C 331.734375 740.472656 313.496094 760.085938 298.664062 787.140625 C 280.203125 820.824219 268.144531 864.613281 266.21875 906.378906 L 514.230469 906.378906 C 511.914062 865.488281 500.042969 822.863281 482.007812 789.957031 C 468.15625 764.691406 451.335938 745.96875 433.5625 736.679688 C 433.496094 736.652344 433.398438 736.710938 433.339844 736.679688 C 422.210938 741.386719 410.265625 744.191406 397.5625 744.191406 C 380.75 744.191406 364.925781 739.609375 350.890625 731.984375 Z M 350.890625 731.984375 " fill-opacity="1" fill-rule="nonzero"/></g><g clip-path="url(#dcbe14aec1)"><path fill="#0032a0" d="M 154.441406 738.554688 C 118.839844 773.363281 91.917969 840.792969 86.660156 906.378906 L 244.890625 906.378906 C 246.792969 860.457031 259.6875 813.339844 280.21875 775.875 C 281.109375 774.253906 282.191406 772.773438 283.113281 771.183594 C 277.242188 761.476562 270.742188 752.710938 263.996094 745.125 C 249.378906 754.8125 232.472656 761.328125 214 761.328125 C 191.378906 761.328125 170.777344 752.546875 154.441406 738.554688 Z M 154.441406 738.554688 " fill-opacity="1" fill-rule="nonzero"/></g><g clip-path="url(#5f747b8359)"><path fill="#0032a0" d="M 568.453125 752.875 C 549.757812 771.15625 533.699219 799.480469 522.449219 831.5 C 529.84375 855.539062 534.503906 881.128906 535.785156 906.378906 L 724.238281 906.378906 C 719.71875 849.796875 698.339844 792.074219 668.902344 758.976562 C 655.472656 767.871094 640.085938 774 623.121094 774 C 602.355469 774 583.453125 765.71875 568.453125 752.875 Z M 568.453125 752.875 " fill-opacity="1" fill-rule="nonzero"/></g><g clip-path="url(#2f3add34a7)"><path fill="#0032a0" d="M 397.632812 533.550781 C 353.675781 533.550781 318.070312 570.925781 318.070312 617.34375 C 318.070312 663.769531 353.675781 701.375 397.632812 701.375 C 441.582031 701.375 476.96875 663.769531 476.96875 617.34375 C 476.96875 570.925781 441.582031 533.550781 397.632812 533.550781 Z M 397.632812 533.550781 " fill-opacity="1" fill-rule="nonzero"/></g><path fill="#0032a0" d="M 21.195312 875.578125 L 18.5625 873.773438 C 18 873.390625 17.457031 872.980469 16.933594 872.539062 C 16.414062 872.101562 15.910156 871.636719 15.433594 871.148438 C 14.957031 870.660156 14.5 870.148438 14.070312 869.617188 C 13.644531 869.082031 13.238281 868.53125 12.863281 867.957031 C 12.488281 867.382812 12.140625 866.792969 11.820312 866.1875 C 11.5 865.578125 11.210938 864.957031 10.949219 864.320312 C 10.691406 863.683594 10.460938 863.035156 10.265625 862.378906 C 10.066406 861.71875 9.902344 861.050781 9.769531 860.378906 C 9.636719 859.703125 9.535156 859.023438 9.46875 858.339844 C 9.398438 857.65625 9.363281 856.96875 9.363281 856.28125 C 9.359375 855.59375 9.390625 854.910156 9.457031 854.226562 C 9.519531 853.542969 9.617188 852.863281 9.75 852.191406 C 9.878906 851.515625 10.039062 850.851562 10.234375 850.195312 C 10.429688 849.539062 10.652344 848.894531 10.910156 848.257812 C 11.167969 847.625 11.453125 847.007812 11.769531 846.402344 C 12.085938 845.796875 12.429688 845.210938 12.804688 844.640625 L 94.703125 719.710938 C 95.078125 719.140625 95.476562 718.59375 95.902344 718.0625 C 96.332031 717.535156 96.78125 717.027344 97.257812 716.542969 C 97.734375 716.0625 98.230469 715.601562 98.75 715.167969 C 99.273438 714.734375 99.8125 714.328125 100.371094 713.949219 C 100.933594 713.570312 101.507812 713.222656 102.105469 712.902344 C 102.699219 712.578125 103.304688 712.289062 103.929688 712.027344 C 104.550781 711.769531 105.183594 711.542969 105.832031 711.34375 C 106.476562 711.148438 107.128906 710.984375 107.789062 710.855469 C 108.453125 710.722656 109.117188 710.625 109.789062 710.5625 C 110.460938 710.496094 111.132812 710.46875 111.808594 710.472656 C 112.484375 710.472656 113.15625 710.511719 113.828125 710.582031 C 114.5 710.652344 115.164062 710.757812 115.828125 710.894531 C 116.488281 711.03125 117.144531 711.203125 117.789062 711.402344 C 118.4375 711.605469 119.070312 711.839844 119.695312 712.105469 C 120.320312 712.375 120.929688 712.671875 121.523438 712.996094 C 122.121094 713.324219 122.699219 713.679688 123.261719 714.0625 L 125.894531 715.867188 C 126.457031 716.25 127 716.664062 127.523438 717.101562 C 128.046875 717.539062 128.546875 718.003906 129.023438 718.492188 C 129.503906 718.980469 129.957031 719.492188 130.386719 720.023438 C 130.816406 720.558594 131.21875 721.113281 131.59375 721.683594 C 131.96875 722.257812 132.316406 722.847656 132.636719 723.457031 C 132.957031 724.0625 133.246094 724.6875 133.507812 725.320312 C 133.765625 725.957031 133.996094 726.605469 134.191406 727.265625 C 134.390625 727.921875 134.554688 728.589844 134.6875 729.265625 C 134.820312 729.9375 134.921875 730.617188 134.992188 731.300781 C 135.058594 731.988281 135.09375 732.671875 135.09375 733.359375 C 135.097656 734.046875 135.066406 734.734375 135 735.417969 C 134.9375 736.101562 134.839844 736.777344 134.710938 737.453125 C 134.578125 738.125 134.417969 738.789062 134.222656 739.445312 C 134.027344 740.105469 133.804688 740.75 133.546875 741.382812 C 133.289062 742.015625 133.003906 742.636719 132.6875 743.238281 C 132.371094 743.84375 132.027344 744.429688 131.652344 745 L 49.753906 869.929688 C 49.378906 870.5 48.980469 871.050781 48.554688 871.578125 C 48.128906 872.105469 47.675781 872.613281 47.199219 873.097656 C 46.722656 873.582031 46.226562 874.039062 45.707031 874.472656 C 45.183594 874.90625 44.644531 875.3125 44.085938 875.691406 C 43.523438 876.070312 42.949219 876.421875 42.355469 876.742188 C 41.757812 877.0625 41.152344 877.351562 40.527344 877.613281 C 39.90625 877.871094 39.273438 878.101562 38.625 878.296875 C 37.980469 878.492188 37.328125 878.65625 36.667969 878.789062 C 36.003906 878.917969 35.339844 879.015625 34.667969 879.078125 C 33.996094 879.144531 33.324219 879.175781 32.648438 879.171875 C 31.976562 879.167969 31.300781 879.128906 30.628906 879.058594 C 29.957031 878.988281 29.292969 878.886719 28.628906 878.746094 C 27.96875 878.609375 27.3125 878.441406 26.667969 878.238281 C 26.019531 878.035156 25.386719 877.800781 24.761719 877.535156 C 24.136719 877.269531 23.527344 876.972656 22.933594 876.644531 C 22.335938 876.316406 21.757812 875.960938 21.195312 875.578125 Z M 21.195312 875.578125 " fill-opacity="1" fill-rule="nonzero"/><path fill="#0032a0" d="M 623.207031 595.519531 C 586.53125 595.519531 556.816406 626.703125 556.816406 665.445312 C 556.816406 704.179688 586.53125 735.5625 623.207031 735.5625 C 659.882812 735.5625 689.414062 704.179688 689.414062 665.445312 C 689.414062 626.703125 659.882812 595.519531 623.207031 595.519531 Z M 623.207031 595.519531 " fill-opacity="1" fill-rule="nonzero"/><path fill="#0032a0" d="M 214.121094 568.402344 C 174.167969 568.402344 141.808594 602.371094 141.808594 644.5625 C 141.808594 686.75 174.167969 720.929688 214.121094 720.929688 C 254.066406 720.929688 286.226562 686.75 286.226562 644.5625 C 286.226562 602.371094 254.066406 568.402344 214.121094 568.402344 Z M 214.121094 568.402344 " fill-opacity="1" fill-rule="nonzero"/><path fill="#0032a0" d="M 792.003906 878.464844 C 792.554688 878.089844 793.085938 877.683594 793.597656 877.25 C 794.113281 876.820312 794.601562 876.363281 795.070312 875.882812 C 795.539062 875.402344 795.980469 874.898438 796.402344 874.371094 C 796.820312 873.84375 797.214844 873.296875 797.582031 872.730469 C 797.949219 872.164062 798.285156 871.578125 798.597656 870.976562 C 798.90625 870.375 799.1875 869.757812 799.441406 869.128906 C 799.691406 868.5 799.910156 867.855469 800.101562 867.203125 C 800.292969 866.550781 800.449219 865.890625 800.574219 865.21875 C 800.703125 864.550781 800.796875 863.875 800.855469 863.195312 C 800.917969 862.515625 800.945312 861.832031 800.941406 861.148438 C 800.9375 860.464844 800.902344 859.785156 800.832031 859.105469 C 800.765625 858.425781 800.664062 857.75 800.527344 857.078125 C 800.394531 856.40625 800.230469 855.746094 800.03125 855.089844 C 799.835938 854.433594 799.605469 853.792969 799.347656 853.160156 C 799.089844 852.527344 798.800781 851.910156 798.484375 851.304688 C 798.167969 850.703125 797.820312 850.113281 797.449219 849.546875 L 728.574219 744.484375 C 728.203125 743.917969 727.800781 743.367188 727.375 742.835938 C 726.949219 742.308594 726.5 741.800781 726.027344 741.316406 C 725.554688 740.828125 725.058594 740.371094 724.539062 739.933594 C 724.023438 739.5 723.484375 739.089844 722.929688 738.707031 C 722.375 738.328125 721.800781 737.972656 721.210938 737.648438 C 720.621094 737.324219 720.019531 737.03125 719.402344 736.765625 C 718.785156 736.503906 718.15625 736.269531 717.519531 736.070312 C 716.878906 735.871094 716.234375 735.703125 715.578125 735.566406 C 714.925781 735.429688 714.265625 735.328125 713.605469 735.257812 C 712.941406 735.1875 712.273438 735.152344 711.609375 735.148438 C 710.941406 735.148438 710.277344 735.179688 709.617188 735.242188 C 708.953125 735.308594 708.296875 735.40625 707.644531 735.535156 C 706.992188 735.667969 706.347656 735.832031 705.710938 736.027344 C 705.074219 736.222656 704.449219 736.449219 703.835938 736.710938 C 703.21875 736.96875 702.621094 737.257812 702.035156 737.578125 C 701.449219 737.898438 700.878906 738.246094 700.328125 738.625 C 699.777344 739.003906 699.246094 739.40625 698.734375 739.839844 C 698.21875 740.269531 697.730469 740.726562 697.261719 741.207031 C 696.792969 741.691406 696.347656 742.195312 695.929688 742.722656 C 695.511719 743.246094 695.117188 743.792969 694.75 744.359375 C 694.382812 744.929688 694.042969 745.511719 693.734375 746.113281 C 693.421875 746.714844 693.140625 747.332031 692.890625 747.960938 C 692.640625 748.59375 692.417969 749.234375 692.230469 749.886719 C 692.039062 750.539062 691.882812 751.203125 691.757812 751.871094 C 691.628906 752.542969 691.535156 753.214844 691.476562 753.894531 C 691.414062 754.574219 691.386719 755.257812 691.390625 755.941406 C 691.394531 756.625 691.429688 757.304688 691.5 757.984375 C 691.566406 758.667969 691.667969 759.34375 691.804688 760.011719 C 691.9375 760.683594 692.101562 761.347656 692.300781 762 C 692.496094 762.65625 692.726562 763.296875 692.984375 763.929688 C 693.242188 764.5625 693.53125 765.179688 693.847656 765.785156 C 694.164062 766.390625 694.511719 766.976562 694.882812 767.546875 L 763.757812 872.605469 C 764.128906 873.175781 764.527344 873.722656 764.953125 874.253906 C 765.378906 874.785156 765.832031 875.289062 766.304688 875.777344 C 766.777344 876.261719 767.273438 876.722656 767.792969 877.15625 C 768.308594 877.59375 768.84375 878 769.402344 878.382812 C 769.957031 878.765625 770.53125 879.117188 771.121094 879.441406 C 771.707031 879.765625 772.3125 880.058594 772.929688 880.324219 C 773.546875 880.585938 774.175781 880.820312 774.8125 881.019531 C 775.453125 881.222656 776.097656 881.390625 776.75 881.523438 C 777.40625 881.660156 778.066406 881.761719 778.726562 881.832031 C 779.390625 881.902344 780.054688 881.9375 780.722656 881.941406 C 781.386719 881.941406 782.054688 881.910156 782.714844 881.847656 C 783.378906 881.78125 784.035156 881.683594 784.6875 881.554688 C 785.339844 881.421875 785.984375 881.257812 786.621094 881.0625 C 787.257812 880.867188 787.882812 880.640625 788.496094 880.378906 C 789.109375 880.121094 789.710938 879.832031 790.296875 879.511719 C 790.882812 879.191406 791.449219 878.84375 792.003906 878.464844 Z M 792.003906 878.464844 " fill-opacity="1" fill-rule="nonzero"/><path fill="#0032a0" d="M 497.117188 714.246094 C 493.210938 714.210938 489.28125 715.378906 485.78125 717.765625 L 482.449219 720.117188 C 473.136719 726.488281 470.800781 739.347656 477.117188 748.984375 L 513.789062 805.082031 C 516.535156 799.023438 519.570312 793.144531 522.679688 787.476562 C 527.6875 778.339844 533.195312 769.78125 539.121094 761.898438 L 514.007812 723.636719 C 510.0625 717.617188 503.636719 714.308594 497.117188 714.246094 Z M 497.117188 714.246094 " fill-opacity="1" fill-rule="nonzero"/></svg>