<svg xmlns="http://www.w3.org/2000/svg" xmlns:xlink="http://www.w3.org/1999/xlink" width="1080" zoomAndPan="magnify" viewBox="0 0 810 1439.999935" height="1920" preserveAspectRatio="xMidYMid meet" version="1.0"><defs><clipPath id="84b1ff4bee"><path d="M 323 319.226562 L 482 319.226562 L 482 478 L 323 478 Z M 323 319.226562 " clip-rule="nonzero"/></clipPath></defs><g clip-path="url(#84b1ff4bee)"><path fill="#0032a0" d="M 402.511719 477.070312 C 446.03125 477.070312 481.421875 441.664062 481.421875 398.144531 C 481.421875 354.628906 446.015625 319.226562 402.496094 319.226562 C 358.980469 319.226562 323.585938 354.628906 323.585938 398.144531 C 323.585938 441.664062 358.980469 477.070312 402.496094 477.070312 Z M 402.511719 337.394531 C 436.007812 337.394531 463.257812 364.644531 463.257812 398.144531 C 463.257812 431.648438 436.007812 458.902344 402.511719 458.902344 C 369.015625 458.902344 341.765625 431.648438 341.765625 398.144531 C 341.753906 364.644531 369.003906 337.394531 402.496094 337.394531 Z M 402.511719 337.394531 " fill-opacity="1" fill-rule="nonzero"/></g><path fill="#0032a0" d="M 187.023438 625.765625 C 185.890625 639.257812 190.078125 652.386719 198.824219 662.722656 C 202.425781 666.980469 206.644531 670.574219 211.332031 673.386719 L 278.246094 713.828125 C 287.367188 719.328125 298.046875 720.976562 308.390625 718.394531 C 313.976562 717.019531 319.070312 714.511719 323.453125 711.070312 L 324.285156 720.1875 L 258.960938 994.570312 C 255.664062 1008.410156 257.949219 1022.710938 265.421875 1034.828125 C 272.871094 1046.945312 284.597656 1055.433594 298.4375 1058.742188 C 302.570312 1059.71875 306.703125 1060.199219 310.785156 1060.199219 C 334.875 1060.179688 356.785156 1043.6875 362.605469 1019.25 L 402.503906 851.683594 L 442.40625 1019.25 C 449.199219 1047.839844 478.0625 1065.488281 506.574219 1058.742188 C 520.414062 1055.433594 532.140625 1046.945312 539.589844 1034.828125 C 547.058594 1022.710938 549.347656 1008.410156 546.046875 994.570312 L 480.726562 720.1875 L 481.558594 711.050781 C 494.207031 720.96875 512.199219 722.628906 526.761719 713.820312 L 593.679688 673.394531 C 605.265625 666.394531 613.425781 655.304688 616.671875 642.15625 C 619.917969 629.019531 617.863281 615.402344 610.855469 603.816406 C 607.996094 599.078125 604.394531 594.867188 600.171875 591.300781 L 513.808594 518.320312 C 492.378906 500.214844 465.144531 490.242188 437.113281 490.242188 L 367.886719 490.242188 C 339.855469 490.242188 312.625 500.214844 291.191406 518.320312 L 204.871094 591.304688 C 194.53125 600.042969 188.195312 612.273438 187.058594 625.761719 Z M 216.546875 605.183594 L 302.910156 532.195312 C 321.078125 516.855469 344.160156 508.414062 367.898438 508.414062 L 437.125 508.414062 C 460.859375 508.414062 483.945312 516.859375 502.109375 532.195312 L 588.476562 605.183594 L 588.476562 605.195312 C 591.191406 607.472656 593.480469 610.179688 595.324219 613.203125 C 599.8125 620.640625 601.125 629.378906 599.050781 637.804688 C 596.957031 646.242188 591.722656 653.355469 584.289062 657.84375 L 517.390625 698.269531 C 507.136719 704.460938 493.792969 701.152344 487.621094 690.933594 C 481.464844 680.703125 484.765625 667.363281 494.984375 661.1875 L 538.183594 635.097656 C 540.683594 633.582031 542.296875 630.957031 542.527344 628.039062 C 542.757812 625.117188 541.570312 622.269531 539.335938 620.382812 L 489.765625 578.5 C 487.175781 576.300781 483.539062 575.734375 480.46875 577.039062 C 477.332031 578.316406 475.164062 581.242188 474.863281 584.613281 L 462.5 720.023438 C 462.410156 721.007812 462.480469 721.992188 462.710938 722.953125 L 528.390625 998.78125 C 532.878906 1017.605469 521.203125 1036.582031 502.363281 1041.070312 C 483.683594 1045.585938 464.574219 1033.894531 460.085938 1015.050781 L 411.355469 810.371094 C 409.402344 802.191406 395.636719 802.191406 393.683594 810.371094 L 344.847656 1015.035156 C 340.339844 1033.867188 321.394531 1045.542969 302.570312 1041.050781 C 283.730469 1036.5625 272.054688 1017.589844 276.542969 998.765625 L 342.222656 722.933594 C 342.453125 721.976562 342.523438 720.980469 342.433594 720.003906 L 330.054688 584.582031 C 329.734375 581.210938 327.585938 578.28125 324.445312 576.996094 C 323.328125 576.542969 322.175781 576.324219 321.003906 576.324219 C 318.894531 576.324219 316.820312 577.058594 315.152344 578.46875 L 265.601562 620.347656 C 263.367188 622.234375 262.175781 625.082031 262.40625 628.003906 C 262.636719 630.921875 264.253906 633.546875 266.753906 635.0625 L 309.953125 661.144531 C 320.171875 667.328125 323.472656 680.671875 317.296875 690.898438 C 314.300781 695.847656 309.5625 699.335938 303.957031 700.71875 C 298.402344 702.136719 292.53125 701.242188 287.5625 698.242188 L 220.628906 657.792969 C 217.613281 655.980469 214.914062 653.683594 212.609375 650.960938 C 207.003906 644.324219 204.324219 635.914062 205.050781 627.257812 C 205.777344 618.605469 209.824219 610.75 216.457031 605.148438 Z M 487.660156 644.386719 L 491.367188 603.632812 L 517.941406 626.085938 L 487.648438 644.390625 Z M 317.371094 644.378906 L 287.070312 626.085938 L 313.648438 603.632812 L 317.371094 644.375 Z M 317.371094 644.378906 " fill-opacity="1" fill-rule="nonzero"/><path fill="#0032a0" d="M 177.183594 563.3125 C 213.003906 563.3125 242.132812 534.171875 242.132812 498.359375 C 242.132812 462.542969 213 433.417969 177.183594 433.417969 C 141.367188 433.417969 112.230469 462.550781 112.230469 498.363281 C 112.230469 534.175781 141.363281 563.3125 177.183594 563.3125 Z M 177.183594 451.585938 C 202.980469 451.585938 223.96875 472.566406 223.96875 498.363281 C 223.96875 524.160156 202.980469 545.148438 177.183594 545.148438 C 151.386719 545.148438 130.398438 524.160156 130.398438 498.363281 C 130.398438 472.5625 151.386719 451.585938 177.183594 451.585938 Z M 177.183594 451.585938 " fill-opacity="1" fill-rule="nonzero"/><path fill="#0032a0" d="M 23.296875 720.113281 L 76.835938 752.457031 C 84.535156 757.105469 93.585938 758.46875 102.3125 756.332031 C 105.949219 755.4375 109.355469 753.964844 112.425781 752.003906 L 112.761719 755.863281 L 60.570312 975.085938 C 54.894531 998.914062 69.671875 1022.925781 93.496094 1028.605469 C 96.957031 1029.429688 100.398438 1029.820312 103.785156 1029.820312 C 123.886719 1029.820312 142.160156 1016.0625 147.023438 995.667969 L 177.179688 869.03125 L 207.339844 995.65625 C 212.023438 1015.429688 229.5 1029.472656 249.832031 1029.8125 L 249.972656 1029.8125 C 254.921875 1029.8125 258.96875 1025.84375 259.054688 1020.878906 C 259.144531 1015.855469 255.136719 1011.722656 250.113281 1011.644531 C 238.105469 1011.449219 227.777344 1003.152344 225.011719 991.460938 L 186.015625 827.71875 C 184.066406 819.539062 170.296875 819.539062 168.347656 827.71875 L 129.351562 991.460938 C 126 1005.566406 111.609375 1014.277344 97.71875 1010.933594 C 83.613281 1007.570312 74.886719 993.375 78.238281 979.289062 L 130.789062 758.621094 C 131.019531 757.664062 131.089844 756.667969 131 755.695312 L 127.859375 721.390625 C 127.824219 720.882812 127.789062 720.378906 127.71875 719.863281 L 121.101562 647.378906 C 120.800781 644.007812 118.636719 641.078125 115.496094 639.800781 C 112.40625 638.523438 108.789062 639.074219 106.199219 641.265625 L 66.546875 674.761719 C 64.3125 676.652344 63.121094 679.5 63.351562 682.417969 C 63.585938 685.335938 65.199219 687.964844 67.699219 689.480469 L 102.257812 710.355469 C 105.808594 712.492188 108.308594 715.890625 109.304688 719.90625 C 109.460938 720.554688 109.585938 721.203125 109.65625 721.859375 L 109.730469 722.632812 C 109.941406 725.773438 109.179688 728.894531 107.527344 731.652344 C 105.382812 735.203125 101.992188 737.703125 97.964844 738.6875 C 93.957031 739.699219 89.789062 739.070312 86.238281 736.914062 L 32.675781 704.539062 C 30.4375 703.179688 28.433594 701.46875 26.714844 699.445312 C 22.542969 694.515625 20.539062 688.25 21.089844 681.808594 C 21.621094 675.371094 24.636719 669.523438 29.570312 665.355469 L 98.691406 606.96875 C 112.867188 594.972656 130.910156 588.375 149.484375 588.375 L 204.945312 588.375 C 209.964844 588.375 214.027344 584.3125 214.027344 579.289062 C 214.027344 574.269531 209.964844 570.207031 204.945312 570.207031 L 149.484375 570.207031 C 126.617188 570.207031 104.40625 578.332031 86.964844 593.09375 L 17.863281 651.480469 C 9.203125 658.78125 3.933594 669.011719 2.976562 680.285156 C 2.035156 691.570312 5.53125 702.535156 12.839844 711.175781 C 15.839844 714.722656 19.351562 717.71875 23.292969 720.089844 Z M 87.941406 680.464844 L 104.601562 666.394531 L 106.925781 691.945312 Z M 87.941406 680.464844 " fill-opacity="1" fill-rule="nonzero"/><path fill="#0032a0" d="M 238.40625 690.8125 C 233.527344 690.351562 228.984375 694.023438 228.523438 699.035156 L 223.34375 755.695312 C 223.253906 756.671875 223.324219 757.664062 223.554688 758.625 L 260.527344 913.832031 C 261.523438 918.011719 265.246094 920.8125 269.363281 920.8125 C 270.054688 920.8125 270.765625 920.734375 271.476562 920.566406 C 276.351562 919.402344 279.371094 914.507812 278.199219 909.628906 L 241.582031 755.863281 L 246.621094 700.6875 C 247.082031 695.675781 243.394531 691.257812 238.410156 690.800781 Z M 238.40625 690.8125 " fill-opacity="1" fill-rule="nonzero"/><path fill="#0032a0" d="M 627.863281 563.3125 C 663.679688 563.3125 692.8125 534.171875 692.8125 498.359375 C 692.8125 462.542969 663.683594 433.410156 627.863281 433.410156 C 592.042969 433.410156 562.910156 462.542969 562.910156 498.359375 C 562.910156 534.171875 592.023438 563.3125 627.855469 563.3125 Z M 627.863281 451.585938 C 653.65625 451.585938 674.644531 472.566406 674.644531 498.363281 C 674.644531 524.160156 653.65625 545.148438 627.863281 545.148438 C 602.066406 545.148438 581.078125 524.160156 581.078125 498.363281 C 581.03125 472.5625 602.058594 451.585938 627.855469 451.585938 Z M 627.863281 451.585938 " fill-opacity="1" fill-rule="nonzero"/><path fill="#0032a0" d="M 787.140625 651.5 L 718.054688 593.113281 C 700.597656 578.351562 678.386719 570.226562 655.515625 570.226562 L 600.058594 570.226562 C 595.035156 570.226562 590.972656 574.289062 590.972656 579.308594 C 590.972656 584.332031 595.035156 588.394531 600.058594 588.394531 L 655.515625 588.394531 C 674.089844 588.394531 692.132812 594.992188 706.328125 606.988281 L 775.414062 665.375 C 777.433594 667.078125 779.15625 669.089844 780.523438 671.34375 C 787.40625 682.769531 783.734375 697.664062 772.308594 704.558594 L 718.765625 736.910156 C 715.234375 739.066406 711.101562 739.695312 707.039062 738.683594 C 703.011719 737.699219 699.625 735.199219 697.476562 731.648438 C 695.828125 728.890625 695.0625 725.769531 695.277344 722.628906 L 695.347656 721.847656 C 695.417969 721.199219 695.542969 720.550781 695.703125 719.90625 C 696.695312 715.886719 699.199219 712.488281 702.746094 710.34375 L 737.289062 689.46875 C 739.789062 687.960938 741.402344 685.335938 741.632812 682.414062 C 741.867188 679.496094 740.675781 676.648438 738.441406 674.761719 L 698.808594 641.261719 C 696.21875 639.070312 692.632812 638.519531 689.511719 639.796875 C 686.371094 641.078125 684.222656 644.003906 683.90625 647.375 L 677.289062 719.859375 C 677.214844 720.367188 677.179688 720.878906 677.144531 721.394531 L 674.003906 755.691406 C 673.917969 756.667969 673.988281 757.660156 674.21875 758.617188 L 726.746094 979.285156 C 730.101562 993.382812 721.371094 1007.578125 707.285156 1010.929688 C 693.304688 1014.335938 679.007812 1005.542969 675.652344 991.457031 L 636.660156 827.714844 C 634.707031 819.535156 620.941406 819.535156 618.988281 827.714844 L 579.996094 991.457031 C 577.207031 1003.140625 566.882812 1011.445312 554.875 1011.640625 C 549.851562 1011.71875 545.84375 1015.851562 545.929688 1020.875 C 546.019531 1025.84375 550.066406 1029.808594 555.015625 1029.808594 L 555.15625 1029.808594 C 575.488281 1029.46875 592.960938 1015.4375 597.664062 995.664062 L 627.824219 869.027344 L 657.984375 995.664062 C 662.84375 1016.058594 681.101562 1029.816406 701.21875 1029.816406 C 704.605469 1029.816406 708.066406 1029.425781 711.507812 1028.601562 C 735.335938 1022.921875 750.09375 998.910156 744.417969 975.082031 L 692.242188 755.859375 L 692.578125 752.007812 C 695.648438 753.960938 699.054688 755.433594 702.691406 756.328125 C 711.402344 758.46875 720.46875 757.101562 728.167969 752.460938 L 781.710938 720.117188 C 801.6875 708.042969 808.144531 681.953125 796.0625 661.9375 C 793.566406 658.039062 790.566406 654.523438 787.023438 651.542969 Z M 700.4375 666.398438 L 717.097656 680.46875 L 698.113281 691.9375 L 700.429688 666.398438 Z M 700.4375 666.398438 " fill-opacity="1" fill-rule="nonzero"/><path fill="#0032a0" d="M 533.53125 920.539062 C 534.238281 920.710938 534.949219 920.789062 535.640625 920.789062 C 539.757812 920.789062 543.484375 917.984375 544.476562 913.808594 L 581.449219 758.597656 C 581.679688 757.640625 581.75 756.648438 581.660156 755.671875 L 576.480469 699.007812 C 576.039062 693.996094 571.496094 690.289062 566.601562 690.785156 C 561.613281 691.246094 557.925781 695.664062 558.386719 700.660156 L 563.425781 755.835938 L 526.804688 909.601562 C 525.671875 914.550781 528.667969 919.457031 533.527344 920.59375 Z M 533.53125 920.539062 " fill-opacity="1" fill-rule="nonzero"/></svg>