<?xml version="1.0" encoding="utf-8"?>
<!-- Generator: Adobe Illustrator 27.1.1, SVG Export Plug-In . SVG Version: 6.00 Build 0)  -->
<svg version="1.1" id="Layer_1" xmlns="http://www.w3.org/2000/svg" xmlns:xlink="http://www.w3.org/1999/xlink" x="0px" y="0px"
	 viewBox="0 0 248 343" style="enable-background:new 0 0 248 343;" xml:space="preserve">
<style type="text/css">
	.st0{fill:#233F94;enable-background:new    ;}
	.st1{enable-background:new    ;}
	.st2{fill:#233F94;}
	.st3{fill:#767CB9;}
	.st4{fill:#8A8FC4;}
	.st5{fill:#9599C8;}
	.st6{fill:#C0C3E1;}
	.st7{fill:#8287BF;}
	.st8{fill:#243F95;}
	.st9{fill:#ECC61C;}
	.st10{fill:#FCDA79;}
	.st11{fill:#ED2D24;}
	.st12{fill:#98AFB3;}
	.st13{fill:#BF2126;}
	.st14{fill:#256C91;}
	.st15{fill:#F3954E;}
	.st16{fill:#AFBECF;}
	.st17{fill:#E7753E;}
	.st18{fill:#F9B37A;}
	.st19{fill:#7A8C8F;}
	.st20{fill:#D8E6E7;}
	.st21{fill:#5561A8;}
	.st22{fill:#8287C0;}
</style>
<g>
	<path class="st2" d="M129.87,32.1c6.13,1.2,12.38,2,18.38,3.68c14.63,4.09,27.14,11.94,37.66,22.87
		c11.28,11.73,18.71,25.61,22.13,41.53c3.33,15.46,2.58,30.8-2.56,45.76c-7.16,20.84-20.37,36.86-39.56,47.73
		c-15.95,9.03-33.14,12.5-51.39,10.54c-21.88-2.35-40.21-11.81-54.95-28.04c-11.43-12.57-18.48-27.37-21.1-44.22
		c-2.91-18.69-0.14-36.5,8.61-53.24c9.94-19.03,25.01-32.54,44.94-40.57c7.69-3.1,15.7-4.94,23.96-5.66
		c0.5-0.04,0.99-0.25,1.49-0.37C121.6,32.1,125.74,32.1,129.87,32.1z M123.63,47.79c-39.22,0.3-70.54,31.48-70.58,70.8
		c-0.05,39.01,32.11,70.82,70.93,70.47c38.74-0.35,70.25-31.05,70.29-70.56C194.3,78.83,162.49,48.01,123.63,47.79z"/>
	<path class="st2" d="M61.54,188.8c34.28,31.16,90.23,31.2,124.66-0.09c2,4.52,3.97,8.97,5.94,13.43
		c9.39,21.19,18.79,42.37,28.12,63.59c0.57,1.29,0.51,2.85,0.74,4.29c-1.38-0.22-2.87-0.19-4.14-0.69
		c-10.85-4.29-21.66-8.69-32.49-13.04c-4.89-1.97-6.58-1.2-8.41,3.73c-4.09,11.02-8.19,22.04-12.28,33.06
		c-0.15,0.4-0.21,0.87-0.46,1.19c-0.6,0.75-1.3,1.44-1.95,2.15c-0.61-0.67-1.45-1.24-1.81-2.02c-2.81-6.17-5.53-12.38-8.28-18.58
		c-8.73-19.7-17.45-39.4-26.19-59.1c-0.3-0.67-0.66-1.31-1.18-2.35c-0.62,1.27-1.08,2.14-1.48,3.05
		c-11.16,25.19-22.3,50.4-33.5,75.57c-0.56,1.26-1.62,2.3-2.44,3.44c-0.84-1.19-1.97-2.28-2.47-3.6
		c-4.16-10.99-8.21-22.03-12.3-33.05c-1.69-4.55-3.54-5.39-8.1-3.56c-10.91,4.37-21.82,8.77-32.73,13.16
		c-0.32,0.13-0.63,0.32-0.96,0.36c-1.06,0.13-2.13,0.2-3.19,0.3c0.09-1.12-0.12-2.37,0.31-3.34c11.24-25.53,22.55-51.03,33.86-76.54
		C61.02,189.68,61.29,189.26,61.54,188.8z"/>
	<path class="st2" d="M123.71,53.95c-35.51,0-64.3,28.79-64.3,64.3s28.79,64.3,64.3,64.3s64.3-28.79,64.3-64.3
		S159.22,53.95,123.71,53.95z M154.14,161.72h-60.6v-7.89l10.08-9.78c24.24-23.07,35.19-35.34,35.34-49.65
		c0-9.64-4.67-18.55-18.84-18.55c-8.62,0-15.77,4.38-20.15,8.03l-4.09-9.05c6.57-5.55,15.92-9.64,26.87-9.64
		c20.44,0,29.06,14.02,29.06,27.6c0,17.52-12.7,31.69-32.71,50.96l-7.59,7.01v0.29h42.64V161.72z"/>
</g>
</svg>
