<?xml version="1.0" encoding="utf-8"?>
<!-- Generator: Adobe Illustrator 27.1.1, SVG Export Plug-In . SVG Version: 6.00 Build 0)  -->
<svg version="1.1" id="Layer_1" xmlns="http://www.w3.org/2000/svg" xmlns:xlink="http://www.w3.org/1999/xlink" x="0px" y="0px"
	 viewBox="0 0 248 343" style="enable-background:new 0 0 248 343;" xml:space="preserve">
<style type="text/css">
	.st0{fill:#233F94;}
</style>
<path class="st0" d="M129.95,27.54c6.13,1.2,12.38,2,18.38,3.68c14.63,4.09,27.14,11.94,37.66,22.87
	c11.28,11.73,18.71,25.61,22.13,41.53c3.33,15.46,2.58,30.8-2.56,45.76c-7.16,20.84-20.37,36.86-39.56,47.73
	c-15.95,9.03-33.14,12.5-51.39,10.54c-21.88-2.35-40.21-11.81-54.95-28.04c-11.43-12.57-18.48-27.37-21.1-44.22
	c-2.91-18.69-0.14-36.5,8.61-53.24c9.94-19.03,25.01-32.54,44.94-40.57c7.69-3.1,15.7-4.94,23.96-5.66c0.5-0.04,0.99-0.25,1.49-0.37
	C121.69,27.54,125.82,27.54,129.95,27.54z M123.71,43.23c-39.22,0.3-70.54,31.48-70.58,70.8c-0.05,39.01,32.11,70.82,70.93,70.47
	c38.74-0.35,70.25-31.05,70.29-70.56C194.39,74.28,162.58,43.45,123.71,43.23z"/>
<path class="st0" d="M61.26,184.25c34.28,31.16,90.23,31.2,124.66-0.09c2,4.52,3.97,8.97,5.94,13.43
	c9.39,21.19,18.79,42.37,28.12,63.59c0.57,1.29,0.51,2.85,0.74,4.29c-1.38-0.22-2.87-0.19-4.14-0.69
	c-10.85-4.29-21.66-8.69-32.49-13.04c-4.89-1.97-6.58-1.2-8.41,3.73c-4.09,11.02-8.19,22.04-12.28,33.06
	c-0.15,0.4-0.21,0.87-0.46,1.19c-0.6,0.75-1.3,1.44-1.95,2.15c-0.61-0.67-1.45-1.24-1.81-2.02c-2.81-6.17-5.53-12.38-8.28-18.58
	c-8.73-19.7-17.45-39.4-26.19-59.1c-0.3-0.67-0.66-1.31-1.18-2.35c-0.62,1.27-1.08,2.14-1.48,3.05
	c-11.16,25.19-22.3,50.4-33.5,75.57c-0.56,1.26-1.62,2.3-2.44,3.44c-0.84-1.19-1.97-2.28-2.47-3.6
	c-4.16-10.99-8.21-22.03-12.3-33.05c-1.69-4.55-3.54-5.39-8.1-3.56c-10.91,4.37-21.82,8.77-32.73,13.16
	c-0.32,0.13-0.63,0.32-0.96,0.36c-1.06,0.13-2.13,0.2-3.19,0.3c0.09-1.12-0.12-2.37,0.31-3.34c11.24-25.53,22.55-51.03,33.86-76.54
	C60.74,185.13,61.01,184.7,61.26,184.25z"/>
<path class="st0" d="M123.8,51.34c-34.53,0-62.52,27.99-62.52,62.52s27.99,62.52,62.52,62.52c34.53,0,62.52-27.99,62.52-62.52
	S158.33,51.34,123.8,51.34z M118.85,162.72c-10.62,0-19.92-3.35-24.58-6.4l3.49-9.89c3.64,2.33,12.07,5.96,20.94,5.96
	c16.43,0,21.52-10.47,21.38-18.32c-0.15-13.23-12.07-18.91-24.43-18.91h-7.13v-9.6h7.13c9.31,0,21.09-4.8,21.09-16
	c0-7.56-4.8-14.25-16.58-14.25c-7.56,0-14.83,3.34-18.91,6.25l-3.34-9.31c4.94-3.64,14.54-7.27,24.72-7.27
	c18.62,0,27.05,11.05,27.05,22.54c0,9.74-5.82,18.03-17.45,22.25v0.29c11.63,2.33,21.09,11.05,21.09,24.29
	C153.32,149.49,141.54,162.72,118.85,162.72z"/>
</svg>
