<?xml version="1.0" encoding="utf-8"?>
<!-- Generator: Adobe Illustrator 27.1.1, SVG Export Plug-In . SVG Version: 6.00 Build 0)  -->
<svg version="1.1" id="Layer_1" xmlns="http://www.w3.org/2000/svg" xmlns:xlink="http://www.w3.org/1999/xlink" x="0px" y="0px"
	 viewBox="0 0 248 343" style="enable-background:new 0 0 248 343;" xml:space="preserve">
<style type="text/css">
	.st0{fill:#233F94;enable-background:new    ;}
	.st1{enable-background:new    ;}
	.st2{fill:#233F94;}
	.st3{fill:#767CB9;}
	.st4{fill:#8A8FC4;}
	.st5{fill:#9599C8;}
	.st6{fill:#C0C3E1;}
	.st7{fill:#8287BF;}
	.st8{fill:#243F95;}
	.st9{fill:#ECC61C;}
	.st10{fill:#FCDA79;}
	.st11{fill:#ED2D24;}
	.st12{fill:#98AFB3;}
	.st13{fill:#BF2126;}
	.st14{fill:#256C91;}
	.st15{fill:#F3954E;}
	.st16{fill:#AFBECF;}
	.st17{fill:#E7753E;}
	.st18{fill:#F9B37A;}
	.st19{fill:#7A8C8F;}
	.st20{fill:#D8E6E7;}
	.st21{fill:#5561A8;}
	.st22{fill:#8287C0;}
</style>
<path class="st2" d="M122.41,87.6c3.72,0,7.44,0,11.15,0c0.47,0.11,0.94,0.27,1.42,0.31c8.06,0.57,15.84,2.4,23.35,5.33
	c35.24,13.77,57.1,48.95,53.23,87.11c-1.37,13.47-5.59,26.07-13.33,37.2c-19.87,28.58-47.32,41-81.89,37.19
	c-12.43-1.37-23.91-5.89-34.31-12.87c-20.61-13.85-33.02-33.05-37.06-57.59c-0.39-2.36-0.65-4.74-0.97-7.11c0-3.72,0-7.44,0-11.15
	c0.26-2.05,0.48-4.1,0.78-6.15c1.81-12.37,5.97-23.89,12.96-34.28c13.85-20.6,33.05-32.99,57.58-37.02
	C117.66,88.17,120.04,87.91,122.41,87.6z M138.49,203.08c0-0.75,0-1.34,0-1.93c0-11.37,0.01-22.73-0.01-34.1
	c0-3.79-2.12-5.95-5.85-5.97c-6.61-0.03-13.22-0.03-19.83,0c-3.38,0.01-5.75,2.17-5.8,5.18c-0.05,3.05,2.38,5.28,5.83,5.32
	c1.51,0.02,3.02,0,4.53,0c0,10.6,0,21,0,31.49c-1.7,0-3.27-0.04-4.85,0.01c-3.21,0.09-5.56,2.37-5.51,5.31
	c0.04,2.89,2.33,5.16,5.47,5.17c10.33,0.05,20.65,0.04,30.98,0c3.21-0.01,5.56-2.35,5.52-5.29c-0.04-2.89-2.33-5.1-5.46-5.19
	C141.93,203.04,140.35,203.08,138.49,203.08z M138.47,140.14c0.07-5.62-4.67-10.42-10.39-10.54c-5.59-0.11-10.42,4.61-10.58,10.35
	c-0.16,5.62,4.75,10.6,10.47,10.62C133.62,150.59,138.4,145.83,138.47,140.14z"/>
</svg>
