<?xml version="1.0" encoding="utf-8"?>
<!-- Generator: Adobe Illustrator 27.1.1, SVG Export Plug-In . SVG Version: 6.00 Build 0)  -->
<svg version="1.1" id="Layer_1" xmlns="http://www.w3.org/2000/svg" xmlns:xlink="http://www.w3.org/1999/xlink" x="0px" y="0px"
	 viewBox="0 0 248 343" style="enable-background:new 0 0 248 343;" xml:space="preserve">
<style type="text/css">
	.st0{fill:#233F94;enable-background:new    ;}
	.st1{enable-background:new    ;}
	.st2{fill:#233F94;}
	.st3{fill:#767CB9;}
	.st4{fill:#8A8FC4;}
	.st5{fill:#9599C8;}
	.st6{fill:#C0C3E1;}
	.st7{fill:#8287BF;}
	.st8{fill:#243F95;}
	.st9{fill:#ECC61C;}
	.st10{fill:#FCDA79;}
	.st11{fill:#ED2D24;}
	.st12{fill:#98AFB3;}
	.st13{fill:#BF2126;}
	.st14{fill:#256C91;}
	.st15{fill:#F3954E;}
	.st16{fill:#AFBECF;}
	.st17{fill:#E7753E;}
	.st18{fill:#F9B37A;}
	.st19{fill:#7A8C8F;}
	.st20{fill:#D8E6E7;}
	.st21{fill:#5561A8;}
	.st22{fill:#8287C0;}
</style>
<path class="st2" d="M222,180.75c0-1.67,0-3.34,0-5.01c-1.03-0.96-1.19-1.94-0.1-2.97c0.13-4.86-0.73-9.62-1.64-14.36
	c-9.84-51.36-59.99-87.47-114.57-76.83c-49.72,9.69-88.03,58.75-76.37,115.29c10.99,53.29,62.79,87.05,115.86,75.49
	c30.44-6.63,52.8-24.43,66.97-52.25c5.81-11.4,9.09-23.57,9.75-36.39C220.82,182.69,220.98,181.71,222,180.75z M167.99,195.55
	c-1.13,0.2-2.32,0.15-3.48,0.15c-12.48,0.01-24.97,0-37.45,0c-0.83,0-1.67,0.03-2.5-0.04c-3.66-0.33-6.15-2.76-6.49-6.37
	c-0.11-1.16-0.05-2.33-0.05-3.49c0-10.49,0-20.97,0-31.46c0-10.32,0-20.64,0-30.96c0-1.17-0.06-2.34,0.03-3.49
	c0.3-3.73,2.86-6.23,6.41-6.36c3.65-0.13,6.34,2.1,6.83,5.83c0.21,1.64,0.17,3.32,0.17,4.98c0.01,16.98,0.01,33.96,0.01,50.94
	c0,1.17-0.02,2.33,0.01,3.5c0.07,3.19,0.16,3.33,3.43,3.34c9.49,0.03,18.98,0,28.46,0.03c1.66,0.01,3.35,0.02,4.96,0.35
	c3.14,0.64,5.24,3.31,5.31,6.4C173.7,192.01,171.27,194.96,167.99,195.55z"/>
<polygon class="st2" points="221.9,172.77 221.9,183.73 219.59,181.41 219.59,174 "/>
</svg>
