<?xml version="1.0" encoding="utf-8"?>
<!-- Generator: Adobe Illustrator 27.1.1, SVG Export Plug-In . SVG Version: 6.00 Build 0)  -->
<svg version="1.1" id="Layer_1" xmlns="http://www.w3.org/2000/svg" xmlns:xlink="http://www.w3.org/1999/xlink" x="0px" y="0px"
	 viewBox="0 0 248 343" style="enable-background:new 0 0 248 343;" xml:space="preserve">
<style type="text/css">
	.st0{fill:#233F94;enable-background:new    ;}
	.st1{enable-background:new    ;}
	.st2{fill:#233F94;}
	.st3{fill:#767CB9;}
	.st4{fill:#8A8FC4;}
	.st5{fill:#9599C8;}
	.st6{fill:#C0C3E1;}
	.st7{fill:#8287BF;}
	.st8{fill:#243F95;}
	.st9{fill:#ECC61C;}
	.st10{fill:#FCDA79;}
	.st11{fill:#ED2D24;}
	.st12{fill:#98AFB3;}
	.st13{fill:#BF2126;}
	.st14{fill:#256C91;}
	.st15{fill:#F3954E;}
	.st16{fill:#AFBECF;}
	.st17{fill:#E7753E;}
	.st18{fill:#F9B37A;}
	.st19{fill:#7A8C8F;}
	.st20{fill:#D8E6E7;}
	.st21{fill:#5561A8;}
	.st22{fill:#8287C0;}
</style>
<path class="st0" d="M80,28.27c3,0.27,5.66,0.51,8.33,0.74c0.33,0.03,0.66,0.03,1,0.03c3.81,0,7.63,0.03,11.44-0.01
	c1.79-0.02,3.58-0.22,5.37-0.26c2.2-0.05,4.41-0.1,6.61,0.01c4.46,0.22,8.92,0.64,13.38,0.79c2.93,0.1,5.88-0.16,8.82-0.21
	c0.94-0.02,1.88,0.15,2.81,0.14c1.5-0.02,3-0.23,4.49-0.15c3.65,0.21,7.3,0.51,10.95,0.86c1.14,0.11,1.22,1.22,1.27,2.07
	c0.16,2.59,0.2,5.19,0.31,7.79c0.07,1.55,0.25,3.1,0.26,4.65c0,1.46-0.26,2.91-0.24,4.37c0.05,5.17,0.13,10.35,0.29,15.51
	c0.08,2.44,0.47,4.87,0.52,7.31c0.05,2.56-0.27,5.12-0.22,7.67c0.05,2.63,0.33,5.25,0.51,7.88c0.03,0.43,0.02,0.85,0.03,1.28
	c0.07,2.69,0.11,5.38,0.26,8.06c0.03,0.51,0.36,1.16,0.77,1.46c2.04,1.49,1.27,3.49,0.89,5.26c-0.39,1.81-0.08,3.01,1.29,4.37
	c0.87,0.86,0.92,2.53,1.37,3.83c0.16,0.46,0.29,1.1,0.63,1.3c4.29,2.55,4.4,6.4,3.52,10.66c-0.36,1.73-0.58,3.5-0.7,5.27
	c-0.04,0.61,0.38,1.27,0.65,1.88c0.4,0.89,1.28,1.78,1.21,2.61c-0.25,2.74,1.58,4.49,2.8,6.48c1.87,3.08,4.25,5.87,5.98,9.02
	c1.59,2.9,2.59,6.12,3.88,9.19c0.65,1.54,1.46,3.02,2,4.6c0.59,1.75,0.99,3.57,1.4,5.37c0.34,1.49,0.53,3.01,0.87,4.51
	c0.69,3.08,0.18,5.72-2.39,7.84c-0.6,0.49-0.93,1.39-1.22,2.17c-0.48,1.27-0.82,2.6-1.25,3.89c-0.11,0.34-0.35,0.63-0.55,0.94
	c-0.98,1.55-2.15,3.01-2.9,4.66c-1.01,2.23-2.32,4.2-3.98,5.97c-0.38,0.41-0.49,1.07-0.84,1.52c-1.8,2.33-1.06,5.2-1.73,7.75
	c-0.44,1.69-0.97,3.37-3.28,3.81c-1.54,0.3-2.86,1.2-2.78,3.48c0.07,2.2-1.74,3.92-2.89,5.75c-0.95,1.5-1.94,2.99-2.79,4.54
	c-0.81,1.48-1.56,3.02-2.16,4.59c-0.68,1.76-1.41,3.56-1.67,5.4c-0.41,2.83-0.49,5.71-0.61,8.58c-0.05,1.31,0.39,2.65,0.21,3.93
	c-0.45,3.39-0.56,6.78-0.52,10.18c0.06,4.62,0.28,9.24,0.25,13.86c-0.02,3.16-0.37,6.32-0.52,9.49c-0.04,0.83-0.4,1.09-1.16,1.03
	c-0.33-0.02-0.67,0-1,0c-20.68,0-41.35,0-62.03,0c-2.66,0-2.9-0.39-2.54-3.06c0.39-2.88,0.68-5.78,0.84-8.68
	c0.2-3.68,0.22-7.38,0.31-11.07c0.03-1.25-0.04-2.5,0.01-3.74c0.15-3.39,0.44-6.77,0.49-10.16c0.02-1.62-0.32-3.25-0.62-4.85
	c-0.36-1.96-0.97-3.88-1.25-5.85c-0.16-1.09,0.16-2.24,0.22-3.36c0.05-0.91-0.48-1.44-1.12-2.08c-0.95-0.96-1.62-2.22-2.29-3.42
	c-0.53-0.96-0.76-2.08-1.3-3.03c-1.14-2.01-2.31-4.02-3.65-5.91c-1.15-1.62-1.91-3.26-1.94-5.28c-0.02-1.32-1.3-1.59-2.22-1.95
	c-2.85-1.12-3.93-2.75-4.07-5.88c-0.07-1.69-0.37-3.33-0.97-5.01c-0.66-1.86-2.19-2.86-3.03-4.43c-1.13-2.11-2.17-4.26-3.27-6.39
	c-0.17-0.33-0.36-0.69-0.65-0.9c-1.67-1.23-1.92-3.2-2.61-4.94c-0.65-1.62-1.16-3.29-2.54-4.55c-1.8-1.64-1.99-3.75-1.48-6.03
	c0.49-2.18,0.71-4.43,1.34-6.57c0.91-3.1,1.97-6.17,3.15-9.18c1.1-2.8,2.28-5.58,3.71-8.23c1.1-2.04,2.68-3.81,3.95-5.76
	c1.54-2.38,2.98-4.81,4.42-7.25c0.22-0.38,0.3-0.9,0.29-1.35c-0.03-1.42,0.29-2.66,1.31-3.73c1.27-1.34,0.5-2.9,0.34-4.4
	c-0.28-2.65-0.68-5.31-0.74-7.97c-0.04-1.98,1.25-3.57,2.75-4.67c1.36-1,1.84-2.17,2.11-3.71c0.16-0.91,0.6-1.98,1.27-2.54
	c1.52-1.26,1.37-2.76,1.09-4.36c-0.13-0.73-0.23-1.47-0.43-2.19c-0.48-1.75,1.32-2.56,1.62-3.98c0.06-0.28,0.35-0.53,0.37-0.81
	c0.13-1.83,0.17-3.67,0.31-5.5c0.24-3.02,0.55-6.03,0.79-9.05c0.04-0.54-0.21-1.1-0.22-1.65c-0.03-2.29,0.02-4.59-0.02-6.88
	c-0.04-1.93-0.27-3.86-0.25-5.79c0.02-2.94,0.29-5.88,0.24-8.82c-0.08-4.58-0.32-9.15-0.55-13.72c-0.12-2.3-0.52-4.59-0.52-6.88
	C79.55,33.84,79.83,31.22,80,28.27z M92.65,119.61c-0.23,0.27-0.28,0.3-0.28,0.34c-0.02,0.14-0.04,0.28-0.05,0.42
	c-0.22,2.59-0.49,5.16-3.13,6.61c-0.57,0.31-1.25,0.55-1.66,1.01c-1.46,1.64-3.71,2.86-2.94,5.72c0.38,1.41-0.2,2.54-1.6,3.24
	c-0.67,0.33-1.43,0.82-1.74,1.44c-0.72,1.44-1.51,2.97-1.66,4.52c-0.16,1.64-1.09,2.72-1.78,4.01c-0.48,0.9-1.23,1.74-1.4,2.69
	c-0.44,2.43-0.49,4.94-0.96,7.37c-0.35,1.84-0.58,3.82-2.24,5.15c-0.31,0.25-0.56,0.8-0.53,1.2c0.15,2.76-0.24,5.38-1.34,7.96
	c-0.38,0.88-0.42,2.04,0.81,2.95c2.41,1.78,4.35,4.01,5.11,7.09c0.42,1.68,2.22,2.92,3.89,2.86c1.66-0.06,2.92,0.42,3.53,2.11
	c0.12,0.33,0.47,0.59,0.76,0.84c1.95,1.68,3.93,3.34,5.87,5.03c2.56,2.24,5.54,3.56,8.9,3.97c1.13,0.14,2.33-0.25,3.47-0.12
	c1.6,0.18,1.64,0.12,1.83-1.51c0.43-3.67-0.92-6.96-1.95-10.31c-3.51-0.13-4.48-1.33-4.09-4.95c0.02-0.23-0.08-0.46-0.07-0.69
	c0.02-0.96,0.05-1.93,0.11-2.89c0.04-0.6,0.28-1.21,0.22-1.79c-0.35-3.44-1.16-6.89,0.06-10.3c1-2.79,1.65-5.79,4.22-7.73
	c1.46-1.1,2.79-2.47,4.4-3.25c1.88-0.92,3.97-1.57,6.04-1.92c2.94-0.49,5.95-0.26,8.75,0.8c3.54,1.35,6.56,3.53,8.9,6.56
	c0.55,0.72,1.35,1.43,1.5,2.24c0.76,4.18,1,8.39,0.15,12.6c-0.06,0.31,0,0.86,0.19,0.98c1.76,1.06,1.42,2.79,1.38,4.36
	c-0.03,1.39-0.4,2.77-0.5,4.16c-0.13,1.97-1.03,2.87-3.01,2.93c-0.49,0.01-1.2,0.05-1.41,0.36c-0.55,0.81-1.21,1.75-1.25,2.67
	c-0.15,3.23-0.06,6.46-0.06,10.09c1.07-0.15,1.98-0.3,2.89-0.4c0.7-0.08,1.48-0.3,2.1-0.09c2.17,0.74,4.02-0.24,5.8-1.07
	c1.77-0.82,3.89-1.27,4.84-3.34c0.05-0.12,0.2-0.21,0.32-0.28c2.68-1.66,5.12-3.57,6.86-6.27c0.15-0.24,0.51-0.44,0.81-0.48
	c0.92-0.15,1.87-0.14,2.78-0.34c0.59-0.13,1.29-0.38,1.65-0.82c0.67-0.8,1.18-1.76,1.65-2.7c0.43-0.87,0.71-1.81,1.08-2.7
	c0.78-1.86,2.57-2.8,4-3.98c1.06-0.88,1.17-1.82,0.84-2.68c-1.04-2.63-1.5-5.28-1.38-8.1c0.02-0.59-0.58-1.21-0.91-1.81
	c-0.43-0.78-1.1-1.5-1.27-2.33c-0.5-2.41-0.78-4.87-1.19-7.3c-0.22-1.32-0.15-2.95-0.91-3.85c-1.67-1.98-2.49-4.2-3.07-6.61
	c-0.43-1.78-0.85-3.51-2.84-4.36c-1.43-0.61-2.04-1.84-1.74-3.44c0.04-0.23-0.05-0.49,0.02-0.71c0.44-1.46-0.15-2.22-1.3-3.29
	c-1.6-1.49-3.41-2.63-5.04-4.04c-0.38-0.33-0.69-0.89-0.78-1.39c-0.32-1.78-0.52-3.59-0.78-5.42c-0.98-0.12-2-0.35-3.02-0.36
	c-13.19-0.12-26.38-0.21-39.58-0.3c-0.76-0.01-1.52,0.01-2.28-0.03C96.58,119.85,94.52,119.72,92.65,119.61z"/>
</svg>
