<?xml version="1.0" encoding="utf-8"?>
<!-- Generator: Adobe Illustrator 27.1.1, SVG Export Plug-In . SVG Version: 6.00 Build 0)  -->
<svg version="1.1" id="Layer_1" xmlns="http://www.w3.org/2000/svg" xmlns:xlink="http://www.w3.org/1999/xlink" x="0px" y="0px"
	 viewBox="0 0 612 792" style="enable-background:new 0 0 612 792;" xml:space="preserve">
<style type="text/css">
	.st0{fill:#FFC628;}
	.st1{fill:#233E94;}
	.st2{fill:#243F94;}
	.st3{fill:#253F95;}
	.st4{fill:#264095;}
	.st5{fill:#284196;}
	.st6{fill:#2A4396;}
	.st7{fill:#7E7B65;}
	.st8{fill:#6C71B1;}
	.st9{fill:#FFFFFF;}
	.st10{fill:#8587BE;}
	.st11{fill:#FFC629;}
	.st12{fill:#3F5782;}
	.st13{fill:#FFCE50;}
	.st14{fill:#CEAF61;}
	.st15{fill:#4E5C9A;}
	.st16{fill:#5660A6;}
</style>
<g>
	<path class="st1" d="M256.85,331.1c-2.73-5.34-5.5-10.66-8.19-16.02c-3.42-6.84-6.78-13.71-10.16-20.57
		c-1.01-2.06-2.02-4.12-2.99-6.2c-0.37-0.79-0.55-1.62-0.53-2.53c0.05-2.39-0.01-4.79-0.02-7.18c0.01-1.94,0.13-3.9,0-5.83
		c-0.12-1.69-0.18-3.55-2.28-4.22c-0.58-0.19-1.18-0.32-1.77-0.48c-0.31-0.27-0.62-0.3-0.94-0.01l-0.01,0.06
		c-0.71,0-1.42,0-2.13,0.01c0,0-0.01-0.06-0.01-0.06c-0.63-0.32-1.27-0.3-1.91-0.02c-0.08,0.03-0.15,0.05-0.23,0.08
		c-1.19-0.02-2.39-0.07-3.58-0.05c-0.55,0.01-0.74-0.15-0.77-0.73c-0.12-2.36-0.14-2.35,2.22-2.36c1.19,0,2.39-0.02,3.58-0.04
		c0.34,0,0.68,0,1.02,0c0.7,0,1.39,0,2.09,0c1.31,0.01,2.63,0.04,3.94,0.04c8.99-0.01,17.99-0.02,26.98-0.04
		c5.76,0.01,11.51-0.05,17.26,0.07c4.35,0.09,8.64,0.7,12.85,1.88c8.32,2.34,15.54,6.49,21.4,12.88c3.74,4.08,6.55,8.73,8.44,13.97
		c1.1,3.03,1.97,6.11,2.51,9.26c0.68,3.93,1.03,7.92,0.93,11.93c-0.07,2.79,0.06,5.59-0.03,8.38c-0.16,5.08-0.8,10.1-2.48,14.94
		c-0.22,0.62-0.33,1.28-0.53,2.04c0.5,0,0.93,0,1.36,0c8.79-0.01,17.58-0.09,26.36-0.02c5.86,0.05,11.66,0.66,17.24,2.61
		c6.85,2.4,12.48,6.32,15.27,13.3c1.63,4.08,2.14,8.33,1.46,12.81c-1.15,7.58-5.53,12.53-11.95,16.14
		c-4.43,2.48-9.2,3.83-14.14,4.71c-0.36,0.07-0.67,0.18-1.07,0.45c2.56,0.48,5.05,0.83,7.48,1.49c8.68,2.38,16.51,6.08,21.43,14.11
		c2.59,4.23,3.48,8.95,3.19,13.86c-0.25,4.23-1.13,8.34-3.34,12.06c-3.52,5.93-8.84,9.57-15.14,11.99
		c-3.77,1.44-7.69,2.28-11.66,2.82c-2.46,0.33-4.95,0.52-7.45,0.51c-15.94-0.03-31.88-0.03-47.82,0.01c-1.1,0-1.42-0.28-1.36-1.37
		c0.09-1.73,0.02-1.74,1.78-1.74c2.48,0,4.95,0.04,7.43-0.01c2.41-0.05,4.14-1.07,4.27-4.2c0.48-12.36,0.14-24.73,0.19-37.1
		c0.08-16.5,0.02-33,0.02-49.49c0-0.43,0-0.86,0-1.35c-0.74,0.27-0.95,0.92-1.35,1.37c-3.75,4.19-8.15,7.5-13.08,10.19
		c-6.57,3.59-13.64,5.7-20.91,7.21c-1.63,0.34-2.11,0.11-2.89-1.37c-0.53-1.01-1.03-2.04-1.59-3.03c-0.35-0.61-0.2-0.76,0.46-0.89
		c3.76-0.74,7.28-2.09,10.34-4.47c4.49-3.49,7.44-8.05,9.41-13.35c1.27-3.43,2.07-6.96,2.57-10.55c0.39-2.81,0.57-5.66,0.6-8.5
		c0.08-7.03,0.1-14.06,0-21.09c-0.09-6.01-0.78-11.97-2.68-17.72c-2.24-6.77-5.95-12.49-12.21-16.23
		c-3.64-2.18-7.61-3.26-11.86-3.46c-1.77-0.08-3.52-0.37-5.28,0.06c-0.98-0.11-1.9,0.14-2.8,0.48c-0.74-0.05-1.36,0.24-1.95,0.63
		c-1.81,0.64-3.2,1.79-4.07,3.5c-0.5,0.99-1.14,2-0.45,3.17c0,5.78,0,11.56,0,17.34c-0.02,0.07-0.04,0.14-0.07,0.22
		c-0.05,0.1-0.1,0.19-0.15,0.29c-0.01,0.52-0.03,1.03-0.03,1.55c0,10.83,0,21.66-0.01,32.49
		C257.04,330.19,257.23,330.69,256.85,331.1z M343.7,444.03c2.12,0.19,4.17-0.17,6.2-0.73c5.66-1.54,9.84-4.81,12-10.38
		c1.69-4.36,2.04-8.96,2.27-13.57c0.1-2.01-0.07-4.03-0.17-6.05c-0.16-3.16-0.57-6.23-1.45-9.28c-1.64-5.64-5.49-9.03-10.89-10.69
		c-4.34-1.34-8.82-1.99-13.4-2.08c-1.07-0.02-1.05,0.29-1.05,1.06c0.02,14.93,0.01,29.86,0.03,44.79c0,1.2-0.19,2.39,0.08,3.61
		c0.34,1.55,1.32,2.63,2.84,3.12C341.35,444.22,342.53,443.89,343.7,444.03z M337.23,368.85
		C337.23,368.85,337.23,368.85,337.23,368.85c-0.01,1.04-0.01,2.08-0.01,3.12c0,5.43,0,10.86,0.01,16.29c0,0.51-0.21,1.14,0.76,1.09
		c3.97-0.2,7.93-0.46,11.76-1.62c4.48-1.36,7.96-3.86,9.72-8.39c1.67-4.31,1.67-8.87,1.72-13.35c0.02-2.08-0.03-4.24-0.31-6.37
		c-0.42-3.22-0.89-6.38-2.46-9.27c-2.37-4.37-6.08-6.71-11.02-6.95c-2.29-0.11-4.61-0.14-6.9,0.18c-1.19,0.17-2.13,0.69-2.66,1.78
		c-0.63,1.29-0.66,2.66-0.65,4.08C337.27,355.91,337.23,362.38,337.23,368.85z"/>
	<path class="st0" d="M225.66,268.13c0.08-0.03,0.15-0.05,0.23-0.08c0.64,0.01,1.28,0.01,1.91,0.02c0,0,0.01,0.06,0.01,0.06
		c0.11,4.81,1.24,9.43,2.78,13.95c1.8,5.25,4.34,10.18,6.8,15.13c13.67,27.54,27.91,54.78,42.14,82.04
		c5.48,10.5,10.98,20.98,16.49,31.47c0.34,0.64,0.41,1.22,0.2,1.93c-1.99,6.74-3.93,13.5-5.9,20.25c-1.33,4.56-2.68,9.12-4.05,13.75
		c-0.42-0.24-0.52-0.63-0.69-0.95c-17.94-33.68-35.9-67.35-53.78-101.06c-4.26-8.04-7.76-16.43-10.71-25.05
		c-1.22-3.56-2.28-7.17-3.05-10.85c-0.7-3.37-0.73-6.79-0.58-10.22c0.31-7.34,1.87-14.41,4.48-21.26
		C223.12,274.19,224.42,271.17,225.66,268.13z"/>
	<path class="st0" d="M243.46,370.85c1.38,2.56,2.73,5.13,4.14,7.66c0.35,0.62,0.07,1.05-0.16,1.54
		c-4.64,9.77-9.27,19.55-13.91,29.32c-6.41,13.51-12.83,27.02-19.24,40.53c-0.08,0.18-0.2,0.34-0.29,0.51
		c-0.47-0.05-0.41-0.48-0.49-0.72c-3.71-10.82-7.39-21.64-11.13-32.45c-0.34-0.99-0.25-1.76,0.18-2.69
		c6.66-14.22,13.29-28.46,19.92-42.7c0.13-0.28,0.21-0.59,0.31-0.89c0,0,0.04-0.07,0.04-0.07c6.76,0,13.53,0,20.29,0.01
		C243.23,370.89,243.34,370.87,243.46,370.85z"/>
	<path class="st0" d="M257.23,295.4c0.02-0.07,0.04-0.14,0.07-0.22c3.56-7.85,6.7-15.81,6.47-24.65c0.9-0.34,1.82-0.59,2.8-0.48
		c1.29,2.82,2.64,5.63,3.86,8.48c2.48,5.77,4.24,11.76,4.98,18c0.32,2.67,0.77,5.35,0.58,8.05c-0.22,3.19-0.71,6.33-1.36,9.48
		c-1.31,6.34-3.38,12.43-5.58,18.49c-1.5,4.12-3.15,8.18-5.07,12.47c-2.37-4.6-4.63-9-6.89-13.39c0.2-0.19,0.18-0.43,0.18-0.67
		c-0.01-11.76-0.02-23.52-0.03-35.29C257.25,295.58,257.24,295.49,257.23,295.4z"/>
	<path class="st0" d="M261.14,264.95c-8.99,0.01-17.99,0.03-26.98,0.04c-1.31,0-2.63-0.02-3.94-0.04c0.85-4.44,2.15-8.49,6.83-10.56
		c6.31-2.78,12.34-2.48,18.23,1.05c0.8,0.48,1.43,1.15,1.97,1.9C258.93,259.68,260.47,262.09,261.14,264.95z"/>
	<path class="st11" d="M224.43,367.78c2.65-5.8,5.31-11.6,8.06-17.62c0.92,1.78,1.74,3.36,2.56,4.94c-0.02,0.24-0.05,0.47-0.07,0.71
		c-0.03,2.89,0.12,5.79-0.2,8.68c-0.16,1.5-1.13,2.78-2.64,3.09C229.59,368.09,227,367.75,224.43,367.78z"/>
	<path class="st1" d="M224.43,367.78c2.57-0.03,5.16,0.31,7.71-0.21c1.52-0.31,2.48-1.59,2.64-3.09c0.32-2.89,0.17-5.78,0.2-8.68
		c0.28-0.11,0.24,0.32,0.48,0.28c0,0-0.01-0.01-0.01-0.01c-0.02,0.22,0,0.41,0.25,0.49l-0.01-0.02c-0.01,0.22,0,0.42,0.25,0.5
		l-0.01-0.02c0.42,1.12,0.97,2.18,1.68,3.14c0,0-0.02-0.01-0.02-0.01c0,0.21,0,0.42,0.26,0.48l-0.01-0.02
		c0.54,1.35,1.19,2.65,2.06,3.82c0.3,0.63,0.59,1.26,0.89,1.89c0.25,0.32,0.23,0.81,0.65,1.02l-0.01-0.02
		c-0.01,0.21-0.01,0.42,0.25,0.5l-0.01-0.02c-0.02,0.22,0.04,0.4,0.26,0.49l-0.01-0.02c0.15,0.81,0.76,1.42,1.01,2.18
		c-0.41,0.37-0.91,0.22-1.37,0.22c-5.84,0.01-11.68,0-17.53,0.02c-0.41,0-0.88-0.19-1.24,0.19c0,0-0.04,0.07-0.04,0.07
		c-0.47-0.14-1.23,0.25-1.36-0.4c-0.17-0.83-0.08-1.73-0.02-2.6c0.02-0.23,0.41-0.14,0.64-0.15
		C222.84,367.8,223.64,367.79,224.43,367.78z"/>
	<path class="st11" d="M230.91,268.07c0.59,0.16,1.19,0.29,1.77,0.48c2.1,0.67,2.16,2.53,2.28,4.22c0.13,1.93,0.01,3.89,0,5.83
		c-1.01,0.39-1.77,1.19-2.79,1.72c-1.28-4-2.23-8-2.21-12.19c0,0,0.01-0.06,0.01-0.06C230.28,268.06,230.59,268.07,230.91,268.07z"
		/>
	<path class="st12" d="M257.25,295.67c0.01,11.76,0.02,23.52,0.03,35.29c0,0.24,0.01,0.48-0.18,0.67c-0.08-0.18-0.17-0.35-0.25-0.53
		c0.38-0.41,0.19-0.91,0.19-1.37c0.01-10.83,0.01-21.66,0.01-32.49c0-0.52,0.02-1.03,0.03-1.55
		C257.14,295.68,257.2,295.68,257.25,295.67z"/>
	<path class="st13" d="M228.13,264.95c-0.34,0-0.68,0-1.02,0c0.48-1.06,0.97-2.12,1.45-3.18c0.06,0.02,0.11,0.05,0.17,0.07
		C228.53,262.87,228.33,263.91,228.13,264.95z"/>
	<path class="st14" d="M239.92,364.44c-0.87-1.17-1.52-2.47-2.06-3.82C238.88,361.72,239.34,363.11,239.92,364.44z"/>
	<path class="st14" d="M237.63,360.16c-0.71-0.97-1.26-2.02-1.68-3.14C236.89,357.87,237.14,359.08,237.63,360.16z"/>
	<path class="st14" d="M242.96,370.47c-0.26-0.77-0.86-1.37-1.01-2.18c0.75,0.53,0.88,1.4,1.19,2.18c0,0-0.03,0.02-0.03,0.02
		C243.06,370.47,243.01,370.46,242.96,370.47z"/>
	<path class="st14" d="M241.47,367.35c-0.42-0.21-0.41-0.7-0.65-1.02C241.18,366.57,241.56,366.81,241.47,367.35z"/>
	<path class="st14" d="M235.47,356.09c-0.24,0.04-0.2-0.39-0.48-0.28c0.02-0.24,0.05-0.47,0.07-0.71
		C235.3,355.38,235.57,355.66,235.47,356.09z"/>
	<path class="st14" d="M235.71,356.56c-0.25-0.08-0.28-0.27-0.25-0.49C235.78,356.12,235.76,356.33,235.71,356.56z"/>
	<path class="st14" d="M235.96,357.04c-0.26-0.08-0.27-0.28-0.25-0.5C235.99,356.61,236.05,356.78,235.96,357.04z"/>
	<path class="st14" d="M237.87,360.64c-0.26-0.07-0.26-0.28-0.26-0.48C237.93,360.19,237.94,360.39,237.87,360.64z"/>
	<path class="st14" d="M241.71,367.83c-0.26-0.08-0.26-0.28-0.25-0.5C241.76,367.39,241.76,367.6,241.71,367.83z"/>
	<path class="st14" d="M241.95,368.3c-0.21-0.1-0.28-0.27-0.26-0.49C241.99,367.87,242.04,368.05,241.95,368.3z"/>
	<path class="st14" d="M243.46,370.85c-0.11,0.02-0.23,0.04-0.34,0.05c0-0.14,0-0.28-0.01-0.42c0,0,0.03-0.02,0.03-0.02
		C243.39,370.47,243.41,370.68,243.46,370.85z"/>
	<path class="st11" d="M261.81,271.16c0.15,2.9-0.35,5.72-1.05,8.6c-1.15-0.64-2.31-1.28-3.47-1.92c-0.7-1.18-0.05-2.19,0.45-3.17
		C258.61,272.95,260,271.8,261.81,271.16z"/>
	<path class="st15" d="M227.8,268.07c-0.64-0.01-1.28-0.01-1.91-0.02C226.53,267.77,227.17,267.74,227.8,268.07z"/>
	<path class="st15" d="M230.91,268.07c-0.31,0-0.63-0.01-0.94-0.01C230.28,267.77,230.59,267.8,230.91,268.07z"/>
	<path class="st16" d="M257.25,295.67c-0.06,0-0.12,0.01-0.17,0.01c0.05-0.1,0.1-0.19,0.15-0.29
		C257.24,295.49,257.25,295.58,257.25,295.67z"/>
	<path class="st12" d="M243.11,370.49c0,0.14,0,0.28,0.01,0.42c-6.76,0-13.53,0-20.29-0.01c0.36-0.38,0.83-0.19,1.24-0.19
		c5.84-0.01,11.68-0.01,17.53-0.02c0.46,0,0.96,0.16,1.37-0.22C243.01,370.46,243.06,370.47,243.11,370.49z"/>
</g>
</svg>
