<?xml version="1.0" encoding="utf-8"?>
<!-- Generator: Adobe Illustrator 27.1.1, SVG Export Plug-In . SVG Version: 6.00 Build 0)  -->
<svg version="1.1" id="Layer_1" xmlns="http://www.w3.org/2000/svg" xmlns:xlink="http://www.w3.org/1999/xlink" x="0px" y="0px"
	 viewBox="0 0 612 792" style="enable-background:new 0 0 612 792;" xml:space="preserve">
<style type="text/css">
	.st0{fill:#FFC628;}
	.st1{fill:#233E94;}
	.st2{fill:#243F94;}
	.st3{fill:#253F95;}
	.st4{fill:#264095;}
	.st5{fill:#284196;}
	.st6{fill:#2A4396;}
	.st7{fill:#7E7B65;}
	.st8{fill:#6C71B1;}
	.st9{fill:#FFFFFF;}
	.st10{fill:#8587BE;}
	.st11{fill:#FFC629;}
	.st12{fill:#3F5782;}
	.st13{fill:#FFCE50;}
	.st14{fill:#CEAF61;}
	.st15{fill:#4E5C9A;}
	.st16{fill:#5660A6;}
</style>
<g>
	<path class="st0" d="M230.82,549c-1.07-2.29-2.04-4.36-3.01-6.44c-20.01-43.08-40.1-86.13-59.99-129.28
		c-6.2-13.45-11.06-27.42-14.38-41.91c-2.34-10.22-1.61-20.28,0.72-30.36c1.99-8.62,5.47-16.65,9.41-24.51
		c1.59-3.18,3.23-6.32,4.86-9.48c0.17-0.34,0.26-0.76,0.78-1.04c-0.36,1.77-0.83,3.4-1.02,5.08c-0.73,6.2,0.08,12.26,1.58,18.27
		c1.91,7.66,5.1,14.85,8.2,22.07c16.62,38.7,34.13,77.01,51.56,115.36c5.51,12.13,11.06,24.24,16.61,36.36
		c0.34,0.73,0.37,1.34,0.09,2.14c-5,14.14-9.96,28.29-14.92,42.43C231.19,548.05,231.04,548.4,230.82,549z"/>
	<path class="st1" d="M190.86,294.46c-0.04-5.95,0.24-11.91-0.34-17.84c-0.66-6.67-2.28-13.05-6.14-18.65
		c-3.77-5.46-8.83-8.96-15.48-10.08c-3.57-0.6-7.1-0.78-10.64,0.03c-1.49,0.34-2.9,0.9-4.1,1.88c-1.46,1.19-2.27,2.64-2.27,4.64
		c0.04,25.54,0.03,51.07,0.01,76.61c0,1.08,0.2,2.07,0.85,2.92c0.41,0.54,0.44,1.03,0.26,1.66c-0.56,1.99-1.1,4-1.55,6.02
		c-0.15,0.66-0.4,0.83-1.03,0.83c-10.43-0.02-20.86-0.02-31.29,0c-0.69,0-0.93-0.22-0.85-0.88c0.03-0.28,0.04-0.56,0-0.84
		c-0.14-0.93,0.2-1.22,1.16-1.2c2.48,0.06,4.96,0.04,7.43-0.02c2.58-0.07,3.71-1.13,4.01-3.65c0.08-0.67,0.11-1.35,0.11-2.03
		c0.01-27.49,0.01-54.99,0-82.48c0-4.42-1.06-5.82-5.62-5.64c-2.04,0.08-4.08-0.02-6.11,0.03c-0.81,0.02-1-0.24-0.99-1.01
		c0.02-1.96-0.01-1.96,1.94-1.96c16.59,0,33.17,0.02,49.76-0.01c8.07-0.01,15.76,1.54,22.91,5.37c11.54,6.17,18.4,15.84,21.14,28.53
		c0.85,3.94,1.19,7.93,1.19,11.96c0,5.53,0.22,11.08-0.68,16.57c-0.24,1.45-0.54,2.88-0.82,4.32c-0.23,0.18-0.17,0.44-0.17,0.68
		c-0.57,1.65-1.14,3.29-1.72,4.94c-2.05,4.49-4.68,8.59-8.08,12.19c-5.54,5.54-12.13,9.35-19.53,11.82
		c-2.31,0.77-4.65,1.39-7.02,1.92c-0.63,0.14-0.85-0.04-1.04-0.56c-0.45-1.23-0.89-2.47-1.43-3.67c-0.35-0.78-0.18-1.13,0.6-1.51
		c4.81-2.39,8.3-6.1,10.74-10.85c0.12-0.2,0.26-0.4,0.37-0.61c2.96-5.94,4.06-12.31,4.34-18.87c0.29-0.73,0.14-1.49,0.16-2.23
		C191.01,299.99,191.15,297.22,190.86,294.46z"/>
	<path class="st1" d="M288.01,404.68c1.07,0.53,2.22,0.56,3.33,0.78c6.36,1.3,12.38,3.38,17.59,7.4c4.28,3.31,7.35,7.48,8.43,12.83
		c2.29,11.27-1.63,22.65-14.31,28.48c-4.79,2.2-9.87,3.31-15.09,3.84c-3.22,0.33-6.44,0.33-9.67,0.33c-13.55,0-27.09,0-40.64-0.01
		c-0.44,0-1.15,0.27-1.26-0.31c-0.15-0.8-0.07-1.67,0.05-2.49c0.04-0.29,0.57-0.14,0.88-0.14c2.48-0.01,4.96,0,7.43-0.01
		c2.93-0.01,4.16-1.17,4.32-4.08c0.05-0.88,0.08-1.75,0.08-2.63c0-27.25,0-54.5,0-81.75c0-0.88-0.03-1.76-0.12-2.63
		c-0.2-2.14-1.28-3.32-3.43-3.43c-2.67-0.14-5.35-0.17-8.02-0.08c-1.42,0.05-1.21-0.72-1.28-1.61c-0.09-1.05,0.24-1.34,1.3-1.34
		c12.71,0.04,25.42,0.04,38.12,0.01c4.31-0.01,8.62-0.2,12.91,0.37c6.83,0.92,13.3,2.79,18.49,7.62c5.03,4.68,6.88,10.65,6.4,17.35
		c-0.63,8.9-5.96,14.34-13.62,17.96c-1.87,0.89-3.83,1.57-5.83,2.13C292.09,403.84,290.06,404.29,288.01,404.68z M276.31,455.36
		c1.39,0.01,2.78,0.06,4.17-0.25c5.51-1.21,9.91-3.86,12.37-9.18c1.93-4.18,2.27-8.65,2.51-13.14c0.19-3.53-0.24-7.04-0.48-10.55
		c-0.46-6.78-4.38-12.11-10.82-14.39c-4.28-1.51-8.75-1.81-13.22-2.2c-1.04-0.09-0.81,0.6-0.81,1.16c0,14.22-0.01,28.43,0,42.65
		c0,0.84,0.04,1.68,0.13,2.51c0.23,2.11,1.39,3.22,3.51,3.37C274.55,455.41,275.43,455.36,276.31,455.36z M270.11,383.77
		c-0.02,0-0.05,0-0.07,0c0,3.79,0,7.59,0,11.38c0,2.64,0,5.27,0,7.91c0,0.47-0.11,0.97,0.69,0.93c3.29-0.2,6.57-0.38,9.79-1.15
		c6.07-1.44,10.06-4.92,11.35-11.2c0.5-2.45,0.5-4.95,0.79-7.42c0.21-1.83-0.32-3.63-0.2-5.46c0.15-2.38-0.24-4.7-0.76-7
		c-1.24-5.43-4.23-9.36-9.82-10.78c-2.49-0.63-5.09-0.26-7.64-0.21c-2.91,0.06-4.08,1.32-4.1,4.29
		C270.07,371.32,270.11,377.55,270.11,383.77z"/>
	<path class="st0" d="M168.11,420.28c2.28,4.9,4.48,9.64,6.68,14.37c3.51,7.56,7.01,15.13,10.56,22.67
		c0.44,0.93,0.41,1.63-0.08,2.54c-15.93,29.25-31.84,58.53-47.75,87.79c-0.17,0.31-0.36,0.6-0.63,1.04
		c-1.34-4.73-2.63-9.28-3.92-13.83c-2.91-10.32-5.81-20.65-8.74-30.96c-0.2-0.69-0.08-1.21,0.24-1.81
		c10.65-19.91,21.29-39.82,31.92-59.74c3.76-7.04,7.47-14.1,11.21-21.15C167.73,420.95,167.87,420.71,168.11,420.28z"/>
	<path class="st1" d="M404.09,449.55c-1.37,1.42-2.51,2.58-3.81,3.55c-3.73,2.79-7.9,4.42-12.53,4.95
		c-4.36,0.5-8.62,0.29-12.52-1.96c-5.96-3.45-8.99-8.69-9.02-15.56c-0.05-13.11-0.01-26.22-0.02-39.33c0-0.36,0.01-0.72-0.01-1.08
		c-0.16-2.45-1.13-3.41-3.6-3.52c-1.04-0.05-2.08-0.09-3.12-0.01c-1.03,0.08-0.82-0.58-0.82-1.15c-0.01-0.58-0.18-1.16,0.84-1.14
		c3.92,0.06,7.83,0.03,11.75,0.03c6.48,0,12.95,0.02,19.43-0.02c0.93-0.01,1.12,0.28,1.11,1.14c-0.01,0.84-0.14,1.31-1.1,1.13
		c-0.27-0.05-0.56-0.01-0.84,0c-2.81,0.1-3.85,1.19-3.85,4c0,14.43,0.13,28.86-0.07,43.28c-0.08,5.47,4.11,8.19,7.95,8.35
		c3.43,0.14,5.96-1.66,8.19-3.99c1.43-1.49,2.09-3.19,2.08-5.39c-0.1-13.75-0.05-27.5-0.05-41.25c0-0.2,0-0.4,0-0.6
		c0-3.52-0.88-4.4-4.37-4.41c-0.2,0-0.4,0-0.6,0c-1.36,0-1.7-0.45-1.38-1.78c0.07-0.29,0.2-0.42,0.46-0.44
		c0.28-0.02,0.56-0.01,0.84-0.01c9.87,0,19.75,0,29.62,0c1.18,0,1.66,0.74,1.26,1.9c-0.15,0.45-0.49,0.33-0.78,0.33
		c-1.12,0.02-2.24-0.02-3.36,0.05c-2.15,0.12-3.08,1.09-3.2,3.24c-0.02,0.36,0,0.72,0,1.08c0,14.43-0.01,28.86,0,43.28
		c0,1.38-0.37,2.76,0.1,4.14c0.49,1.45,1.06,1.96,2.59,1.97c2.84,0.02,5.68,0.04,8.51-0.01c0.77-0.01,0.92,0.22,0.91,0.94
		c-0.01,2.43,0.02,2.37-2.44,2.45c-8.71,0.27-17.3,1.39-25.63,4.04c-0.08,0.02-0.16,0.03-0.23,0.06c-2.14,0.68-2.3,0.57-2.3-1.66
		C404.09,454.04,404.09,451.97,404.09,449.55z"/>
	<path class="st1" d="M308.04,287.08c4.01-4.62,8.85-7.31,14.56-8.34c5.79-1.04,11.41-0.77,16.33,2.98
		c4.53,3.46,6.96,8.06,6.99,13.78c0.05,11.63,0.01,23.26,0.02,34.88c0,1.96,0.02,3.91,0.04,5.87c0.03,2.51,1.28,3.75,3.75,3.75
		c0.92,0,1.85,0.08,2.76-0.02c1.09-0.12,0.85,0.59,0.89,1.19c0.05,0.68-0.02,1.06-0.91,1.05c-10.95-0.04-21.9-0.03-32.85,0
		c-0.92,0-1.01-0.36-1.01-1.12c0.01-0.74,0.05-1.17,1-1.12c1.31,0.07,2.63,0.12,3.94-0.17c1.69-0.38,2.36-1.11,2.54-2.85
		c0.05-0.44,0.05-0.88,0.05-1.31c0-14.39-0.22-28.78,0.1-43.15c0.14-6.26-6.71-9.76-11.63-7.48c-2.11,0.98-3.87,2.37-5.27,4.22
		c-0.89,1.17-1.34,2.43-1.33,3.97c0.05,14.38,0.05,28.77,0.01,43.16c-0.01,2.33,1.45,3.67,3.71,3.65c1-0.01,2,0,3,0
		c0.78-0.01,1.5-0.21,1.49,1.13c-0.01,1.39-0.82,1.07-1.55,1.07c-6.43,0.01-12.87,0-19.3,0c-4,0-7.99-0.02-11.99,0.02
		c-0.88,0.01-1.22-0.14-1.24-1.15c-0.03-1.11,0.5-1.09,1.29-1.08c1.23,0.02,2.48,0.11,3.7-0.17c1.55-0.35,2.27-1.11,2.43-2.68
		c0.06-0.55,0.05-1.12,0.05-1.68c0-14.58,0-29.17,0-43.75c0-0.04,0-0.08,0-0.12c-0.01-3.48-0.58-4.06-4.01-4.06
		c-1.56,0-3.12-0.03-4.68,0.01c-0.69,0.02-1.09-0.12-0.95-0.9c0.03-0.16,0-0.32,0-0.48c0-2.02,0-2.01,2.09-2.03
		c8.03-0.1,15.74-1.65,22.96-5.27c0.63-0.31,1.17-0.75,1.97-0.76c0.81,0,1.09,0.17,1.07,1.04
		C308,281.69,308.04,284.25,308.04,287.08z"/>
	<path class="st1" d="M348.46,403.55c0,15.1,0,30.2,0,45.31c0,0.32-0.01,0.64,0,0.96c0.11,3.07,1.21,4.13,4.29,4.14
		c1.44,0,2.88,0.03,4.32-0.01c0.68-0.02,0.95,0.18,0.87,0.87c-0.04,0.31-0.04,0.64,0,0.96c0.11,0.75-0.21,0.93-0.93,0.93
		c-12.07-0.02-24.13-0.04-36.2,0.02c-1.3,0.01-1.04-0.72-1.05-1.44c-0.01-0.7-0.22-1.44,1.01-1.35c1.55,0.12,3.12,0.06,4.67,0.02
		c2.19-0.05,3.22-0.94,3.57-3.08c0.11-0.66,0.13-1.35,0.13-2.03c0.01-26.85,0.01-53.7,0-80.54c0-0.36,0-0.72-0.02-1.08
		c-0.14-2.29-0.93-3.06-3.21-3.1c-1.92-0.03-3.84-0.05-5.75,0.01c-0.91,0.03-1.13-0.28-1.11-1.16c0.05-2.34,0.01-2.3,2.37-2.35
		c8.55-0.17,16.95-1.19,25.02-4.2c1.59-0.59,2.02-0.25,2.02,1.46C348.46,373.1,348.46,388.33,348.46,403.55z"/>
	<path class="st2" d="M220.75,325.85c1.28-5.19,4.29-9.09,8.8-11.89c2.31-1.44,4.76-2.61,7.35-3.44c3.88-1.25,7.84-2.11,11.94-2.18
		c0.59-0.01,1.18-0.22,1.76-0.17c0.84,0.07,0.97-0.3,0.97-1.03c-0.03-5.91-0.01-11.83-0.02-17.74c0-0.96-0.11-1.91-0.34-2.85
		c-0.79-3.2-3.43-5.55-6.69-6.04c-1.5-0.23-2.98-0.53-4.5-0.37c-5.44,0.56-8.53,3.99-10.74,8.77c1.46,0.08,2.76-0.05,4.04,0.27
		c2.62,0.66,4.63,2.05,5.34,4.76c1.25,4.81-1.39,8.76-6.32,9.5c-6.4,0.96-10.47-3.76-9.87-9.31c0.88-8.09,5.56-13.23,13.18-15.81
		c5.89-2,11.85-1.76,17.84-0.54c2.19,0.45,4.33,1.07,6.38,1.98c5.11,2.26,7.94,6.22,8.83,11.67c0.28,1.7,0.38,3.41,0.38,5.13
		c-0.01,9.91-0.01,19.82,0,29.73c0,2.2,0.07,4.39,0.11,6.59c0,0.28,0.09,0.52,0.17,0.79c1.3,4.34,3.6,5.18,7.43,2.66
		c1.14-0.75,2.13-1.68,3.02-2.71c0.29-0.33,0.59-0.8,0.99-0.2c0.31,0.47,1.38,0.72,0.61,1.6c-3.38,3.89-7.3,6.92-12.54,7.81
		c-2.76,0.47-5.57,0.76-8.32,0.19c-4.47-0.93-6.99-4.03-8.39-8.19c-0.08-0.23-0.12-0.46-0.21-0.69c-0.08-0.21,0.03-0.49-0.32-0.7
		c-0.73,0.85-1.46,1.72-2.22,2.56c-4.2,4.63-9.26,7.4-15.68,7.12c-2.58-0.11-5-0.87-7.19-2.28c-0.33-0.21-0.68-0.4-1.02-0.59
		c0,0,0.01,0.01,0.01,0.01c-0.07-0.08-0.14-0.16-0.21-0.24c-0.14-0.49-0.3-0.98-0.42-1.48C223.85,334.2,222.26,330.04,220.75,325.85
		z M251.55,310.25c-2.17,0.57-4.06,1.3-5.87,2.21c-7.56,3.81-9.61,10.12-7.91,17.39c0.33,1.41,0.96,2.73,2.01,3.75
		c2.33,2.25,4.87,2.88,7.64,0.76c1.34-1.03,2.43-2.29,3.48-3.61c0.47-0.59,0.67-1.2,0.67-1.97c-0.03-4.83-0.02-9.65-0.02-14.48
		C251.55,312.99,251.55,311.68,251.55,310.25z"/>
	<path class="st0" d="M220.75,325.85c1.51,4.19,3.1,8.35,4.17,12.68c0.12,0.5,0.28,0.99,0.42,1.48c0.01,0.13-0.03,0.3,0.21,0.24
		c0,0-0.01-0.01-0.01-0.01c0.03,2,0.65,3.91,1.01,5.85c2.27,12.21,1.2,24.1-2.89,35.83c-3.94,11.28-8.64,22.21-13.98,32.89
		c-0.09,0.18-0.2,0.34-0.31,0.52c-0.49-0.22-0.53-0.7-0.7-1.08c-5.57-12.45-11.12-24.9-16.72-37.34c-0.39-0.86-0.34-1.51,0.08-2.32
		c5.6-10.84,11.31-21.63,16.38-32.73c3.25-7.12,5.52-14.53,6.05-22.4c0.21-3.09-0.17-6.13-0.69-9.16c0.05-0.05,0.1-0.09,0.16-0.13
		c2.31,4.74,4.3,9.62,6.3,14.5C220.37,325.07,220.57,325.46,220.75,325.85z"/>
	<path class="st2" d="M475.15,417.42c-5.48,0-10.95,0.02-16.43-0.02c-0.86-0.01-1.04,0.24-1.04,1.06
		c0.04,6.15-0.01,12.31,0.03,18.46c0.04,6.82,4.28,13.5,10.13,15.63c5.2,1.9,10.25,0.96,15-1.61c4.61-2.49,7.69-6.38,9.61-11.22
		c0.12-0.31-0.04-1.06,0.65-0.81c0.55,0.2,1,0.6,0.77,1.39c-0.87,3.02-2.17,5.83-4.1,8.31c-4.27,5.5-9.97,8.62-16.74,9.81
		c-18.25,3.19-34.45-9.9-36.68-27.21c-1.07-8.31-0.03-16.34,4.33-23.65c4.77-7.98,11.97-12.6,21-14.3
		c6.62-1.24,13.15-0.68,19.3,2.24c6.45,3.06,9.89,8.43,11.25,15.29c0.37,1.85,0.51,3.71,0.51,5.59c0,0.84-0.22,1.06-1.05,1.05
		C486.18,417.41,480.66,417.42,475.15,417.42z M466.4,414.35c2.59,0,5.19,0,7.78,0c0.49,0,0.93,0.07,0.91-0.69
		c-0.08-3.95,0.16-7.9-0.12-11.85c-0.47-6.48-6.58-8.16-11.1-5.91c-2.34,1.17-3.63,3.31-4.49,5.68c-1.42,3.91-1.77,7.97-1.7,12.1
		c0.01,0.67,0.33,0.67,0.81,0.67C461.13,414.34,463.76,414.35,466.4,414.35z"/>
	<path class="st2" d="M471.69,323.91c1.13,0.41,1.26,1.06,0.93,2.09c-2.93,9.17-9.32,14.6-18.42,17.09
		c-4.02,1.1-8.18,1.38-12.24,0.69c-8.98-1.52-16.22-6.01-21.41-13.59c-4.28-6.25-5.92-13.22-5.61-20.75
		c0.25-6.05,1.6-11.77,4.77-16.94c5.06-8.24,12.63-12.8,22.05-14.3c4.9-0.78,9.81-0.38,14.58,1.06c8.23,2.48,13.02,8.11,14.77,16.44
		c0.4,1.92,0.54,3.86,0.53,5.83c-0.01,0.87-0.28,1.03-1.09,1.03c-10.87-0.03-21.74,0-32.61-0.04c-1.06,0-1.39,0.22-1.37,1.34
		c0.06,5.95-0.05,11.91,0.05,17.86c0.1,5.57,2.15,10.33,6.53,13.91c2.39,1.96,5.17,2.89,8.29,2.97c9.6,0.25,16.95-6,19.86-13.63
		C471.43,324.65,471.54,324.31,471.69,323.91z M445.3,299.48c2.6,0,5.2,0,7.79,0c0.41,0,0.9,0.15,0.88-0.59
		c-0.08-4.11,0.25-8.24-0.16-12.34c-0.29-2.93-1.74-5.2-4.76-6.12c-3.98-1.21-7.85,0.5-9.91,4.45c-2.29,4.39-2.66,9.15-2.53,14
		c0.02,0.73,0.47,0.6,0.89,0.6C440.11,299.48,442.71,299.48,445.3,299.48z"/>
	<path class="st2" d="M375.19,308.86c0,3.31-0.14,5.95,0.03,8.58c0.3,4.53,0.94,9.02,2.87,13.2c2.78,6.01,7.68,8.67,14.39,7.86
		c6.56-0.79,11.76-3.82,15.32-9.44c0.64-1.01,1.18-0.39,1.77-0.15c0.87,0.35,0.14,0.82-0.01,1.12c-3.25,6.34-8.39,10.51-15.14,12.56
		c-8.74,2.65-17.29,1.89-25.36-2.4c-7.93-4.21-12.46-11.03-14.52-19.67c-1.02-4.27-1.24-8.61-0.87-12.89
		c0.68-7.89,2.97-15.26,8.72-21.1c3.94-4,8.72-6.51,14.19-7.75c6.26-1.42,12.51-1.29,18.64,0.59c8.18,2.51,12.83,8.25,14.5,16.53
		c0.31,1.53,0.49,3.07,0.55,4.63c0.03,0.62-0.1,0.84-0.76,0.84c-5.39-0.02-10.79-0.03-16.18,0c-0.84,0-0.76-0.47-0.76-1
		c0-4.04,0.01-8.07,0-12.11c-0.01-1.52-0.1-3.03-0.61-4.48c-0.79-2.26-2.39-3.27-4.73-3.54c-1.94-0.22-3.68,0.03-5.3,1.06
		c-1.85,1.18-2.99,2.96-3.84,4.93c-1.76,4.08-2.21,8.43-2.65,12.8C375.08,302.54,375.3,306.03,375.19,308.86z"/>
	<path class="st0" d="M190.77,304.99c-0.28,6.56-1.38,12.93-4.34,18.87c-0.11,0.21-0.24,0.41-0.37,0.61
		c-4.89,0.58-9.27,2.51-13.44,5.24c-1.2-4.55-1.89-9.04-2.03-13.64c-0.16-5.53,1.45-10.53,4.08-15.29c0.4-0.72,0.92-1.28,1.6-1.73
		c4.31-2.91,8.97-4.65,14.26-4.37c0.41,0.35,0.22,0.82,0.22,1.23C190.77,298.93,190.76,301.96,190.77,304.99z"/>
	<path class="st3" d="M361.35,510.77c-0.01,7.35-0.02,14.71-0.03,22.06c0,1.25-1.09,1.95-2.21,1.4c-0.49-0.24-0.26-0.71-0.26-1.07
		c-0.01-6.43-0.01-12.87-0.01-19.3c0-2,0.03-4-0.02-5.99c-0.02-0.75,0.22-0.93,0.95-0.93c3.31-0.04,3.3-0.06,4.17,3.15
		c1.85,6.84,3.71,13.67,5.61,20.62c0.54-0.78,0.61-1.59,0.81-2.33c1.86-6.81,3.71-13.62,5.53-20.44c0.2-0.74,0.46-1.02,1.27-1.01
		c3.04,0.02,3.04-0.01,3.04,3.03c0,7.63,0,15.27,0,22.9c0,1.2-1.2,1.95-2.21,1.36c-0.43-0.25-0.26-0.72-0.26-1.1
		c-0.01-5.64-0.01-11.27-0.01-16.91c0-2.04-0.01-4.08-0.01-6.12c0.02-0.11,0.07-0.22,0.06-0.32c-0.01-0.12-0.1-0.13-0.13-0.01
		c-0.03,0.1,0,0.21,0.01,0.32c-0.81,1.43-1.01,3.06-1.46,4.6c-1.77,6.11-3.48,12.25-5.21,18.37c-0.29,1.01-1.62,1.62-2.51,1.16
		c-0.33-0.17-0.21-0.48-0.28-0.73c-2.16-7.58-4.31-15.16-6.47-22.74c0.02-0.34-0.09-0.62-0.46-0.92
		C361.3,510.23,361.33,510.5,361.35,510.77z"/>
	<path class="st3" d="M264.63,520.59c0-4.19,0.02-8.39-0.02-12.58c-0.01-0.81,0.16-1.11,1.04-1.08c2.11,0.08,4.24-0.04,6.35,0.1
		c5.49,0.38,8.01,2.82,8.69,8.31c0.36,2.92,0.42,5.84,0.07,8.8c-0.18,1.54-0.26,3.08-0.76,4.57c-1.11,3.28-3.49,4.94-6.84,5.29
		c-2.59,0.27-5.19,0.07-7.78,0.16c-0.85,0.03-0.75-0.46-0.75-0.99C264.63,528.97,264.63,524.78,264.63,520.59z M267.07,520.56
		c0,3.52,0.02,7.03-0.02,10.55c-0.01,0.73,0.18,1,0.94,0.95c1.15-0.08,2.32-0.02,3.47-0.09c4.06-0.25,5.94-1.87,6.6-5.89
		c0.61-3.69,0.54-7.41-0.01-11.11c-0.16-1.07-0.51-2.09-1.06-3.03c-0.86-1.47-2.14-2.47-3.82-2.59c-1.69-0.11-3.38-0.37-5.1-0.31
		c-0.87,0.03-1.04,0.29-1.03,1.1C267.09,513.61,267.07,517.09,267.07,520.56z"/>
	<path class="st4" d="M393.76,531.86c-1.15,2.13-3,2.76-5.25,2.69c-2.8-0.09-4.71-1.85-4.92-4.66c-0.29-3.76,1.18-5.84,4.83-6.85
		c1.27-0.35,2.53-0.7,3.8-1.05c1.06-0.29,1.6-0.98,1.65-2.07c0.02-0.36,0.03-0.72,0.03-1.08c-0.04-1.84-0.92-3.06-2.36-3.28
		c-2.56-0.38-4.07,0.4-4.67,2.43c-0.08,0.27-0.13,0.54-0.18,0.82c-0.22,1.3-0.68,1.58-2,1.31c-0.39-0.08-0.39-0.27-0.41-0.57
		c-0.21-3.13,2.04-6.18,5.49-5.93c0.91,0.07,1.86-0.09,2.75,0.07c2.43,0.44,3.71,2.25,3.73,5.24c0.03,3.8,0.01,7.59,0.01,11.39
		c0,1.02-0.11,2.03,1.43,2.11c0.61,0.03,0.25,0.79,0.32,1.22c0.08,0.47-0.24,0.59-0.65,0.65
		C395.39,534.6,394.43,533.98,393.76,531.86z M393.88,522.97c-0.94,0.73-1.94,0.97-2.93,1.23c-1.15,0.31-2.34,0.5-3.35,1.22
		c-1.83,1.32-2.14,4.18-0.66,6.05c1.14,1.44,3.54,1.51,5.16,0.14c0.79-0.67,1.32-1.53,1.51-2.52
		C394,527.12,393.93,525.11,393.88,522.97z"/>
	<path class="st4" d="M420.67,531.4c-1.2,2.4-2.96,3.15-5.23,3.16c-3.94,0.01-4.96-2.52-5.2-5.12c-0.31-3.34,1.68-5.71,4.57-6.31
		c1.32-0.28,2.6-0.76,3.91-1.09c1.29-0.32,1.87-1.11,1.83-2.41c-0.02-0.75,0.06-1.51-0.21-2.25c-0.43-1.19-1.28-1.8-2.52-1.84
		c-3.12-0.11-4.02,0.64-4.48,3.78c-0.19,1.28-1.13,0.66-1.77,0.78c-0.82,0.15-0.66-0.48-0.64-0.92c0.14-3.09,2.06-5.74,5.52-5.56
		c0.91,0.05,1.87-0.14,2.74,0.07c2.93,0.71,3.62,2.26,3.7,5.3c0.1,3.79,0.02,7.58,0.03,11.38c0,0.97-0.07,1.93,1.37,2.06
		c0.59,0.05,0.22,0.8,0.3,1.22c0.07,0.36-0.09,0.55-0.5,0.64C422.07,534.72,420.85,533.84,420.67,531.4z M420.59,522.95
		c-1.45,1.11-3.08,1.22-4.58,1.68c-2.9,0.89-4.08,3.66-2.69,6.35c0.55,1.06,1.42,1.59,2.6,1.62c2.07,0.06,3.76-1.24,4.36-3.4
		C420.83,527.21,420.46,525.17,420.59,522.95z"/>
	<path class="st2" d="M439.12,515.95c1.76-2.66,4.33-2.6,6.84-2.22c2.11,0.32,3.31,2.26,3.34,4.91c0.03,3.47,0.01,6.95,0.01,10.43
		c0,1.28-0.07,2.56,0.02,3.83c0.07,0.98-0.21,1.26-1.22,1.28c-1.12,0.02-1.18-0.45-1.18-1.34c0.04-4.19,0.02-8.39,0.02-12.58
		c0-0.36,0.01-0.72-0.01-1.08c-0.08-2.04-0.91-3.33-2.33-3.62c-2.08-0.43-3.96,0.42-4.86,2.19c-0.54,1.06-0.63,2.21-0.63,3.38
		c0,3.99,0,7.99,0,11.98c0,0.38,0.11,0.85-0.36,1.04c-0.57,0.23-1.19,0.15-1.77,0.05c-0.29-0.05-0.19-0.48-0.19-0.75
		c0-8.55,0.01-17.1-0.02-25.64c-0.01-1.11,0.67-0.82,1.25-0.85c0.63-0.04,1.14-0.07,1.12,0.88
		C439.08,510.54,439.12,513.25,439.12,515.95z M439.13,516.3c-0.03,0.02-0.08,0.05-0.08,0.07c0.01,0.07,0.04,0.14,0.06,0.21
		c0.03-0.03,0.08-0.05,0.08-0.08C439.18,516.43,439.15,516.37,439.13,516.3z"/>
	<path class="st4" d="M294.27,531.54c-1.52,3.12-4.61,3.39-7.22,2.71c-0.67-0.17-1.23-0.56-1.7-1.07c-2.85-3.06-1.37-8.72,2.61-9.93
		c1.45-0.44,2.92-0.81,4.37-1.23c1.52-0.44,1.79-0.81,1.79-2.36c0-0.52,0.01-1.04,0-1.56c-0.01-1.07-0.56-1.82-1.47-2.29
		c-2.55-1.32-5.61,0.34-5.69,3.2c-0.04,1.48-0.97,0.9-1.62,0.97c-0.96,0.1-0.71-0.64-0.68-1.15c0.24-3.64,2.89-5.35,5.73-5.25
		c4.84,0.18,6.15,1.37,6.15,6.22c0,3.52,0.01,7.03-0.01,10.55c0,1.02,0.14,1.89,1.31,2.23c0.68,0.2,0.23,0.81,0.31,1.22
		c0.09,0.46-0.31,0.45-0.63,0.49C295.44,534.55,294.57,533.87,294.27,531.54z M294.24,523.01c-0.74,0.5-1.35,0.78-2,0.94
		c-0.66,0.17-1.32,0.31-1.97,0.51c-0.57,0.17-1.14,0.36-1.68,0.61c-1.62,0.78-2.35,2.3-2.11,4.29c0.21,1.71,1.13,2.9,2.47,3.18
		c1.66,0.35,3.48-0.45,4.4-2c0.3-0.51,0.56-1.08,0.67-1.65C294.41,527.02,294.2,525.12,294.24,523.01z"/>
	<path class="st4" d="M340.54,524.14c-1.56,0-3.12,0.02-4.67-0.01c-0.53-0.01-0.79,0.1-0.78,0.71c0.02,1.72,0.11,3.43,0.75,5.06
		c0.7,1.79,1.92,2.7,3.56,2.69c1.7-0.01,2.96-0.97,3.62-2.79c0.19-0.52,0.36-1.07,0.42-1.62c0.06-0.6,0.34-0.67,0.86-0.67
		c1.43-0.02,1.61,0.15,1.38,1.5c-0.72,4.12-4.4,6.44-8.36,5.27c-1.88-0.55-3.09-1.86-3.68-3.63c-1.44-4.33-1.53-8.72,0.01-13.03
		c1.23-3.44,4.44-4.92,7.96-3.92c2.51,0.72,3.58,2.68,4.04,5.02c0.28,1.43,0.31,2.91,0.49,4.36c0.11,0.84-0.2,1.11-1.04,1.07
		C343.58,524.1,342.06,524.14,340.54,524.14z M339.3,522.22c1.2,0,2.4-0.02,3.59,0.01c0.52,0.01,0.76-0.18,0.68-0.69
		c-0.22-1.36-0.18-2.77-0.79-4.05c-0.45-0.95-1.15-1.65-2.18-1.9c-2.62-0.63-4.36,0.42-5.07,3.03c-0.23,0.85-0.32,1.72-0.4,2.59
		c-0.07,0.77,0.11,1.08,0.94,1.02C337.14,522.17,338.22,522.22,339.3,522.22z"/>
	<path class="st5" d="M452.55,523.98c0.06-2.17,0.17-4.41,1.08-6.5c0.93-2.14,2.38-3.63,4.86-3.88c3.21-0.32,5.73,0.68,6.89,3.85
		c1.62,4.42,1.64,8.93-0.08,13.32c-0.91,2.32-2.72,3.65-5.34,3.77c-2.82,0.13-4.86-0.99-6.12-3.51
		C452.76,528.83,452.62,526.44,452.55,523.98z M455.07,523.55c-0.04,2.41,0.09,4.6,1.02,6.64c0.68,1.49,1.78,2.45,3.52,2.41
		c1.73-0.04,2.85-1.03,3.41-2.56c1.46-3.99,1.32-8.03,0-12.02c-0.56-1.7-1.81-2.6-3.75-2.5c-1.76,0.08-2.65,1.12-3.26,2.54
		C455.24,519.88,454.91,521.78,455.07,523.55z"/>
	<path class="st2" d="M471.85,516.67c0.71-1.04,1.29-1.78,2.1-2.3c3.7-2.39,8.06-0.35,8.24,4.02c0.2,4.98,0.07,9.98,0.1,14.97
		c0.01,1.12-0.81,0.81-1.44,0.9c-0.81,0.12-0.9-0.29-0.89-0.96c0.02-4.35,0.01-8.7,0.01-13.06c0-0.48-0.01-0.96-0.07-1.43
		c-0.25-1.96-1.01-3.02-2.31-3.26c-2.07-0.38-3.83,0.33-4.74,1.98c-0.47,0.87-0.78,1.79-0.77,2.83c0.04,4.23-0.02,8.46,0.04,12.7
		c0.01,0.94-0.29,1.13-1.15,1.1c-0.8-0.03-1.28-0.02-1.27-1.12c0.06-5.99,0.04-11.98,0.02-17.97c0-0.79,0.04-1.23,1.05-1.21
		c0.92,0.01,1.21,0.27,1.09,1.15C471.8,515.45,471.85,515.89,471.85,516.67z"/>
	<path class="st2" d="M303.28,516.29c0.45-0.02,0.48-0.37,0.64-0.57c1.66-2.04,4.18-2.78,6.69-1.94c1.84,0.62,2.84,1.97,2.94,3.83
		c0.15,2.59,0.1,5.18,0.12,7.78c0.02,2.56-0.05,5.11,0.03,7.66c0.03,1.12-0.52,1.17-1.4,1.22c-1,0.06-0.96-0.46-0.95-1.16
		c0.02-4.39,0.01-8.78,0.01-13.17c0-0.32,0.02-0.64-0.01-0.96c-0.13-1.81-0.94-3.06-2.18-3.39c-1.91-0.51-3.85,0.21-4.82,1.79
		c-0.6,0.98-0.83,2.06-0.83,3.2c0,4.15-0.02,8.3,0.02,12.46c0.01,0.96-0.31,1.22-1.24,1.24c-0.95,0.03-1.12-0.31-1.11-1.17
		c0.03-6.03,0.03-12.06,0-18.09c-0.01-0.87,0.2-1.16,1.12-1.16c0.94,0,1.06,0.4,0.98,1.14
		C303.25,515.43,303.28,515.86,303.28,516.29z"/>
	<path class="st4" d="M319.43,524.19c0.1,1.7,0.1,3.38,0.55,5.01c0.64,2.33,1.7,3.36,3.58,3.4c1.91,0.04,3.23-1.06,3.89-3.25
		c0.11-0.38,0.27-0.78,0.25-1.16c-0.04-0.67,0.32-0.66,0.8-0.67c1.53-0.03,1.53-0.05,1.41,1.43c-0.21,2.54-2.37,5.02-4.8,5.5
		c-3.04,0.61-5.78-0.54-6.86-3.27c-1.84-4.66-1.92-9.46,0.02-14.11c1.23-2.94,3.66-3.96,7.26-3.45c2.32,0.33,4.05,2.26,4.52,5.09
		c0.09,0.54,0.39,1.32-0.58,1.36c-0.74,0.03-1.67,0.42-1.79-1.01c-0.18-2.08-1.35-3.37-2.84-3.52c-2.6-0.25-3.88,0.52-4.68,2.87
		c-0.17,0.49-0.27,1-0.38,1.51C319.47,521.35,319.5,522.79,319.43,524.19z"/>
	<path class="st4" d="M397.39,489.22c-0.73,0.95-1.39,1.85-2.08,2.72c-0.29,0.36-0.23,0.75-0.23,1.14c-0.01,1.8-0.04,3.6,0.02,5.39
		c0.03,0.79-0.29,0.91-0.98,0.92c-0.72,0.02-0.95-0.18-0.95-0.93c0.03-6.15,0.03-12.3,0-18.46c0-0.73,0.17-0.94,0.92-0.94
		c0.78,0,1.01,0.21,1,1c-0.05,3.06-0.02,6.13-0.02,9.55c0.98-1.34,1.77-2.4,2.55-3.48c1.41-1.93,2.9-3.82,4.21-5.82
		c0.72-1.1,1.54-1.47,2.88-1.11c-1.81,2.47-3.55,4.93-5.38,7.33c-0.57,0.74-0.64,1.26-0.14,2.08c1.89,3.1,3.69,6.25,5.5,9.39
		c0.24,0.42,0.94,1.03,0.27,1.38c-0.58,0.3-1.39,0.26-1.9-0.64c-1.58-2.82-3.26-5.57-4.91-8.35
		C397.92,490.03,397.68,489.67,397.39,489.22z"/>
	<path class="st3" d="M264.26,487.22c0-2.4,0.04-4.79-0.02-7.19c-0.02-0.84,0.31-0.94,1.03-0.97c0.86-0.04,0.85,0.4,0.85,1.01
		c-0.01,4.43-0.01,8.86,0,13.3c0,0.48,0.02,0.96,0.1,1.43c0.41,2.45,1.73,3.46,4.26,3.29c2.22-0.15,3.46-1.48,3.49-3.87
		c0.04-3.39,0.01-6.79,0.01-10.18c0-1.4,0.05-2.8-0.02-4.19c-0.04-0.84,0.43-0.76,0.97-0.75c0.5,0.01,1-0.14,0.99,0.72
		c-0.04,4.63,0,9.26-0.03,13.89c0,0.82-0.11,1.65-0.3,2.45c-0.47,1.97-2.22,3.4-4.29,3.55c-0.75,0.05-1.52,0.05-2.27-0.02
		c-2.82-0.26-4.36-1.83-4.68-4.68c-0.02-0.2-0.06-0.4-0.06-0.59c0-2.4,0-4.79,0-7.19C264.27,487.22,264.26,487.22,264.26,487.22z"/>
	<path class="st2" d="M428.48,523.96c0-2.08,0-4.15,0-6.23c0-1.69,0-1.74-1.67-1.69c-0.83,0.03-1.07-0.2-1.08-1.05
		c-0.01-0.91,0.26-1.15,1.15-1.12c1.6,0.07,1.61,0.01,1.61-1.64c0-1,0.08-2.01-0.02-2.99c-0.11-1.08,0.58-0.91,1.2-0.9
		c0.59,0.01,1.29-0.24,1.21,0.87c-0.1,1.31,0,2.64-0.04,3.95c-0.02,0.58,0.17,0.78,0.75,0.74c0.56-0.04,1.13,0.05,1.68-0.02
		c0.99-0.14,1.23,0.29,1.17,1.2c-0.04,0.61-0.18,0.91-0.82,0.82c-0.08-0.01-0.16,0-0.24,0c-2.53,0.04-2.53,0.04-2.53,2.54
		c0,3.84,0,7.67,0,11.51c0,1.93,0.52,2.48,2.4,2.38c0.69-0.04,1.01,0.03,0.98,0.84c-0.02,0.75-0.09,1.12-1.01,1.14
		c-3.93,0.05-4.74-0.7-4.74-4.6C428.48,527.8,428.48,525.88,428.48,523.96z"/>
	<path class="st4" d="M464.41,491.34c1.5-1.92,3.07-3.78,4.46-5.78c0.78-1.13,1.67-1.41,3.07-1.06c-1.19,1.48-2.26,2.95-3.49,4.28
		c-0.78,0.83-0.75,1.46-0.19,2.38c1.4,2.32,2.72,4.69,4.03,7.06c0.18,0.33,0.88,0.89,0.18,1.15c-0.56,0.2-1.44,0.55-1.95-0.39
		c-1.25-2.27-2.53-4.52-3.81-6.77c-0.11-0.2-0.25-0.39-0.33-0.51c-2.79,1.57-2.24,4.22-2.23,6.68c0,0.65-0.04,1.04-0.87,1.03
		c-0.78-0.01-1.01-0.22-1.01-1.02c0.03-6.07,0.02-12.14,0.01-18.22c0-0.64-0.05-1.1,0.89-1.11c0.96-0.01,0.98,0.42,0.98,1.15
		c-0.03,3.32-0.01,6.63-0.01,9.95c0,0.38,0,0.76,0,1.15C464.23,491.31,464.32,491.32,464.41,491.34z"/>
	<path class="st5" d="M412.22,491.94c-1.08,0-2.16,0.03-3.23-0.01c-0.65-0.02-0.94,0.14-0.91,0.86c0.04,0.92,0.1,1.83,0.34,2.72
		c0.51,1.88,1.52,2.78,2.98,2.73c1.48-0.06,2.53-1.17,2.87-3.03c0.06-0.34-0.14-0.78,0.55-0.79c1.09-0.02,1.31,0.16,1.16,1.28
		c-0.29,2.05-2.05,3.79-4.04,4.01c-2.37,0.26-4.17-0.7-4.94-2.87c-1.1-3.12-1.15-6.32-0.14-9.48c0.76-2.36,2.05-3.22,4.52-3.23
		c2.83-0.01,3.99,0.94,4.61,3.73c0.9,4.07,0.9,4.07-3.17,4.07C412.62,491.94,412.42,491.94,412.22,491.94z M411.17,490.4
		c0.24,0,0.48,0.02,0.72,0c0.82-0.07,2.06,0.38,2.37-0.2c0.46-0.85,0.02-2-0.33-2.99c-0.03-0.07-0.06-0.14-0.1-0.22
		c-0.33-0.71-0.8-1.3-1.62-1.42c-2.4-0.38-3.95,0.88-4.16,3.33c-0.12,1.43-0.05,1.5,1.45,1.5
		C410.06,490.4,410.62,490.4,411.17,490.4z"/>
	<path class="st5" d="M312.38,491.94c-1.04,0-2.08,0.04-3.12-0.01c-0.71-0.03-1.03,0.18-0.95,0.93c0.1,0.91,0.14,1.83,0.39,2.72
		c0.48,1.72,1.51,2.73,2.76,2.7c1.55-0.04,2.71-0.99,2.99-2.84c0.16-1.07,0.7-1.03,1.45-1.01c0.42,0.01,0.53,0.15,0.5,0.56
		c-0.19,3.36-3.43,5.58-6.58,4.48c-2.16-0.75-2.87-2.65-3.17-4.57c-0.34-2.23-0.37-4.54,0.21-6.78c0.22-0.85,0.58-1.65,1.06-2.39
		c1.33-2.03,3.4-1.72,5.3-1.55c1.47,0.14,2.26,1.35,2.75,2.71c0.49,1.38,0.56,2.8,0.6,4.25c0.02,0.64-0.22,0.84-0.84,0.82
		C314.62,491.91,313.5,491.94,312.38,491.94z M311.5,490.4c0.4,0,0.8,0,1.19,0c1.99,0,1.99,0,1.82-1.91
		c-0.14-1.57-1.06-2.82-2.16-2.93c-2.31-0.23-3.14,0.29-3.73,2.33c-0.11,0.37-0.29,0.74-0.33,1.11c-0.1,0.85-0.08,1.61,1.18,1.41
		C310.14,490.32,310.83,490.4,311.5,490.4z"/>
	<path class="st5" d="M371.88,484.13c2.53-0.01,3.86,0.84,4.6,3.26c0.92,2.97,0.9,6-0.05,8.97c-0.73,2.29-2.29,3.36-4.53,3.37
		c-2.21,0-3.81-1.12-4.57-3.35c-1.01-3-1.1-6.04-0.03-9.06C368.13,485.04,369.42,484.14,371.88,484.13z M375.19,492.12
		c0-0.6,0.11-1.22-0.03-1.79c-0.16-0.62-0.14-1.25-0.25-1.86c-0.29-1.62-1.32-2.83-2.42-2.91c-1.87-0.13-2.89,0.51-3.45,2.36
		c-0.83,2.73-0.81,5.47,0.14,8.17c0.5,1.41,1.46,2.14,2.7,2.16c1.2,0.01,2.2-0.75,2.73-2.13
		C375.1,494.83,375.25,493.48,375.19,492.12z"/>
	<path class="st3" d="M446.15,497.45c-1.25,1.73-2.67,2.43-4.5,2.26c-1.74-0.16-2.87-1.17-3.17-2.88c-0.08-0.47-0.16-0.95-0.16-1.42
		c-0.01-3.43,0.01-6.87-0.02-10.3c-0.01-0.7,0.22-0.89,0.89-0.88c0.67,0,1.02,0.09,0.99,0.9c-0.06,1.63-0.02,3.27-0.02,4.91
		c0,1.76-0.02,3.51,0.01,5.27c0.03,1.69,0.73,2.85,1.86,2.96c1.54,0.15,3.01-0.49,3.62-2.08c0.23-0.6,0.31-1.23,0.31-1.88
		c-0.02-2.99,0.01-5.99-0.02-8.98c-0.01-0.65,0.04-0.98,0.87-0.99c0.86-0.02,0.97,0.31,0.96,1.03c-0.02,4.31-0.01,8.62-0.01,12.93
		c0,0.24,0.03,0.49-0.04,0.71c-0.18,0.54-0.66,0.46-1.09,0.48c-0.49,0.02-0.48-0.3-0.47-0.63
		C446.15,498.5,446.15,498.14,446.15,497.45z"/>
	<path class="st6" d="M472.63,484.45c1.89-0.2,1.88-0.2,2.32,1.52c0.82,3.21,1.64,6.41,2.46,9.62c0.09,0.33,0.22,0.65,0.59,1
		c0.43-1.78,0.86-3.56,1.28-5.35c0.48-2.06,1.01-4.11,1.42-6.18c0.22-1.14,1.05-0.7,1.59-0.65c0.74,0.06,0.28,0.65,0.19,1
		c-1.38,5.16-2.74,10.33-4.17,15.47c-0.75,2.7-1.47,3.43-4.28,3.64c-0.72,0.05-0.97-0.22-1-0.96c-0.04-0.88,0.47-0.7,0.98-0.7
		c1.73,0,3.29-1.97,2.81-3.74C475.48,494.25,474.05,489.41,472.63,484.45z"/>
	<path class="st6" d="M358.85,484.47c-1.53,5.65-2.98,11.32-4.6,16.94c-0.77,2.68-1.72,2.85-4.28,3.12
		c-0.79,0.08-0.67-0.43-0.68-0.9c-0.02-0.48-0.01-0.77,0.67-0.78c2.12-0.03,3.47-2,2.87-4.14c-1.27-4.52-2.57-9.03-3.86-13.55
		c-0.06-0.22-0.1-0.45-0.16-0.68c1.78-0.23,1.78-0.23,2.21,1.43c0.96,3.69,1.92,7.38,2.96,11.35c0.92-3.96,1.78-7.64,2.64-11.32
		C357.01,484.24,357.02,484.24,358.85,484.47z"/>
	<path class="st6" d="M330.8,499.72c-3.04-0.01-4.62-1.6-4.51-4.48c0.02-0.54,0.14-0.83,0.74-0.77c0.48,0.05,1.11-0.2,1.07,0.68
		c-0.01,0.28,0.04,0.56,0.09,0.83c0.28,1.58,1.44,2.44,3.08,2.29c1.65-0.15,2.35-1.04,2.46-2.72c0.1-1.41-0.58-2.15-1.75-2.65
		c-1.21-0.51-2.48-0.92-3.61-1.57c-2.59-1.48-2.53-5.33,0.05-6.82c2.3-1.33,5.83-0.37,6.57,1.76c0.16,0.47,0.16,0.93,0.16,1.41
		c0,0.54,0.07,1-0.76,0.99c-0.71-0.02-0.93-0.16-0.96-0.92c-0.08-1.9-1.06-2.49-3.39-2.19c-1.19,0.15-1.87,1.38-1.65,2.87
		c0.14,0.96,0.79,1.45,1.57,1.8c0.8,0.36,1.63,0.63,2.45,0.94c2.64,1.01,3.64,2.63,3.16,5.13
		C335.14,498.57,333.52,499.73,330.8,499.72z"/>
	<path class="st2" d="M403.22,516.75c1.29-2.06,2.67-3.27,4.93-3.16c0.78,0.04,0.94,0.28,0.88,0.97c-0.07,0.8,0.33,1.58-1.26,1.33
		c-2.34-0.36-4.49,2.1-4.53,4.88c-0.06,4.03-0.01,8.07-0.03,12.11c0,0.4,0.27,1.03-0.24,1.18c-0.59,0.17-1.27,0.1-1.89,0.02
		c-0.34-0.04-0.21-0.47-0.21-0.73c-0.01-6.23,0.01-12.47-0.02-18.7c0-0.84,0.47-0.83,0.98-0.73c0.5,0.1,1.41-0.51,1.4,0.68
		C403.21,515.2,403.22,515.79,403.22,516.75z"/>
	<path class="st3" d="M420.53,485.91c1.37-2.12,3.42-1.91,5.36-1.76c1.25,0.1,2.29,1.48,2.32,2.98c0.06,3.83,0.02,7.67,0.04,11.51
		c0,0.83-0.52,0.81-1.12,0.85c-0.74,0.05-0.6-0.44-0.6-0.86c0-3.32,0-6.63,0-9.95c0-2.14-0.64-3.08-2.11-3.12
		c-2.36-0.06-3.63,1-3.66,3.22c-0.06,3.2-0.04,6.39,0,9.59c0.01,0.8-0.22,1.01-1,1.02c-0.83,0.01-0.87-0.38-0.87-1.03
		c0.02-4.35,0.01-8.71,0.01-13.06c0-0.56-0.11-1.06,0.79-1.1c1.02-0.04,0.86,0.55,0.85,1.14
		C420.52,485.53,420.53,485.72,420.53,485.91z"/>
	<path class="st2" d="M280.71,485.82c1.21-1.59,3.67-2.31,5.44-1.55c1.37,0.59,1.95,1.77,1.97,3.17c0.05,3.72,0,7.43,0.03,11.15
		c0.01,0.81-0.42,0.87-1.06,0.9c-0.81,0.04-0.67-0.48-0.67-0.94c0-3.12,0-6.24,0-9.35c0-0.4,0.02-0.8-0.04-1.2
		c-0.16-1.09-0.36-2.22-1.7-2.44c-1.9-0.32-3.13,0.29-3.75,1.78c-0.33,0.78-0.42,1.62-0.42,2.46c0,2.88-0.02,5.76,0.01,8.63
		c0.01,0.78-0.28,1.07-1.05,1.05c-0.5-0.01-0.69-0.13-0.69-0.67c0.02-4.64,0.02-9.27,0-13.91c0-0.66,0.32-0.7,0.81-0.68
		c0.46,0.02,0.91-0.03,0.85,0.66c-0.03,0.32,0,0.64,0.01,0.96c0.03,0.05,0.07,0.11,0.1,0.16
		C280.59,485.95,280.65,485.89,280.71,485.82z"/>
	<path class="st5" d="M452.07,491.69c0.01,1.28,0.02,2.55,0.33,3.81c0.46,1.9,1.32,2.75,2.8,2.74c1.48-0.01,2.67-0.98,2.89-2.8
		c0.15-1.24,0.84-0.98,1.55-0.99c0.39-0.01,0.45,0.2,0.4,0.54c-0.58,4.02-3.49,5.38-6.43,4.5c-1.47-0.44-2.3-1.55-2.78-2.92
		c-1.08-3.05-1.07-6.13-0.04-9.18c1-2.94,3.58-4.16,6.54-3.15c1.58,0.54,2.67,2.3,2.55,4.06c-0.03,0.42-0.08,0.7-0.59,0.63
		c-0.43-0.06-1.01,0.2-1.09-0.57c-0.04-0.39-0.1-0.79-0.23-1.16c-0.3-0.88-0.81-1.57-1.83-1.62c-1.24-0.06-2.48-0.15-3.21,1.24
		C452.1,488.36,452.11,490.02,452.07,491.69z"/>
	<path class="st0" d="M203.74,327.31c3.4-3.59,6.02-7.7,8.08-12.19c0.27,5.08-0.48,10.02-1.83,14.91c-0.23,0.82-0.4,1.08-1.19,0.45
		C207.24,329.24,205.52,328.22,203.74,327.31z"/>
	<path class="st6" d="M295.12,484.5c1.89-0.33,1.9-0.33,2.34,1.41c0.92,3.61,1.83,7.23,2.75,10.86c0.54-0.29,0.49-0.84,0.59-1.27
		c0.82-3.45,1.67-6.89,2.4-10.36c0.25-1.2,1.08-0.8,1.65-0.72c0.66,0.09,0.24,0.69,0.15,1.04c-1.12,4.31-2.29,8.62-3.38,12.94
		c-0.21,0.81-0.57,1.08-1.39,1.11c-0.82,0.03-0.96-0.39-1.14-1.03c-1.15-4.22-2.34-8.44-3.53-12.65
		C295.43,485.38,295.27,484.94,295.12,484.5z"/>
	<path class="st3" d="M432.15,491.89c0-1.72-0.04-3.43,0.02-5.15c0.03-0.81-0.25-1.05-1.02-0.98c-0.53,0.05-1.11,0.19-1.1-0.75
		c0-0.95,0.6-0.8,1.12-0.75c0.81,0.07,1.05-0.25,0.99-1.02c-0.06-0.71,0.01-1.44-0.02-2.15c-0.03-0.64,0.04-1.03,0.87-1.02
		c0.77,0.01,1,0.27,0.91,0.98c-0.04,0.31-0.01,0.64-0.01,0.96c0.01,0.72-0.22,1.58,0.1,2.12c0.37,0.63,1.31,0.2,1.99,0.24
		c0.48,0.03,0.62,0.19,0.59,0.64c-0.03,0.4,0.06,0.79-0.58,0.79c-0.66,0-1.57-0.32-1.94,0.15c-0.47,0.59-0.15,1.53-0.15,2.32
		c-0.02,2.67-0.02,5.35,0,8.02c0.01,1.49,0.36,1.82,1.87,1.77c0.44-0.02,0.87-0.18,0.82,0.56c-0.03,0.53-0.04,0.96-0.74,0.92
		c-0.48-0.03-0.96,0.01-1.44-0.02c-1.57-0.11-2.23-0.76-2.27-2.34c-0.04-1.76-0.01-3.51-0.01-5.27
		C432.16,491.89,432.15,491.89,432.15,491.89z"/>
	<path class="st3" d="M380.19,492.67c0-1.96-0.03-3.92,0.02-5.87c0.02-0.77-0.17-1.1-0.99-1c-0.64,0.09-1.19,0.02-1.16-0.89
		c0.02-1.01,0.75-0.66,1.2-0.64c0.74,0.03,1.03-0.22,0.94-0.96c-0.05-0.39-0.02-0.8,0-1.2c0.1-2.47,1.2-3.42,3.68-3.27
		c0.6,0.04,0.71,0.26,0.73,0.79c0.02,0.61-0.2,0.74-0.77,0.7c-0.71-0.06-1.38,0.13-1.67,0.88c-0.36,0.92-0.37,1.93-0.11,2.82
		c0.14,0.48,0.94,0.13,1.43,0.22c0.36,0.07,0.82-0.22,1.07,0.27c0.32,0.62-0.08,1.23-0.8,1.25c-0.28,0.01-0.56,0.04-0.84-0.01
		c-0.82-0.13-0.99,0.25-0.98,1.01c0.03,3.83,0.02,7.67,0.01,11.5c0,0.47,0.13,1.06-0.52,1.17c-0.66,0.12-1.33,0.24-1.27-0.91
		C380.26,496.59,380.19,494.62,380.19,492.67z"/>
	<path class="st4" d="M343.97,491.8c0-1.68-0.03-3.35,0.01-5.03c0.02-0.75-0.14-1.11-0.98-1.02c-0.53,0.05-1.2,0.27-1.19-0.77
		c0.01-0.97,0.62-0.78,1.12-0.73c0.87,0.09,1.11-0.28,1.04-1.09c-0.06-0.67,0.02-1.36-0.02-2.03c-0.04-0.69,0.04-1.08,0.93-1.08
		c0.92,0,0.81,0.5,0.8,1.07c-0.01,0.32-0.01,0.64,0,0.96c0.01,0.71-0.21,1.58,0.12,2.1c0.33,0.52,1.25,0.18,1.91,0.18
		c0.59,0,0.6,0.28,0.62,0.73c0.02,0.51-0.13,0.67-0.66,0.71c-2,0.13-2,0.15-2,2.2c0,2.67,0,5.35,0,8.02c0,1.72,0.3,2.03,2.01,2.02
		c0.41,0,0.74-0.04,0.66,0.51c-0.05,0.35,0.21,0.9-0.41,0.94c-0.99,0.08-2.01,0.19-2.94-0.28c-0.81-0.41-1.04-1.16-1.04-2.01
		C343.97,495.39,343.98,493.6,343.97,491.8C343.97,491.8,343.97,491.8,343.97,491.8z"/>
	<path class="st3" d="M321.23,486.05c0.73-1.34,1.79-2.09,3.39-1.93c0.43,0.04,0.78,0.01,0.74,0.62c-0.04,0.49,0.02,0.94-0.65,1.08
		c-3.1,0.63-3.75,1.46-3.76,4.67c0,2.64-0.01,5.27,0.01,7.91c0.01,0.71-0.12,1.1-0.97,1.11c-0.92,0.01-0.79-0.55-0.79-1.1
		c0-4.27-0.02-8.55,0-12.82c0-0.6-0.32-1.37,0.88-1.38c1.21,0,0.82,0.77,0.88,1.37c0.02,0.16,0.01,0.32,0.01,0.48
		c-0.14,0.1-0.23,0.28-0.03,0.34C321.16,486.46,321.24,486.27,321.23,486.05z"/>
	<path class="st1" d="M338.22,491.85c0-2.19,0.04-4.39-0.02-6.58c-0.02-0.76,0.22-0.93,0.94-0.92c0.69,0.01,0.86,0.23,0.85,0.89
		c-0.03,4.39-0.02,8.77,0,13.16c0,0.73-0.18,1.07-1,1.11c-0.95,0.05-0.77-0.55-0.77-1.08C338.22,496.23,338.22,494.04,338.22,491.85
		z"/>
	<path class="st1" d="M291.49,491.88c0-2.24,0.02-4.48-0.01-6.71c-0.01-0.63,0.16-0.85,0.8-0.81c0.55,0.03,0.96-0.03,0.96,0.78
		c-0.04,4.44-0.03,8.87-0.01,13.31c0,0.78-0.28,1.03-1.05,1.06c-0.92,0.03-0.67-0.57-0.67-1.03
		C291.48,496.27,291.49,494.07,291.49,491.88z"/>
	<path class="st1" d="M293.21,480.7c-0.28,0.35,0.57,1.27-0.65,1.33c-0.78,0.04-1.23-0.1-1.08-1c0.05-0.27,0-0.56,0.01-0.83
		c0.01-0.56-0.2-1.14,0.82-1.14c1.05,0,0.91,0.57,0.9,1.2C293.21,480.37,293.21,480.49,293.21,480.7z"/>
	<path class="st1" d="M339.98,480.65c-0.17,0.48,0.49,1.45-0.85,1.39c-0.72-0.03-1.02-0.2-0.91-0.93c0.04-0.31,0.01-0.63,0.01-0.95
		c-0.02-0.6-0.12-1.13,0.86-1.11c0.87,0.02,0.99,0.37,0.91,1.05C339.96,480.26,339.98,480.42,339.98,480.65z"/>
	<path class="st7" d="M190.77,304.99c0-3.03,0-6.06-0.02-9.09c0-0.41,0.19-0.88-0.22-1.23c0.05-0.16,0.17-0.21,0.33-0.21
		c0.29,2.76,0.15,5.53,0.07,8.3C190.9,303.49,191.06,304.26,190.77,304.99z"/>
	<path class="st8" d="M321.23,486.05c0.02,0.22-0.07,0.42-0.3,0.35c-0.19-0.06-0.11-0.23,0.03-0.34
		C321.05,486.05,321.14,486.05,321.23,486.05z"/>
	<path class="st0" d="M213.54,310.18c0.01-0.24-0.05-0.5,0.17-0.68c0.06,0.22,0.13,0.45,0.19,0.67c-0.05,0.04-0.11,0.08-0.16,0.13
		C213.68,310.26,213.61,310.22,213.54,310.18z"/>
	<path class="st3" d="M377.65,510.09c-0.01-0.11-0.04-0.22-0.01-0.32c0.03-0.12,0.12-0.11,0.13,0.01c0.01,0.11-0.04,0.21-0.06,0.32
		C377.71,510.1,377.65,510.09,377.65,510.09z"/>
	<path class="st8" d="M280.71,485.82c-0.06,0.06-0.11,0.13-0.17,0.19c-0.03-0.05-0.07-0.11-0.1-0.16
		C280.52,485.84,280.61,485.83,280.71,485.82z"/>
	<path class="st9" d="M225.54,340.25c-0.23,0.06-0.2-0.11-0.21-0.24C225.41,340.09,225.47,340.17,225.54,340.25z"/>
	<path class="st10" d="M439.13,516.3c0.02,0.07,0.05,0.13,0.05,0.2c0,0.02-0.05,0.05-0.08,0.08c-0.02-0.07-0.05-0.14-0.06-0.21
		C439.05,516.35,439.1,516.32,439.13,516.3z"/>
</g>
</svg>
