<?xml version="1.0" encoding="utf-8"?>
<!-- Generator: Adobe Illustrator 27.1.1, SVG Export Plug-In . SVG Version: 6.00 Build 0)  -->
<svg version="1.1" id="Layer_1" xmlns="http://www.w3.org/2000/svg" xmlns:xlink="http://www.w3.org/1999/xlink" x="0px" y="0px"
	 viewBox="0 0 248 343" style="enable-background:new 0 0 248 343;" xml:space="preserve">
<style type="text/css">
	.st0{fill:#233F94;enable-background:new    ;}
	.st1{enable-background:new    ;}
	.st2{fill:#233F94;}
	.st3{fill:#767CB9;}
	.st4{fill:#8A8FC4;}
	.st5{fill:#9599C8;}
	.st6{fill:#C0C3E1;}
	.st7{fill:#8287BF;}
	.st8{fill:#243F95;}
	.st9{fill:#ECC61C;}
	.st10{fill:#FCDA79;}
	.st11{fill:#ED2D24;}
	.st12{fill:#98AFB3;}
	.st13{fill:#BF2126;}
	.st14{fill:#256C91;}
	.st15{fill:#F3954E;}
	.st16{fill:#AFBECF;}
	.st17{fill:#E7753E;}
	.st18{fill:#F9B37A;}
	.st19{fill:#7A8C8F;}
	.st20{fill:#D8E6E7;}
	.st21{fill:#5561A8;}
	.st22{fill:#8287C0;}
</style>
<g>
	<path class="st8" d="M124.44,74.44c25.63-0.29,48.58,19.18,52.24,45.24c0.98,6.96,0.33,13.58-1.72,20.18
		c-2.38,7.64-5.58,14.95-9.07,22.14c-7.8,16.04-16.99,31.28-26.66,46.25c-4.34,6.71-8.82,13.32-13.29,19.94
		c-1.34,1.98-1.75,1.95-3.16-0.12c-3.76-5.49-7.56-10.96-11.18-16.55c-10.32-15.93-20.23-32.1-28.57-49.18
		c-3.43-7.03-6.46-14.21-8.97-21.64c-4.42-13.11-2.76-25.62,3.38-37.69C86.66,84.88,105.56,74.16,124.44,74.44z M153.75,127.25
		c0.03-17.61-14.63-29.66-29.58-29.46c-17.06,0.23-29.37,14.38-29.19,29.88c0.17,14.74,12.39,29.02,29.62,28.96
		C140.68,156.57,153.85,143.29,153.75,127.25z"/>
	<path class="st8" d="M125.17,251.48c-10.08-0.39-19.53-1.01-28.7-3.75c-4.15-1.24-8.19-2.75-11.89-5.05
		c-1.99-1.24-3.82-2.67-5.14-4.65c-1.54-2.32-1.54-4.66-0.05-7.01c1.19-1.87,2.87-3.21,4.7-4.4c3.23-2.1,6.74-3.66,10.43-4.69
		c4.15-1.17,8.41-1.97,12.6-2.99c2.39-0.58,4,0.05,5.37,2.26c2.44,3.96,5.19,7.73,7.82,11.57c0.66,0.96,1.31,1.93,2.06,2.82
		c1.35,1.59,2.85,1.6,4.13-0.16c2.83-3.9,5.48-7.94,8.29-11.86c1.14-1.6,1.75-3.83,3.62-4.62c1.87-0.79,3.91,0.24,5.86,0.56
		c5.77,0.95,11.35,2.53,16.65,5.02c2.58,1.21,5.03,2.62,7.04,4.66c3.42,3.46,3.44,7.02,0.06,10.5c-2.24,2.3-4.99,3.84-7.88,5.16
		c-7.19,3.29-14.83,4.87-22.62,5.75C133.23,251.09,128.9,251.22,125.17,251.48z"/>
	<path class="st8" d="M80.94,215.05c-1.17,1.31-2.86,1.68-4.36,2.34c-3.36,1.49-6.56,3.24-9.55,5.37c-1.91,1.36-3.64,2.92-5.12,4.73
		c-4.38,5.35-4.44,10.92-0.19,16.4c1.44,1.86,3.2,3.38,5.07,4.78c2.81,2.1,5.89,3.74,9.08,5.2c9.17,4.2,18.88,6.37,28.8,7.77
		c9.76,1.38,19.59,1.59,29.41,0.96c12.67-0.82,25.11-2.95,36.92-7.89c4.31-1.81,8.45-3.92,12.11-6.89c1.95-1.58,3.71-3.33,5.07-5.47
		c2.8-4.4,2.7-8.79-0.05-13.15c-1.62-2.57-3.84-4.58-6.26-6.37c-3.23-2.39-6.8-4.18-10.43-5.84c-1.05-0.48-2.14-0.94-3.08-1.59
		c-0.71-0.49-0.96-1.38-0.59-2.23c0.34-0.78,0.92-1.43,1.86-1.43c0.65,0,1.35,0.04,1.95,0.28c5.58,2.25,10.9,4.97,15.5,8.93
		c1.9,1.64,3.65,3.44,4.94,5.59c3.77,6.29,3.85,12.59-0.24,18.79c-2.33,3.54-5.51,6.21-9.01,8.53c-4.33,2.87-9,5.04-13.87,6.77
		c-9.3,3.31-18.89,5.22-28.71,6.18c-10.98,1.08-21.94,1.06-32.9-0.11c-10.98-1.17-21.66-3.52-31.86-7.84
		c-4.31-1.83-8.38-4.07-12.09-6.93c-2.53-1.95-4.78-4.17-6.47-6.87c-3.93-6.27-3.88-12.55,0.12-18.78c1.54-2.41,3.56-4.39,5.78-6.17
		c4.33-3.45,9.21-5.95,14.32-8.02c1.29-0.52,2.57-0.76,3.7,0.37C80.83,213.31,80.89,214.18,80.94,215.05z"/>
	<path class="st22" d="M80.94,215.05c-0.06-0.87-0.11-1.73-0.17-2.6C81.98,213.45,82,213.79,80.94,215.05z"/>
</g>
</svg>
