<?xml version="1.0" encoding="utf-8"?>
<!-- Generator: Adobe Illustrator 27.1.1, SVG Export Plug-In . SVG Version: 6.00 Build 0)  -->
<svg version="1.1" id="Layer_1" xmlns="http://www.w3.org/2000/svg" xmlns:xlink="http://www.w3.org/1999/xlink" x="0px" y="0px"
	 viewBox="0 0 248 343" style="enable-background:new 0 0 248 343;" xml:space="preserve">
<style type="text/css">
	.st0{fill:#233F94;enable-background:new    ;}
	.st1{enable-background:new    ;}
	.st2{fill:#233F94;}
	.st3{fill:#767CB9;}
	.st4{fill:#8A8FC4;}
	.st5{fill:#9599C8;}
	.st6{fill:#C0C3E1;}
	.st7{fill:#8287BF;}
	.st8{fill:#243F95;}
	.st9{fill:#ECC61C;}
	.st10{fill:#FCDA79;}
	.st11{fill:#ED2D24;}
	.st12{fill:#98AFB3;}
	.st13{fill:#BF2126;}
	.st14{fill:#256C91;}
	.st15{fill:#F3954E;}
	.st16{fill:#AFBECF;}
	.st17{fill:#E7753E;}
	.st18{fill:#F9B37A;}
	.st19{fill:#7A8C8F;}
	.st20{fill:#D8E6E7;}
	.st21{fill:#5561A8;}
	.st22{fill:#8287C0;}
</style>
<g class="st1">
	<path class="st2" d="M101.95,197.11c15.02-0.01,30.03-0.01,45.05-0.02c5.59,0,11.19,0.05,16.78-0.01
		c16.39-0.16,31.27,11.25,35.16,27.72c0.71,3.02,1,6.1,1.04,9.19c0.04,3.31,0.01,6.62,0.01,9.94c0,0.29,0.01,0.59-0.01,0.88
		c-0.12,1.56-0.8,2.23-2.36,2.31c-0.51,0.02-1.03,0.01-1.55,0.01c-41.44,0-82.88,0-124.32,0c-0.74,0-1.48,0.02-2.2-0.06
		c-0.85-0.09-1.49-0.72-1.61-1.57c-0.08-0.58-0.07-1.17-0.07-1.76c-0.01-3.53-0.01-7.07-0.01-10.6c0.02-11.22,4.45-20.4,12.91-27.65
		c5.83-4.99,12.67-7.63,20.28-8.33C101.37,197.37,101.66,197.36,101.95,197.11z"/>
	<path class="st2" d="M95.7,153.18c-0.39-18.92,14.9-37.25,36.64-38.19c20.66-0.89,39.62,15.27,39.76,38.23
		c0.13,20.92-16.75,37.62-37.14,38.19C112.89,192.04,95.48,174.02,95.7,153.18z"/>
</g>
</svg>
