<?xml version="1.0" encoding="utf-8"?>
<!-- Generator: Adobe Illustrator 27.1.1, SVG Export Plug-In . SVG Version: 6.00 Build 0)  -->
<svg version="1.1" id="Layer_1" xmlns="http://www.w3.org/2000/svg" xmlns:xlink="http://www.w3.org/1999/xlink" x="0px" y="0px"
	 viewBox="0 0 248 343" style="enable-background:new 0 0 248 343;" xml:space="preserve">
<style type="text/css">
	.st0{fill:#233F94;enable-background:new    ;}
	.st1{enable-background:new    ;}
	.st2{fill:#233F94;}
	.st3{fill:#767CB9;}
	.st4{fill:#8A8FC4;}
	.st5{fill:#9599C8;}
	.st6{fill:#C0C3E1;}
	.st7{fill:#8287BF;}
	.st8{fill:#243F95;}
	.st9{fill:#ECC61C;}
	.st10{fill:#FCDA79;}
	.st11{fill:#ED2D24;}
	.st12{fill:#98AFB3;}
	.st13{fill:#BF2126;}
	.st14{fill:#256C91;}
	.st15{fill:#F3954E;}
	.st16{fill:#AFBECF;}
	.st17{fill:#E7753E;}
	.st18{fill:#F9B37A;}
	.st19{fill:#7A8C8F;}
	.st20{fill:#D8E6E7;}
	.st21{fill:#5561A8;}
	.st22{fill:#8287C0;}
</style>
<path class="st2" d="M188.5,271c-43.24,0-86.48,0-129.72,0c-0.39-0.14-0.78-0.34-1.18-0.42c-6.62-1.33-11.69-4.92-15.38-10.52
	c-3.51-5.34-3.77-11.29-3.41-17.4c1.13-19.12,2.22-38.24,3.29-57.36c1.16-20.54,2.28-41.08,3.42-61.61
	c0.32-5.67,3.28-8.48,8.97-8.48c9.17-0.01,18.35,0,27.52,0c0.76,0,1.52,0,2.48,0c0-4.35-0.05-8.45,0.01-12.55
	c0.09-5.46-0.27-10.99,0.5-16.36c3.2-22.39,24.49-37.03,46.75-32.46c16.93,3.48,29.83,18.21,30.69,35.46
	c0.38,7.72,0.16,15.46,0.2,23.2c0.01,0.83,0,1.67,0,2.71c1.01,0,1.78,0,2.55,0c9.24,0,18.49-0.01,27.73,0
	c5.45,0.01,8.53,3.12,8.8,8.5c0.54,10.98,1.2,21.96,1.81,32.93c0.67,11.9,1.33,23.79,2.01,35.69c0.65,11.33,1.33,22.66,1.95,33.99
	c0.4,7.29,0.97,14.59,0.99,21.89c0.04,10.04-6.78,18.84-16.36,21.78C190.94,270.36,189.71,270.66,188.5,271z M146.96,115.13
	c0-8.03,0.04-15.82-0.03-23.61c-0.01-1.68-0.28-3.4-0.67-5.04c-2.63-11.21-12.58-18.34-24.71-17.75
	c-10.39,0.5-20.02,9.28-20.92,20.09c-0.71,8.59-0.3,17.28-0.38,25.92c0,0.11,0.15,0.22,0.27,0.39
	C115.89,115.13,131.29,115.13,146.96,115.13z"/>
</svg>
