<?xml version="1.0" encoding="utf-8"?>
<!-- Generator: Adobe Illustrator 27.1.1, SVG Export Plug-In . SVG Version: 6.00 Build 0)  -->
<svg version="1.1" id="Layer_1" xmlns="http://www.w3.org/2000/svg" xmlns:xlink="http://www.w3.org/1999/xlink" x="0px" y="0px"
	 viewBox="0 0 248 343" style="enable-background:new 0 0 248 343;" xml:space="preserve">
<style type="text/css">
	.st0{fill:#233F94;enable-background:new    ;}
	.st1{enable-background:new    ;}
	.st2{fill:#233F94;}
	.st3{fill:#767CB9;}
	.st4{fill:#8A8FC4;}
	.st5{fill:#9599C8;}
	.st6{fill:#C0C3E1;}
	.st7{fill:#8287BF;}
	.st8{fill:#243F95;}
	.st9{fill:#ECC61C;}
	.st10{fill:#FCDA79;}
	.st11{fill:#ED2D24;}
	.st12{fill:#98AFB3;}
	.st13{fill:#BF2126;}
	.st14{fill:#256C91;}
	.st15{fill:#F3954E;}
	.st16{fill:#AFBECF;}
	.st17{fill:#E7753E;}
	.st18{fill:#F9B37A;}
	.st19{fill:#7A8C8F;}
	.st20{fill:#D8E6E7;}
	.st21{fill:#5561A8;}
	.st22{fill:#8287C0;}
</style>
<g>
	<path class="st2" d="M119.59,199c-9.53,0-19.07,0-28.6,0c-0.81,0-1.62-0.01-2.43-0.09c-0.25-0.03-0.57-0.23-0.56-0.61
		c0-0.61-0.06-1.22,0-1.82c0.96-9.89,3.45-19.33,8.19-28.12c1.64-3.05,3.59-5.88,5.9-8.47c1.7-1.9,3.63-3.52,5.81-4.86
		c1.13-0.69,2.12-0.83,3.38-0.19c3.6,1.82,7.47,2.49,11.5,2.31c2.35-0.1,4.64-0.54,6.82-1.39c1.07-0.42,1.92-0.29,2.83,0.33
		c1.86,1.26,3.54,2.71,5.05,4.37c3.23,3.56,5.72,7.61,7.74,11.95c3.67,7.9,5.65,16.24,6.49,24.88c0.14,1.5-0.02,1.69-1.67,1.7
		c-3.45,0.02-6.9,0.01-10.35,0.01C132.98,199,126.28,199,119.59,199z"/>
	<path class="st2" d="M191.8,161.31c1.47,1.42,2.65,3.18,3.78,4.98c3.76,5.96,6.28,12.46,8.04,19.26c1.04,4.03,1.76,8.11,2.14,12.25
		c0.03,0.29-0.03,0.59-0.05,0.84c-0.57,0.46-1.2,0.35-1.79,0.35c-14.79,0.01-29.59,0-44.38,0c-0.3,0-0.61,0.01-0.91-0.01
		c-1.07-0.06-1.21-0.19-1.33-1.23c-0.31-2.51-0.59-5.03-0.94-7.53c-0.43-3.01-1.11-5.97-1.98-8.88c-0.33-1.11-0.35-2.16,0.09-3.26
		c2.24-5.68,4.92-11.11,8.8-15.87c0.58-0.7,1.2-1.37,1.83-2.03c0.39-0.42,0.85-0.48,1.34-0.14c0.67,0.46,1.32,0.95,2,1.38
		c6.73,4.23,13.65,4.65,20.78,1.04c0.72-0.36,1.43-0.75,2.15-1.11C191.44,161.31,191.55,161.33,191.8,161.31z"/>
	<path class="st2" d="M59.05,155.92c0.81,0.56,1.54,1.09,2.3,1.59c7.51,4.88,15.28,5.5,23.34,1.45c0.63-0.32,1.26-0.65,1.87-1.01
		c0.54-0.32,0.97-0.16,1.33,0.25c1.47,1.68,2.79,3.48,3.93,5.4c0.22,0.38,0.26,0.75,0.02,1.14c-0.16,0.26-0.3,0.53-0.44,0.8
		c-4.59,8.48-7.32,17.55-8.48,27.1c-0.21,1.71-0.34,3.43-0.51,5.14c-0.1,0.98-0.3,1.16-1.35,1.22c-0.4,0.02-0.81,0.01-1.22,0.01
		c-11.87,0-23.73,0-35.6,0c-2.75,0-2.81-0.07-2.47-2.66c1.44-11.07,4.51-21.6,10.19-31.28c1.59-2.72,3.41-5.28,5.52-7.62
		C57.96,156.91,58.49,156.45,59.05,155.92z"/>
	<path class="st2" d="M142.03,126.56c-0.57,9.16-7.3,17.28-15.96,19.1c-7.19,1.52-13.43-0.42-18.58-5.6
		c-3.69-3.71-5.74-8.25-6.1-13.51c0.56-0.43,0.45-0.82-0.06-1.2c0-0.61,0-1.23,0.01-1.84c0.51-0.37,0.62-0.77,0.06-1.2
		c0.56-6.04,3.17-11.03,7.86-14.85c9.55-7.79,23.48-5.11,29.83,5.7c1.66,2.82,2.7,5.86,2.92,9.15
		C141.35,123.74,141.35,125.15,142.03,126.56z"/>
	<path class="st2" d="M92.99,129.84c-0.04,7.56-2.07,12.49-6.28,16.46c-7.01,6.6-17.81,6.5-24.76-0.19
		c-8.93-8.6-7.98-23.52,1.94-30.66c7.66-5.51,17.99-4.33,24.18,2.8C91.38,122.08,93.03,126.55,92.99,129.84z"/>
	<path class="st2" d="M162.92,135.11c0.32-4.21,1.98-7.83,4.87-10.86c7.03-7.38,18.41-6.97,24.93,0.86
		c5.58,6.71,5.63,16.85,0.11,23.6c-7.23,8.84-20.42,8.26-26.84-1.21c-1.79-2.64-2.92-5.54-3.08-8.77
		C163.61,137.53,163.61,136.32,162.92,135.11z"/>
	<path class="st2" d="M53.98,154.61c0,1.15-0.37,2.18-1,3.14c-0.78,1.18-1.55,2.37-2.33,3.55c-5.84,8.88-11.67,17.76-17.51,26.64
		c-0.44,0.68-0.86,1.38-1.38,2c-1.76,2.1-4.44,2.55-6.84,1.19c-2.78-1.58-3.9-4.18-2.89-6.88c0.28-0.75,0.71-1.45,1.15-2.12
		c6.6-10.07,13.21-20.14,19.82-30.21c0.17-0.25,0.33-0.51,0.51-0.76c2.69-3.69,7.46-3.42,9.78,0.54
		C53.84,152.61,53.97,153.59,53.98,154.61z"/>
	<path class="st2" d="M225.65,186.89c-0.1,2.8-1.18,4.42-3.19,5.33c-1.91,0.87-4.39,0.26-5.83-1.35c-0.54-0.6-0.97-1.29-1.42-1.97
		c-5.34-8.12-10.67-16.25-16-24.38c-0.44-0.68-0.9-1.35-1.24-2.08c-1.13-2.46-0.31-5.27,1.88-6.69c2.17-1.4,5.09-0.93,6.84,1.14
		c0.39,0.46,0.72,0.98,1.05,1.48c5.45,8.29,10.9,16.59,16.34,24.88C224.93,184.53,225.81,185.79,225.65,186.89z"/>
	<path class="st2" d="M151.41,172.48c-2.04-3.11-3.97-6.07-5.91-9.02c-1.05-1.61-2.15-3.18-3.14-4.83c-2.2-3.65-0.55-7.78,3.56-8.86
		c2.28-0.6,4.21,0.11,5.64,1.98c0.8,1.04,1.48,2.17,2.2,3.27c1.28,1.94,2.54,3.89,3.83,5.83c0.37,0.56,0.51,1.1,0.08,1.67
		c-2.27,2.99-3.92,6.35-5.76,9.61C151.87,172.2,151.75,172.24,151.41,172.48z"/>
	<path class="st2" d="M142.03,126.56c-0.68-1.41-0.68-2.82-0.01-4.23C142.4,123.74,142.4,125.15,142.03,126.56z"/>
	<path class="st2" d="M162.92,135.11c0.7,1.21,0.7,2.41,0,3.62C162.54,137.53,162.54,136.32,162.92,135.11z"/>
	<path class="st2" d="M101.4,122.32c0.56,0.43,0.45,0.82-0.06,1.2C101.08,123.1,101.11,122.71,101.4,122.32z"/>
	<path class="st2" d="M101.33,125.36c0.51,0.38,0.61,0.77,0.06,1.2C101.1,126.17,101.06,125.77,101.33,125.36z"/>
</g>
</svg>
